<svg width="902" height="1036" viewBox="0 0 902 1036" fill="none" xmlns="http://www.w3.org/2000/svg">
<g clip-path="url(#clip0_49_3852)">
<path d="M57.8337 473.479C57.8337 473.479 57.8337 472.917 57.8337 472.636V209.529C57.7469 208.719 57.7469 207.903 57.8337 207.093C57.8337 207.093 57.8337 206.624 57.8337 206.343C57.9638 205.854 58.1526 205.382 58.3961 204.938L59.0523 204.095C59.3031 203.698 59.5852 203.322 59.8959 202.97L60.8332 202.221L61.7705 201.471H62.7079C63.606 200.972 64.5932 200.654 65.6136 200.534H67.1134H68.2382H69.4567H70.6753H71.7063L151.193 244.479C152.866 245.426 154.208 246.866 155.036 248.602L295.636 329.745L353.095 296.576L0.74987 94.1855L0 945.91L57.4588 983.39V561.275L57.8337 473.479Z" fill="white"/>
<path d="M363.031 214.958L67.5818 44.4258L10.123 77.5953L363.031 281.297V214.958Z" fill="white"/>
<path d="M145.474 878.347H144.818H143.037H141.631H140.6H139.757L138.351 877.785L136.757 876.473C136.21 875.945 135.737 875.347 135.351 874.693C134.993 874.106 134.709 873.476 134.508 872.819C134.549 872.508 134.549 872.193 134.508 871.882C134.456 871.383 134.456 870.881 134.508 870.382V781.275C134.559 780.224 134.748 779.184 135.07 778.182L136.195 611.492L76.5801 577.666V984.789L746.589 598.374L747.245 531.754L147.349 877.41C146.754 877.779 146.127 878.093 145.474 878.347Z" fill="white"/>
<path d="M137.693 259.093L76.8593 225.455L76.6719 457.173L136.568 422.598L137.693 259.093Z" fill="white"/>
<path d="M892.157 77.8783L829.449 44.334L385.339 300.32L377.184 305.192C376.773 305.435 376.332 305.624 375.872 305.754L85.9531 473.476L362.749 632.764L361.812 566.05L291.699 525.666C291.699 525.666 291.23 525.666 291.043 525.666L212.025 483.314C210.56 482.513 209.335 481.334 208.478 479.901C207.621 478.468 207.163 476.832 207.151 475.162C207.128 473.495 207.55 471.852 208.374 470.403C209.197 468.954 210.393 467.75 211.838 466.917L292.542 420.723L892.157 77.8783Z" fill="white"/>
<path d="M365.563 465.234L444.206 421.289L520.318 377.344L596.523 333.399C598.071 332.556 599.826 332.166 601.585 332.275L754.465 245.041L831.889 201.471C833.314 200.649 834.93 200.216 836.576 200.216C838.221 200.216 839.837 200.649 841.262 201.471C842.675 202.308 843.843 203.502 844.649 204.933C845.456 206.364 845.871 207.981 845.855 209.623L840.419 984.889L896.659 952.469L902.002 94.1855L235.836 474.791L295.263 506.461L361.814 468.982C362.732 467.44 364.021 466.152 365.563 465.234Z" fill="white"/>
<path d="M529.509 465.33L600.934 506.464L658.393 473.388L602.152 441.062L524.916 396.273L467.551 429.443L529.509 465.33Z" fill="white"/>
<path d="M601.018 352.332L543.653 385.502L682.004 465.333C683.434 466.159 684.621 467.347 685.444 468.779C686.267 470.21 686.697 471.834 686.691 473.485C686.781 474.294 686.781 475.112 686.691 475.921C686.022 478.303 684.439 480.324 682.285 481.543L532.592 567.559C531.953 568.331 531.193 568.995 530.343 569.527L453.294 613.471L377.088 657.51L300.882 701.455C300.325 701.783 299.726 702.035 299.102 702.204L152.408 786.534V853.154L747.43 510.028L748.086 437.223L601.018 352.332Z" fill="white"/>
<path d="M762.15 873.105C762.134 873.448 762.134 873.792 762.15 874.136L761.588 874.885C761.305 875.314 760.992 875.721 760.65 876.103H760.088L758.775 877.134H758.213C756.935 877.789 755.524 878.141 754.089 878.165C752.438 878.148 750.822 877.695 749.402 876.853L534.283 753.545V819.884L821.858 985.731L827.107 225.363L768.618 258.626L763.087 869.544C763.132 869.981 763.132 870.42 763.087 870.856C763.134 871.198 763.134 871.545 763.087 871.887C763.087 871.887 762.244 872.637 762.15 873.105Z" fill="white"/>
<path d="M601.025 704.072L543.473 737.335L744.157 853.147L743.875 785.403L601.025 704.072Z" fill="white"/>
<path d="M448.519 0.486328L391.154 33.6558L448.519 66.8253L505.978 33.6558L448.519 0.486328Z" fill="#EF3E47"/>
<path d="M515.345 49.8613L457.887 83.0308V235.479L515.064 202.31L515.345 49.8613Z" fill="#EF3E47"/>
<path d="M381.781 280.923L439.146 246.442V83.0308L381.781 49.8613V280.923Z" fill="#EF3E47"/>
<path d="M439.146 445.465L379.438 478.915L381.5 633.238L439.146 599.975V445.465Z" fill="#EF3E47"/>
<path d="M457.887 589.287L516.189 556.024L515.439 478.91L457.887 445.74V589.287Z" fill="#EF3E47"/>
<path d="M457.887 1035.48L515.345 1002.31V753.539L457.887 786.709V1035.48Z" fill="#EF3E47"/>
<path d="M381.773 1002.32L439.138 1035.49V797.496L381.398 830.759L381.773 1002.32Z" fill="#EF3E47"/>
<path d="M296.198 682.53L353.657 649.361L76.5801 489.697V556.036L296.198 682.53Z" fill="white"/>
</g>
<defs>
<clipPath id="clip0_49_3852">
<rect width="902" height="1035" fill="white" transform="translate(0 0.486328)"/>
</clipPath>
</defs>
</svg>
