<svg xmlns="http://www.w3.org/2000/svg" xmlns:xlink="http://www.w3.org/1999/xlink" width="550" height="550" viewBox="0 0 550 550">
  <defs>
    <path id="digital-brain-dark@1x-a" d="M8.052,0.072 C12.341,0.072 15.823,3.554 15.823,7.842 C15.823,12.131 12.341,15.613 8.052,15.613 C3.763,15.613 0.281,12.131 0.281,7.842 C0.281,3.554 3.763,0.072 8.052,0.072 Z"/>
    <path id="digital-brain-dark@1x-c" d="M29.998,2.1 C32.289,3.977 33.539,6.84 33.36,9.796 C32.891,17.528 32.382,25.916 32.382,25.916 L31.336,48.885 L32.4,67.006 C32.418,67.16 32.427,67.317 32.427,67.476 C32.427,69.673 30.644,71.456 28.447,71.456 C26.379,71.456 24.676,69.874 24.485,67.855 L24.467,67.856 L22.947,49.337 L23.666,33.824 C23.666,33.824 20.867,50.122 20.867,50.122 L19.308,67.973 L19.297,67.972 C19.145,70.031 17.425,71.657 15.328,71.657 C13.131,71.657 11.348,69.874 11.348,67.677 C11.348,67.534 11.355,67.392 11.37,67.252 L12.36,48.598 L14.949,27.354 L15.928,16.757 C15.928,16.757 14.667,18.25 13.439,19.703 C12.856,20.394 12.005,20.802 11.101,20.825 C10.1978,20.848 9.3274,20.484 8.7096,19.824 L0.9895,11.578 C0.9146,11.507 0.8437,11.431 0.7774,11.352 L0.7737,11.348 C0.3786,10.874 0.1409,10.264 0.1409,9.599 C0.1409,8.09 1.3663,6.864 2.8756,6.864 C3.8181,6.864 4.6499,7.342 5.1417,8.069 L10.0965,13.836 C10.1972,13.953 10.3492,14.013 10.5028,13.996 C10.6564,13.98 10.7919,13.888 10.8649,13.752 C11.795,12.019 14.514,6.949 16.155,3.889 C16.986,2.341 18.421,1.208 20.119,0.759 C20.479,0.664 21.063,0.509 21.792,0.317 C24.655,-0.44 27.707,0.223 29.998,2.1 Z"/>
    <path id="digital-brain-dark@1x-e" d="M3.6421,0.267 C4.2603,0.267 4.8319,0.468 5.2949,0.808 L5.2949,0.808 L5.306,0.795 L5.4052,0.894 C5.551,1.012 5.6845,1.145 5.8036,1.291 C5.8036,1.291 11.0657,6.534 13.1941,8.655 C13.7768,9.235 14.4326,9.738 15.1449,10.149 C17.5134,11.516 22.9795,14.672 22.9795,14.672 C22.9795,14.672 32.585,16.533 38.7863,17.735 C41.8757,18.334 44.2676,20.789 44.7848,23.894 C45.1669,26.187 45.8219,30.941 46.2194,33.871 C46.4426,35.495 46.2594,37.15 45.6862,38.687 C44.0359,43.112 40.6039,52.316 40.6039,52.316 L40.6039,52.316 L39.5223,66.835 L40.642,85.066 C40.6482,85.137 40.6526,85.208 40.6551,85.279 L40.6551,85.279 L40.6609,85.372 L40.6574,85.372 L40.6578,85.426 C40.6578,87.6704 38.8353,89.4929 36.5906,89.4929 C34.3459,89.4929 32.5234,87.6704 32.5234,85.426 L32.5234,85.426 L32.5235,85.409 L31.2509,54.713 L29.3421,66.835 L28.4435,86.1531 C28.4427,86.2009 28.4435,86.249 28.4435,86.2973 C28.4435,88.542 26.6211,90.3645 24.3763,90.3645 C22.1316,90.3645 20.3092,88.542 20.3092,86.2973 C20.3092,86.2681 20.3095,86.2391 20.3102,86.2102 L20.3102,86.2102 L20.3102,86.2061 L20.3149,86.0804 L21.0707,65.733 C21.0707,65.733 22.5399,49.505 22.9004,45.524 C22.9531,44.942 22.9625,44.357 22.9286,43.773 C22.7411,40.547 22.0863,29.28 21.8204,24.706 C21.7491,23.479 21.0965,22.36 20.0638,21.693 C17.9709,20.343 14.385,18.029 12.3724,16.73 C11.3896,16.096 10.5032,15.324 9.7405,14.437 C7.2813,11.578 1.7333,5.127 1.7333,5.127 L1.7333,5.127 L1.7453,5.113 C1.1932,4.602 0.8474,3.872 0.8474,3.061 C0.8474,1.519 2.0996,0.267 3.6421,0.267 Z"/>
    <path id="digital-brain-dark@1x-g" d="M8.0689,0.349 C12.4519,0.349 16.0103,3.908 16.0103,8.291 C16.0103,12.674 12.4519,16.232 8.0689,16.232 C3.6859,16.232 0.1275,12.674 0.1275,8.291 C0.1275,3.908 3.6859,0.349 8.0689,0.349 Z"/>
    <path id="digital-brain-dark@1x-i" d="M7.523,0.961 L11.497,5.71 C13.151,5.251 15.022,5.291 17.012,5.827 L13.374,3.753 L17.827,1.18 C20.07,2.041 22.361,3.363 24.604,5.093 L25.419,10.682 C27.409,12.442 29.28,14.563 30.934,16.933 L34.908,16.772 C36.601,19.504 38.029,22.396 39.133,25.329 L36.177,27.549 C37.003,30.204 37.465,32.809 37.539,35.227 L41.678,39.674 C41.546,42.219 41.036,44.503 40.171,46.432 L35.717,49.005 C33.81,48.065 33.414,46.289 31.851,46.934 L33.039,52.64 C31.851,53.683 28.936,56.017 26.752,55.488 L24.276,46.773 C22.254,46.051 20.177,44.852 18.155,43.239 L15.497,45.907 C13.313,43.913 11.249,41.575 9.391,38.987 L10.58,34.653 C9.017,32.203 7.722,29.581 6.763,26.924 L2.26,24.545 C1.395,21.616 0.885,18.744 0.752,16.046 L4.892,16.378 C4.966,14.046 5.428,11.974 6.254,10.274 L3.298,4.639 C3.771,3.928 2.481,4.089 3.069,3.534 M14.689,22.711 C14.689,26.871 17.613,31.936 21.215,34.016 C24.818,36.096 27.742,34.407 27.742,30.248 C27.742,26.088 24.818,21.023 21.215,18.943"/>
    <path id="digital-brain-dark@1x-k" d="M3.903,0.31 L6.099,2.934 C7.013,2.68 8.047,2.702 9.147,2.999 L7.137,1.853 L9.597,0.431 C10.837,0.907 12.102,1.638 13.342,2.593 L13.792,5.681 C14.891,6.654 15.925,7.826 16.84,9.135 L19.035,9.047 C19.971,10.556 20.76,12.154 21.37,13.775 L19.736,15.001 C20.193,16.468 20.448,17.907 20.489,19.244 L22.776,21.701 C22.703,23.107 22.421,24.369 21.943,25.435 L19.482,26.857 C18.428,26.337 18.209,25.356 17.346,25.713 L18.003,28.865 C17.346,29.441 15.736,30.731 14.529,30.439 L13.161,25.624 C12.043,25.225 10.896,24.562 9.778,23.671 L8.31,25.145 C7.103,24.043 5.963,22.751 4.936,21.321 L5.593,18.927 C4.729,17.573 4.014,16.124 3.484,14.656 L0.996,13.341 C0.518,11.723 0.236,10.136 0.163,8.645 L2.45,8.829 C2.491,7.54 2.746,6.395 3.203,5.456 L1.569,2.342 C1.831,1.95 1.118,2.038 1.443,1.732 M7.863,12.328 C7.863,14.627 9.479,17.425 11.469,18.575 C13.46,19.724 15.076,18.791 15.076,16.493 C15.076,14.194 13.46,11.395 11.469,10.246"/>
    <path id="digital-brain-dark@1x-m" d="M24.75,5.968 L24.9684791,6.47144116 C26.3882939,9.74313266 27.779,12.948 27.779,12.948 L31.575,20.211 L27.779,21.295 L23.84,17.446 C23.84,17.446 23.662,14.651 23.496,12.055 C23.488,11.919 23.375,11.814 23.238,11.814 C23.102,11.815 22.99,11.922 22.983,12.058 C22.623,18.714 21.976,30.6517 21.976,30.6517 L23.84,53.124 L24.729,71.1728 C24.742,71.3029 24.748,71.4347 24.748,71.5681 C24.748,73.7595 22.969,75.5387 20.778,75.5387 C18.586,75.5387 16.807,73.7595 16.807,71.5681 C16.807,71.5255 16.808,71.4831 16.809,71.4408 L15.765,54.1998 L13.902,41.2103 L12.665,75.0863 C12.679,75.2224 12.687,75.3606 12.687,75.5004 C12.687,77.6918 10.908,79.471 8.716,79.471 C6.525,79.471 4.746,77.6918 4.746,75.5004 L4.746,53.9819 L4.206,23.864 L10.472,27.9038 L1.726,18.96 L0.842,9.722 C0.842,9.722 1.497,8.184 2.128,6.705 C2.85,5.011 4.334,3.76 6.126,3.335 C8.53,2.764 12.07,1.924 15.195,1.183 C19.119,0.252 23.145,2.268 24.75,5.968 Z"/>
    <path id="digital-brain-dark@1x-o" d="M9.75,5.968 L9.96847907,6.47144116 C11.3882939,9.74313266 12.779,12.948 12.779,12.948 L16.575,20.211 L12.779,21.295 L8.84,17.446 C8.84,17.446 7.4,16.441 7.234,13.845 C7.226,13.709 7.113,13.604 6.976,13.604 C6.84,13.605 6.728,13.712 6.721,13.848 C6.361,20.504 6.976,30.6517 6.976,30.6517 L4.047,22.515 C4.047,22.515 -1.196,4.054 2.001,0.876 C5.925,-0.055 8.145,2.268 9.75,5.968 Z"/>
    <path id="digital-brain-dark@1x-q" d="M8.634,0.502 C8.634,0.502 10.759,5.658 11.832,8.264 C12.231,9.232 12.409,10.276 12.352,11.322 C11.942,18.872 10.208,50.7846 10.208,50.7846 C6.7,51.6307 2.71,51.6158 0.224,50.1804 L0.224,50.1804 L3.54,28.6658 L8.634,0.502 Z"/>
    <path id="digital-brain-dark@1x-s" d="M1.47897477,0.991673858 L7.585,19.416 C7.813,22.259 8.281,28.1001 8.281,28.1001 C8.281,28.1001 11.107,43.8427 12.677,49.8665 C10.214,51.4544 7.585,52.1162 4.292,51.4559 C4.292,51.4559 0.985,17.305 0.464,11.927 C0.418,11.455 0.42,10.98 0.47,10.509 C0.716,8.191 1.48,0.982 1.48,0.982 L1.47897477,0.991673858 Z"/>
  </defs>
  <g fill="none" fill-rule="evenodd">
    <path fill="#3F6C9F" fill-opacity=".1" d="M225.033,302.012 C223.176,300.94 220.889,300.94 219.033,302.012 C205.797,309.653 152.5822,340.377 136.6951,349.55 C135.7668,350.085 135.195,351.076 135.195,352.148 C135.195,353.219 135.7668,354.21 136.695,354.746 C152.9215,364.114 208.18,396.0178 221.693,403.8196 C223.55,404.8914 225.837,404.8914 227.694,403.8196 C240.929,396.1781 294.144,365.454 310.031,356.282 C310.959,355.746 311.531,354.756 311.531,353.684 C311.531,352.612 310.959,351.622 310.031,351.086 C293.805,341.718 238.546,309.814 225.033,302.012 Z"/>
    <path fill="#3F6C9F" fill-opacity=".3" d="M174.541,338.741 C172.276,337.433 169.485,337.433 167.22,338.741 C151.9397,347.562 93.1838,381.485 74.6106,392.208 C73.4426,392.883 72.7232,394.1289 72.7232,395.4775 C72.7232,396.8261 73.4426,398.0723 74.6105,398.7466 C87.2831,406.063 117.6415,423.5905 128.1585,429.6625 C130.4238,430.9703 133.2147,430.9703 135.4799,429.6625 C150.7599,420.8406 209.516,386.918 228.089,376.195 C229.257,375.52 229.976,374.274 229.976,372.926 C229.976,371.577 229.257,370.331 228.089,369.656 C215.417,362.34 185.058,344.813 174.541,338.741 Z"/>
    <path fill="#01050C" fill-opacity=".2" d="M121.6898 384.138C132.5753 382.092 142.3851 384.728 143.5824 390.02 144.7798 395.3124 136.9142 401.2702 126.0287 403.3162 115.1432 405.3621 105.3334 402.7264 104.1361 397.434 102.9387 392.142 110.8043 386.184 121.6898 384.138zM169.69 362.138C180.575 360.092 190.385 362.728 191.582 368.02 192.78 373.312 184.914 379.27 174.029 381.316 163.143 383.362 153.3334 380.726 152.1361 375.434 150.9387 370.142 158.8043 364.184 169.69 362.138z"/>
    <path stroke="#3F6C9F" stroke-linecap="round" stroke-linejoin="round" d="M212.541 291.268C210.276 289.96 207.485 289.96 205.22 291.268 198.756 295 185.281 302.78 177.611 307.208 176.443 307.883 175.723 309.129 175.723 310.478 175.723 311.826 176.443 313.072 177.611 313.747 185.045 318.039 197.887 325.453 204.159 329.074 206.424 330.382 209.215 330.382 211.48 329.074 217.944 325.342 231.419 317.562 239.089 313.134 240.257 312.46 240.976 311.213 240.976 309.865 240.976 308.516 240.257 307.27 239.089 306.596 231.654 302.303 218.813 294.889 212.541 291.268zM139.5411 421.2683C137.2759 419.9604 134.4849 419.9604 132.2197 421.2683 128.37 423.4909 122.262 427.0174 117.7903 429.5991 116.6223 430.2734 115.9029 431.5196 115.9029 432.8682 115.9029 434.2168 116.6224 435.463 117.7903 436.1373 122.0771 438.6122 127.8397 441.9393 131.5372 444.074 133.8025 445.3819 136.5934 445.3819 138.8586 444.074 142.7083 441.8514 148.8163 438.3249 153.288 435.7432 154.456 435.0689 155.1754 433.8227 155.1754 432.4741 155.1754 431.1255 154.4559 429.8794 153.288 429.2051 149.0012 426.7301 143.2386 423.403 139.5411 421.2683z"/>
    <path stroke="#3F6C9F" stroke-linecap="round" stroke-linejoin="round" stroke-opacity=".3" d="M288.541,396.2683 C286.276,394.9604 283.485,394.9604 281.22,396.2683 C274.756,400.0001 261.281,407.7799 253.611,412.2084 C252.443,412.8827 251.723,414.1289 251.723,415.4775 C251.723,416.8261 252.443,418.0723 253.611,418.7466 C267.933,427.0159 305.308,448.5941 317.158,455.436 C319.424,456.7438 322.215,456.7438 324.48,455.436 C330.944,451.7042 344.419,443.9243 352.089,439.4958 C353.257,438.8215 353.976,437.5754 353.976,436.2268 C353.976,434.8782 353.257,433.632 352.089,432.9577 C337.766,424.6884 300.392,403.1101 288.541,396.2683 Z"/>
    <path fill="#FFF" fill-opacity=".1" d="M61.433,269.939 C61.433,267.086 62.9553,264.449 65.4263,263.023 C78.3149,255.581 118.7102,232.259 131.4815,224.886 C132.2883,224.42 133.2823,224.42 134.0891,224.886 C134.8958,225.351 135.3928,226.212 135.3928,227.144 C135.3928,239.179 135.3928,271.928 135.3928,284.07 C135.3928,286.923 133.8706,289.56 131.3995,290.987 C118.5109,298.428 78.1156,321.75 65.3444,329.124 C64.5376,329.59 63.5436,329.59 62.7368,329.124 C61.93,328.658 61.433,327.797 61.433,326.865 C61.433,314.831 61.433,282.082 61.433,269.939 Z"/>
    <path stroke="#000" stroke-linecap="round" stroke-linejoin="round" stroke-opacity=".1" d="M61.433,269.939 C61.433,267.086 62.9553,264.449 65.4263,263.023 C78.3149,255.581 118.7102,232.259 131.4815,224.886 C132.2883,224.42 133.2823,224.42 134.0891,224.886 C134.8958,225.351 135.3928,226.212 135.3928,227.144 C135.3928,239.179 135.3928,271.928 135.3928,284.07 C135.3928,286.923 133.8706,289.56 131.3995,290.987 C118.5109,298.428 78.1156,321.75 65.3444,329.124 C64.5376,329.59 63.5436,329.59 62.7368,329.124 C61.93,328.658 61.433,327.797 61.433,326.865 C61.433,314.831 61.433,282.082 61.433,269.939 Z"/>
    <path stroke="#E01A33" d="M111.3584 256.818C112.7375 256.022 113.8572 256.668 113.8572 258.261 113.8572 259.853 112.7375 261.793 111.3584 262.589 109.9792 263.385 108.8595 262.739 108.8595 261.146 108.8595 259.554 109.9792 257.614 111.3584 256.818zM111.3584 271.566C112.7375 270.77 113.8572 271.416 113.8572 273.009 113.8572 274.601 112.7375 276.541 111.3584 277.337 109.9792 278.133 108.8595 277.487 108.8595 275.894 108.8595 274.302 109.9792 272.362 111.3584 271.566zM111.3584 286.314C112.7375 285.518 113.8572 286.164 113.8572 287.756 113.8572 289.349 112.7375 291.288 111.3584 292.085 109.9792 292.881 108.8595 292.234 108.8595 290.642 108.8595 289.049 109.9792 287.11 111.3584 286.314z"/>
    <path fill="#B1BBC9" d="M106.5558,261.899 C106.5558,261.899 103.953,263.402 101.3818,264.886 C98.1399,266.758 96.1428,270.217 96.1428,273.96 C96.1428,273.962 96.1428,273.963 96.1428,273.965 C96.1428,275.864 97.156,277.619 98.8008,278.568 C100.4456,279.518 102.472,279.518 104.1168,278.568 C104.2217,278.508 104.2793,278.475 104.2793,278.475 L104.1168,277.414 C104.1168,277.414 103.7217,277.642 103.6168,277.702 C102.2814,278.473 100.6362,278.473 99.3008,277.702 C97.9654,276.931 97.1428,275.507 97.1428,273.965 C97.1428,273.963 97.1428,273.962 97.1428,273.96 C97.1428,270.574 98.9493,267.445 101.8818,265.752 C104.453,264.268 107.0558,262.765 107.0558,262.765 L106.5558,261.899 Z"/>
    <polyline stroke="#B1BBC9" points="104.417 261.146 106.638 262.429 104.417 266.276"/>
    <polygon fill="#B1BBC9" points="106.251 276.118 105.14 276.759 105.14 278.042 106.251 277.4"/>
    <path fill="#B1BBC9" d="M116.5777,271.374 C116.5777,271.374 117.0819,271.083 117.8609,270.633 C119.4519,269.715 121.412,269.715 123.0029,270.633 C124.5939,271.552 125.5739,273.249 125.5739,275.086 L125.5739,275.091 C125.5739,277.591 124.2397,279.902 122.0739,281.153 C120.4242,282.105 119.3542,282.723 119.3542,282.723 L119.3542,283.878 C119.3542,283.878 120.9242,282.971 122.5739,282.019 C125.0491,280.59 126.5739,277.949 126.5739,275.091 L126.5739,275.086 C126.5739,272.892 125.4033,270.864 123.5029,269.767 C121.6026,268.67 119.2613,268.67 117.3609,269.767 C116.5819,270.217 116.0777,270.508 116.0777,270.508 L116.5777,271.374 Z"/>
    <polyline stroke="#B1BBC9" points="118.716 266.997 116.495 270.844 118.716 272.127"/>
    <polygon fill="#B1BBC9" points="116.883 284.086 117.994 283.445 117.994 284.727 116.883 285.368"/>
    <line x1="99.975" x2="104.417" y1="288.398" y2="290.963" stroke="#4D72EF"/>
    <line x1="104.417" x2="99.975" y1="285.833" y2="293.527" stroke="#4D72EF"/>
    <line x1="117.125" x2="121.567" y1="255.839" y2="258.404" stroke="#4D72EF"/>
    <line x1="121.567" x2="117.125" y1="253.274" y2="260.969" stroke="#4D72EF"/>
    <line x1="101.085" x2="107.194" y1="272.367" y2="268.841" stroke="#B1BBC9"/>
    <line x1="108.859" x2="114.968" y1="282.627" y2="279.1" stroke="#B1BBC9"/>
    <line x1="109.415" x2="112.747" y1="267.558" y2="265.635" stroke="#B1BBC9"/>
    <line x1="117.189" x2="120.521" y1="277.818" y2="275.894" stroke="#B1BBC9"/>
    <line x1="127.304" x2="106.941" y1="241.111" y2="252.868" stroke="#FFF" stroke-linecap="round" stroke-linejoin="round"/>
    <line x1="102.271" x2="97.451" y1="255.564" y2="258.347" stroke="#FFF" stroke-linecap="round" stroke-linejoin="round"/>
    <line x1="88.974" x2="68.612" y1="296.111" y2="307.867" stroke="#FFF" stroke-linecap="round" stroke-linejoin="round"/>
    <line x1="81.974" x2="68.174" y1="304.248" y2="312.216" stroke="#FFF" stroke-linecap="round" stroke-linejoin="round"/>
    <path stroke="#E01A33" stroke-linecap="round" stroke-linejoin="round" d="M82.3609,270.888 C81.659,269.883 80.4597,269.346 79.2423,269.493 C78.0248,269.641 76.9878,270.447 76.5457,271.591 C74.3457,277.284 70.9801,285.992 68.5536,292.271 C68.1054,293.431 68.4373,294.747 69.3817,295.555 C70.3261,296.364 71.6778,296.489 72.7544,295.867 C78.035,292.818 84.9479,288.827 88.8973,286.547 C89.7021,286.082 90.2751,285.301 90.4769,284.394 C90.6788,283.487 90.4909,282.537 89.959,281.775 C87.9292,278.867 84.7933,274.373 82.3609,270.888 Z"/>
    <line x1="79.981" x2="79.981" y1="274.568" y2="282.375" stroke="#E01A33" stroke-linecap="round" stroke-linejoin="round" stroke-width="2"/>
    <path fill="#E01A33" d="M80.262,284.883 C79.5458,285.297 78.9643,286.304 78.9643,287.131 C78.9643,287.958 79.5458,288.294 80.262,287.88 C80.9783,287.467 81.5598,286.459 81.5598,285.632 C81.5598,284.805 80.9783,284.469 80.262,284.883 Z"/>
    <path fill="#FFF" d="M171.052,285.848 C175.341,285.848 178.823,289.33 178.823,293.618 C178.823,297.907 175.341,301.389 171.052,301.389 C166.763,301.389 163.281,297.907 163.281,293.618 C163.281,289.33 166.763,285.848 171.052,285.848 Z"/>
    <g transform="translate(163 285.776)">
      <mask id="digital-brain-dark@1x-b" fill="#fff">
        <use xlink:href="#digital-brain-dark@1x-a"/>
      </mask>
      <path fill="#EFF4F7" d="M13.587,2.148 C14.94,3.576 15.777,5.55 15.777,7.728 C15.777,12.08 12.437,15.613 8.323,15.613 C7.462,15.613 6.636,15.459 5.866,15.174 C10.446,14.196 13.899,9.911 13.899,4.779 C13.899,3.871 13.791,2.99 13.587,2.148 Z" mask="url(#digital-brain-dark@1x-b)"/>
    </g>
    <path stroke="#01050C" stroke-linecap="round" stroke-linejoin="round" d="M171.052,285.848 C175.341,285.848 178.823,289.33 178.823,293.618 C178.823,297.907 175.341,301.389 171.052,301.389 C166.763,301.389 163.281,297.907 163.281,293.618 C163.281,289.33 166.763,285.848 171.052,285.848 Z"/>
    <path fill="#4D72EF" d="M146.8923,306.689 C149.9687,305.61 153.0761,304.314 156.2314,302.735 L167.406,313.811 L158.1513,318.394 L146.8923,306.689 Z"/>
    <path stroke="#01050C" stroke-linecap="round" stroke-linejoin="round" d="M146.8923,306.689 C149.9687,305.61 153.0761,304.314 156.2314,302.735 L167.406,313.811 L158.1513,318.394 L146.8923,306.689 Z"/>
    <path stroke="#FFF" stroke-linecap="round" stroke-linejoin="round" d="M152.0357 308.609C153.5464 308.246 155.3236 307.359 156.6353 306.469M153.5752 310.502C153.9995 310.392 154.4352 310.269 155.0669 309.903M156.6353 309.2C157.2852 308.941 157.7728 308.55 158.2822 308.178M155.1818 312.558C156.5058 312.193 159.088 310.616 159.7358 310.011"/>
    <path fill="#FFF" d="M155.1417,312.845 L160.0965,318.612 C160.1972,318.729 160.3492,318.789 160.5028,318.772 C160.6564,318.756 160.7919,318.664 160.8649,318.528 C161.795,316.795 164.514,311.725 166.155,308.665 C166.986,307.117 168.421,305.984 170.119,305.535 C170.479,305.44 171.063,305.285 171.792,305.093 C174.655,304.336 177.707,304.999 179.998,306.876 C182.289,308.753 183.539,311.616 183.36,314.572 C182.891,322.304 182.382,330.692 182.382,330.692 L181.336,353.661 L182.4,371.782 C182.418,371.936 182.427,372.093 182.427,372.252 C182.427,374.449 180.644,376.232 178.447,376.232 C176.379,376.232 174.676,374.65 174.485,372.631 L174.467,372.632 L172.947,354.113 L173.666,338.6 C173.666,338.6 170.867,354.898 170.867,354.898 L169.308,372.749 L169.297,372.748 C169.145,374.807 167.425,376.433 165.328,376.433 C163.131,376.433 161.348,374.65 161.348,372.453 C161.348,372.31 161.355,372.168 161.37,372.028 L162.36,353.374 L164.949,332.13 L165.928,321.533 C165.928,321.533 164.667,323.026 163.439,324.479 C162.856,325.17 162.005,325.578 161.101,325.601 C160.1978,325.624 159.3274,325.26 158.7096,324.6 L150.9895,316.354 C150.9146,316.283 150.8437,316.207 150.7774,316.128 L150.7737,316.124 C150.3786,315.65 150.1409,315.04 150.1409,314.375 C150.1409,312.866 151.3663,311.64 152.8756,311.64 C153.8181,311.64 154.6499,312.118 155.1417,312.845 Z"/>
    <g transform="translate(150 304.776)">
      <mask id="digital-brain-dark@1x-d" fill="#fff">
        <use xlink:href="#digital-brain-dark@1x-c"/>
      </mask>
      <path fill="#EFF4F7" d="M22.822 33.858C22.822 33.858 21.224 40.719 20.994 41.71 20.975 41.789 20.958 41.868 20.942 41.947 20.688 43.189 18.53 53.735 18.279 54.964 18.263 55.042 18.248 55.12 18.235 55.198 18.035 56.361 16.419 65.767 16.419 65.767 16.419 65.767 16.419 65.768 16.418 65.77 16.222 66.761 15.529 67.581 14.586 67.942 13.642 68.303 12.579 68.153 11.772 67.546 11.668 67.468 11.609 67.424 11.609 67.424L10.9849 71.441 22.59 71.958 23.616 60.305C22.803 48.361 25.023 36.531 22.822 33.858zM28.286 30.324L28.158 39.347C28.158 39.347 28.264 52.878 28.274 54.165 28.275 54.23 28.276 54.296 28.278 54.361 28.317 55.501 28.681 66.208 28.681 66.208 28.681 66.208 28.683 66.427 28.688 66.776 28.7 67.725 28.206 68.609 27.391 69.095 26.576 69.582 25.564 69.598 24.734 69.137 24.732 69.136 24.731 69.136 24.731 69.136L24.942 73.609 35.33 71.407 34.022 58.614C32.737 53.173 35.33-7.03 35.33-7.03L27.201-.584C27.201-.584 27.922.155 28.722.976 30.067 2.354 30.738 4.254 30.558 6.172 29.892 13.253 28.286 30.324 28.286 30.324z" mask="url(#digital-brain-dark@1x-d)"/>
    </g>
    <path stroke="#01050C" stroke-linecap="round" stroke-linejoin="round" d="M155.1417,312.845 L160.0965,318.612 C160.1972,318.729 160.3492,318.789 160.5028,318.772 C160.6564,318.756 160.7919,318.664 160.8649,318.528 C161.795,316.795 164.514,311.725 166.155,308.665 C166.986,307.117 168.421,305.984 170.119,305.535 C170.479,305.44 171.063,305.285 171.792,305.093 C174.655,304.336 177.707,304.999 179.998,306.876 C182.289,308.753 183.539,311.616 183.36,314.572 C182.891,322.304 182.382,330.692 182.382,330.692 L181.336,353.661 L182.4,371.782 C182.418,371.936 182.427,372.093 182.427,372.252 C182.427,374.449 180.644,376.232 178.447,376.232 C176.379,376.232 174.676,374.65 174.485,372.631 L174.467,372.632 L172.947,354.113 L173.666,338.6 C173.666,338.6 170.867,354.898 170.867,354.898 L169.308,372.749 L169.297,372.748 C169.145,374.807 167.425,376.433 165.328,376.433 C163.131,376.433 161.348,374.65 161.348,372.453 C161.348,372.31 161.355,372.168 161.37,372.028 L162.36,353.374 L164.949,332.13 L165.928,321.533 C165.928,321.533 164.667,323.026 163.439,324.479 C162.856,325.17 162.005,325.578 161.101,325.601 C160.1978,325.624 159.3274,325.26 158.7096,324.6 L150.9895,316.354 C150.9146,316.283 150.8437,316.207 150.7774,316.128 L150.7737,316.124 C150.3786,315.65 150.1409,315.04 150.1409,314.375 C150.1409,312.866 151.3663,311.64 152.8756,311.64 C153.8181,311.64 154.6499,312.118 155.1417,312.845 Z"/>
    <line x1="174.911" x2="173.666" y1="337.162" y2="338.6" stroke="#01050C" stroke-linecap="round" stroke-linejoin="round"/>
    <polyline stroke="#01050C" stroke-linecap="round" stroke-linejoin="round" points="165.57 322.104 168.614 317.354 170.374 315.525"/>
    <polygon fill="#112443" fill-opacity=".3" points="357.906 378.727 366.016 383.409 338.272 399.427 330.163 394.745"/>
    <polygon stroke="#01050C" stroke-linecap="round" stroke-linejoin="round" stroke-opacity=".3" points="357.906 378.727 366.016 383.409 338.272 399.427 330.163 394.745"/>
    <polygon fill="#112443" fill-opacity=".6" points="338.163 374.072 346.272 378.754 324.807 391.147 316.698 386.465"/>
    <polygon stroke="#01050C" stroke-linecap="round" stroke-linejoin="round" stroke-opacity=".6" points="338.163 374.072 346.272 378.754 324.807 391.147 316.698 386.465"/>
    <polygon fill="#112443" points="314.578 371.635 322.687 376.317 311.243 382.924 303.134 378.242"/>
    <polygon stroke="#01050C" stroke-linecap="round" stroke-linejoin="round" points="314.578 371.635 322.687 376.317 311.243 382.924 303.134 378.242"/>
    <path fill="#FFF" d="M133.6039,360.092 C133.6039,360.092 137.0359,350.888 138.6862,346.463 C139.2594,344.926 139.4426,343.271 139.2194,341.647 C138.8219,338.717 138.1669,333.963 137.7848,331.67 C137.2676,328.565 134.8757,326.11 131.7863,325.511 C125.585,324.309 115.9795,322.448 115.9795,322.448 C115.9795,322.448 110.5134,319.292 108.1449,317.925 C107.4326,317.514 106.7768,317.011 106.1941,316.431 C104.0657,314.31 98.8036,309.067 98.8036,309.067 C98.6845,308.921 98.551,308.788 98.4052,308.67 L98.306,308.571 L98.2949,308.584 C97.8319,308.244 97.2603,308.043 96.6421,308.043 C95.0996,308.043 93.8474,309.295 93.8474,310.837 C93.8474,311.648 94.1932,312.378 94.7453,312.889 L94.7333,312.903 C94.7333,312.903 100.2813,319.354 102.7405,322.213 C103.5032,323.1 104.3896,323.872 105.3724,324.506 C107.385,325.805 110.9709,328.119 113.0638,329.469 C114.0965,330.136 114.7491,331.255 114.8204,332.482 C115.0863,337.056 115.7411,348.323 115.9286,351.549 C115.9625,352.133 115.9531,352.718 115.9004,353.3 C115.5399,357.281 114.0707,373.509 114.0707,373.509 L113.3149,393.8564 C113.3127,393.8982 113.3111,393.9401 113.3102,393.9821 L113.3102,393.9862 C113.3095,394.0151 113.3092,394.0441 113.3092,394.0733 C113.3092,396.318 115.1316,398.1405 117.3763,398.1405 C119.6211,398.1405 121.4435,396.318 121.4435,394.0733 C121.4435,394.025 121.4427,393.9769 121.4409,393.9291 L121.4435,393.9291 L122.3421,374.611 L124.2509,362.489 L125.5235,393.185 L125.5234,393.202 C125.5234,395.4464 127.3459,397.2689 129.5906,397.2689 C131.8353,397.2689 133.6578,395.4464 133.6578,393.202 C133.6578,393.184 133.6577,393.166 133.6574,393.148 L133.6609,393.148 L133.6551,393.055 C133.6526,392.984 133.6482,392.913 133.642,392.842 L132.5223,374.611 L133.6039,360.092 Z"/>
    <g transform="translate(93 307.776)">
      <mask id="digital-brain-dark@1x-f" fill="#fff">
        <use xlink:href="#digital-brain-dark@1x-e"/>
      </mask>
      <path fill="#EFF4F7" d="M24.3547 48.069C24.3547 48.069 22.994 66.709 22.7267 70.371 22.6966 70.784 22.7006 71.198 22.7387 71.61 22.9861 74.288 23.9518 84.74 23.9518 84.74 23.9518 84.74 23.949 84.963 23.9445 85.318 23.9322 86.2884 24.4374 87.1918 25.2705 87.6894 26.1036 88.187 27.1386 88.2035 27.9871 87.7326 27.9874 87.7324 27.9876 87.7323 27.9876 87.7323L27.772 92.3041 17.1566 90.0534 18.4929 76.979C19.8065 71.42 10.3608 15.158 10.3608 15.158 10.3608 15.158 16.6183 18.337 20.7645 20.444 22.9672 21.563 24.3547 23.824 24.3547 26.295 24.3547 33.55 24.3547 48.069 24.3547 48.069zM32.7617 52.109C32.7617 52.109 34.0458 68.767 34.1567 70.205 34.1618 70.271 34.166 70.337 34.1693 70.403 34.2309 71.619 34.8396 83.642 34.8396 83.642 34.8396 83.642 34.8414 83.661 34.8447 83.697 34.9629 84.968 35.7003 86.0975 36.8153 86.7171 37.9303 87.3367 39.2792 87.3661 40.4202 86.7956 40.4208 86.7953 40.4211 86.7951 40.4211 86.7951L39.2548 91.6169 29.9757 90.2043 29.9757 76.292C31.2893 70.732 31.2509 54.713 31.2509 54.713L32.7617 52.109z" mask="url(#digital-brain-dark@1x-f)"/>
    </g>
    <path stroke="#01050C" stroke-linecap="round" stroke-linejoin="round" d="M133.6039,360.092 C133.6039,360.092 137.0359,350.888 138.6862,346.463 C139.2594,344.926 139.4426,343.271 139.2194,341.647 C138.8219,338.717 138.1669,333.963 137.7848,331.67 C137.2676,328.565 134.8757,326.11 131.7863,325.511 C125.585,324.309 115.9795,322.448 115.9795,322.448 C115.9795,322.448 110.5134,319.292 108.1449,317.925 C107.4326,317.514 106.7768,317.011 106.1941,316.431 C104.0657,314.31 98.8036,309.067 98.8036,309.067 C98.6845,308.921 98.551,308.788 98.4052,308.67 L98.306,308.571 L98.2949,308.584 C97.8319,308.244 97.2603,308.043 96.6421,308.043 C95.0996,308.043 93.8474,309.295 93.8474,310.837 C93.8474,311.648 94.1932,312.378 94.7453,312.889 L94.7333,312.903 C94.7333,312.903 100.2813,319.354 102.7405,322.213 C103.5032,323.1 104.3896,323.872 105.3724,324.506 C107.385,325.805 110.9709,328.119 113.0638,329.469 C114.0965,330.136 114.7491,331.255 114.8204,332.482 C115.0863,337.056 115.7411,348.323 115.9286,351.549 C115.9625,352.133 115.9531,352.718 115.9004,353.3 C115.5399,357.281 114.0707,373.509 114.0707,373.509 L113.3149,393.8564 C113.3127,393.8982 113.3111,393.9401 113.3102,393.9821 L113.3102,393.9862 C113.3095,394.0151 113.3092,394.0441 113.3092,394.0733 C113.3092,396.318 115.1316,398.1405 117.3763,398.1405 C119.6211,398.1405 121.4435,396.318 121.4435,394.0733 C121.4435,394.025 121.4427,393.9769 121.4409,393.9291 L121.4435,393.9291 L122.3421,374.611 L124.2509,362.489 L125.5235,393.185 L125.5234,393.202 C125.5234,395.4464 127.3459,397.2689 129.5906,397.2689 C131.8353,397.2689 133.6578,395.4464 133.6578,393.202 C133.6578,393.184 133.6577,393.166 133.6574,393.148 L133.6609,393.148 L133.6551,393.055 C133.6526,392.984 133.6482,392.913 133.642,392.842 L132.5223,374.611 L133.6039,360.092 Z"/>
    <line x1="125.523" x2="124.251" y1="359.55" y2="362.489" stroke="#01050C" stroke-linecap="round" stroke-linejoin="round"/>
    <polyline stroke="#01050C" stroke-linecap="round" stroke-linejoin="round" points="135.077 335.212 134.379 337.093 133.604 360.092"/>
    <path fill="#FFF" d="M128.0689,305.125 C123.6859,305.125 120.1275,308.684 120.1275,313.067 C120.1275,317.45 123.6859,321.008 128.0689,321.008 C132.4519,321.008 136.0103,317.45 136.0103,313.067 C136.0103,308.684 132.4519,305.125 128.0689,305.125 Z"/>
    <g transform="translate(120 304.776)">
      <mask id="digital-brain-dark@1x-h" fill="#fff">
        <use xlink:href="#digital-brain-dark@1x-g"/>
      </mask>
      <path fill="#EFF4F7" d="M2.697,2.097 C1.3151,3.556 0.4597,5.573 0.4597,7.799 C0.4597,12.247 3.8728,15.858 8.0768,15.858 C8.9562,15.858 9.801,15.7 10.5872,15.409 C5.9071,14.409 2.3787,10.03 2.3787,4.785 C2.3787,3.858 2.4892,2.957 2.697,2.097 Z" mask="url(#digital-brain-dark@1x-h)"/>
    </g>
    <path stroke="#01050C" stroke-linecap="round" stroke-linejoin="round" d="M128.0689,305.125 C123.6859,305.125 120.1275,308.684 120.1275,313.067 C120.1275,317.45 123.6859,321.008 128.0689,321.008 C132.4519,321.008 136.0103,317.45 136.0103,313.067 C136.0103,308.684 132.4519,305.125 128.0689,305.125 Z"/>
    <path fill="#3F6C9F" fill-opacity=".3" d="M223.541 433.0721C221.276 431.7643 218.485 431.7643 216.22 433.0721 208.227 437.687 189.165 448.6923 179.611 454.2084 178.443 454.8827 177.723 456.1289 177.723 457.4775 177.723 458.8261 178.443 460.0723 179.611 460.7466 192.283 468.063 222.641 485.5905 233.159 491.6625 235.424 492.9703 238.215 492.9703 240.48 491.6625 248.473 487.0476 267.535 476.0424 277.089 470.5262 278.257 469.8519 278.976 468.6057 278.976 467.2571 278.976 465.9085 278.257 464.6624 277.089 463.9881 264.417 456.6716 234.058 439.1441 223.541 433.0721zM90.7326 351.18C88.4673 349.872 85.6764 349.872 83.4112 351.18 79.9801 353.161 74.7997 356.152 70.8357 358.441 69.6678 359.115 68.9484 360.361 68.9484 361.71 68.9484 363.058 69.6678 364.304 70.8358 364.979 73.3486 366.43 76.2333 368.095 78.4566 369.379 80.7219 370.687 83.5128 370.687 85.778 369.379 89.2091 367.398 94.3895 364.407 98.3534 362.118 99.5214 361.444 100.2408 360.198 100.2408 358.849 100.2408 357.501 99.5214 356.254 98.3534 355.58 95.8406 354.129 92.9559 352.464 90.7326 351.18zM384.69 406.332C382.424 405.0242 379.634 405.0242 377.368 406.332 367.808 411.8514 342.039 426.7293 330.55 433.3625 329.382 434.0368 328.663 435.283 328.663 436.6316 328.663 437.9802 329.382 439.2263 330.55 439.9006 343.896 447.6056 377.028 466.7345 388.089 473.1205 390.354 474.4284 393.145 474.4284 395.41 473.1205 404.97 467.6011 430.739 452.7232 442.228 446.09 443.396 445.4157 444.116 444.1696 444.116 442.821 444.116 441.4723 443.396 440.2262 442.228 439.5519 428.883 431.8469 395.751 412.718 384.69 406.332z"/>
    <path fill="#01050C" fill-opacity=".2" d="M383.69,433.1378 C394.575,431.0918 404.385,433.7276 405.582,439.02 C406.78,444.3124 398.914,450.2702 388.029,452.3162 C377.143,454.3621 367.333,451.7264 366.136,446.434 C364.939,441.1416 372.804,435.1837 383.69,433.1378 Z"/>
    <polyline stroke="#B1BBC9" stroke-linecap="round" stroke-linejoin="round" points="422.918 390.309 466.511 339.935 442.733 311.978 422.918 352.913 466.511 339.935"/>
    <line x1="442.733" x2="457.295" y1="311.978" y2="374.608" stroke="#B1BBC9" stroke-linecap="round" stroke-linejoin="round"/>
    <path fill="#E01A33" d="M442.733 307.831C444.715 306.686 446.324 307.615 446.324 309.904 446.324 312.193 444.715 314.981 442.733 316.125 440.75 317.269 439.141 316.34 439.141 314.051 439.141 311.763 440.75 308.975 442.733 307.831zM422.918 348.766C424.9 347.621 426.509 348.55 426.509 350.839 426.509 353.128 424.9 355.915 422.918 357.06 420.935 358.204 419.326 357.275 419.326 354.986 419.326 352.697 420.935 349.91 422.918 348.766zM466.511 335.788C468.493 334.644 470.102 335.573 470.102 337.862 470.102 340.151 468.493 342.938 466.511 344.082 464.529 345.227 462.919 344.298 462.919 342.009 462.919 339.72 464.529 336.933 466.511 335.788zM422.918 386.162C424.9 385.017 426.509 385.946 426.509 388.235 426.509 390.524 424.9 393.311 422.918 394.4558 420.935 395.6002 419.326 394.6711 419.326 392.382 419.326 390.093 420.935 387.306 422.918 386.162zM457.295 370.461C459.277 369.317 460.886 370.246 460.886 372.535 460.886 374.824 459.277 377.611 457.295 378.755 455.312 379.9 453.703 378.971 453.703 376.682 453.703 374.393 455.312 371.606 457.295 370.461z"/>
    <line x1="458.904" x2="479.003" y1="311.716" y2="300.112" stroke="#B1BBC9" stroke-linecap="round" stroke-linejoin="round"/>
    <line x1="458.904" x2="474.244" y1="318.229" y2="309.372" stroke="#B1BBC9" stroke-linecap="round" stroke-linejoin="round"/>
    <line x1="472.907" x2="482.353" y1="348.23" y2="343.08" stroke="#B1BBC9" stroke-linecap="round" stroke-linejoin="round"/>
    <line x1="411.029" x2="418.285" y1="330.282" y2="326.093" stroke="#B1BBC9" stroke-linecap="round" stroke-linejoin="round"/>
    <line x1="416.635" x2="427.132" y1="333.519" y2="327.458" stroke="#B1BBC9" stroke-linecap="round" stroke-linejoin="round"/>
    <line x1="422.642" x2="428.973" y1="323.577" y2="319.922" stroke="#B1BBC9" stroke-linecap="round" stroke-linejoin="round"/>
    <line x1="422.642" x2="428.973" y1="323.577" y2="319.922" stroke="#B1BBC9" stroke-linecap="round" stroke-linejoin="round"/>
    <line x1="439.992" x2="446.324" y1="382.368" y2="378.712" stroke="#B1BBC9" stroke-linecap="round" stroke-linejoin="round"/>
    <line x1="418.285" x2="424.616" y1="369.835" y2="366.179" stroke="#B1BBC9" stroke-linecap="round" stroke-linejoin="round"/>
    <path fill="#01050C" fill-opacity=".2" d="M228.16,458.1767 C219.236,455.3958 210.957,456.4311 209.684,460.4872 C208.41,464.5434 214.621,470.0942 223.545,472.8751 C232.469,475.656 240.747,474.6207 242.021,470.5646 C243.294,466.5085 237.084,460.9577 228.16,458.1767 Z"/>
    <path fill="#E01A33" d="M226.045,367.25 C226.316,366.633 226.934,366.243 227.607,366.265 C229.633,366.364 231.04,367.347 232.097,368.989 L226.156,382.74 L220.349,380.219 C220.349,380.219 224.715,370.28 226.045,367.25 Z"/>
    <path stroke="#01050C" stroke-linecap="round" stroke-linejoin="round" d="M226.045,367.25 C226.316,366.633 226.934,366.243 227.607,366.265 C229.633,366.364 231.04,367.347 232.097,368.989 L226.156,382.74 L220.349,380.219 C220.349,380.219 224.715,370.28 226.045,367.25 Z"/>
    <path fill="#E01A33" d="M223.211,373.718 C223.481,373.101 224.1,372.711 224.773,372.732 C226.798,372.832 228.205,373.815 229.262,375.456 L223.321,389.207 L217.515,386.687 C217.515,386.687 221.88,376.748 223.211,373.718 Z"/>
    <path stroke="#01050C" stroke-linecap="round" stroke-linejoin="round" d="M223.211,373.718 C223.481,373.101 224.1,372.711 224.773,372.732 C226.798,372.832 228.205,373.815 229.262,375.456 L223.321,389.207 L217.515,386.687 C217.515,386.687 221.88,376.748 223.211,373.718 Z"/>
    <path fill="#E01A33" d="M230.317,368.471 C230.496,368.058 230.876,367.767 231.321,367.702 C233.503,367.382 235.078,368.074 236.069,369.747 C236.281,370.104 236.308,370.54 236.143,370.92 C235.014,373.547 230.197,384.643 230.197,384.643 L224.391,382.123 C224.391,382.123 229.128,371.211 230.317,368.471 Z"/>
    <path stroke="#01050C" stroke-linecap="round" stroke-linejoin="round" d="M230.317,368.471 C230.496,368.058 230.876,367.767 231.321,367.702 C233.503,367.382 235.078,368.074 236.069,369.747 C236.281,370.104 236.308,370.54 236.143,370.92 C235.014,373.547 230.197,384.643 230.197,384.643 L224.391,382.123 C224.391,382.123 229.128,371.211 230.317,368.471 Z"/>
    <path fill="#E01A33" d="M227.482,374.939 C227.661,374.526 228.041,374.235 228.486,374.17 C230.668,373.85 232.243,374.542 233.234,376.215 C233.446,376.571 233.474,377.008 233.308,377.388 C232.179,380.015 227.362,391.111 227.362,391.111 L221.556,388.59 C221.556,388.59 226.293,377.678 227.482,374.939 Z"/>
    <path stroke="#01050C" stroke-linecap="round" stroke-linejoin="round" d="M227.482,374.939 C227.661,374.526 228.041,374.235 228.486,374.17 C230.668,373.85 232.243,374.542 233.234,376.215 C233.446,376.571 233.474,377.008 233.308,377.388 C232.179,380.015 227.362,391.111 227.362,391.111 L221.556,388.59 C221.556,388.59 226.293,377.678 227.482,374.939 Z"/>
    <path fill="#FFF" d="M236.392,373.636 C235.881,372.949 235.063,372.503 234.141,372.503 C232.594,372.503 231.338,373.759 231.338,375.306 C231.338,376.209 231.767,377.014 232.431,377.526 L238.217,384.452 C238.729,385.065 238.79,385.937 238.369,386.616 C237.217,388.474 235.059,391.955 235.059,391.955 L226.504,394.0037 L228.019,386.05 L226.504,378.909 L223.634,379.903 L221.653,386.16 C221.653,386.16 220.435,390.365 219.68,392.97 C219.297,394.2926 219.253,395.6904 219.554,397.0342 C220.507,401.2976 222.695,411.0881 223.663,415.4176 C223.978,416.8263 224.072,418.2753 223.943,419.7129 C223.356,426.2154 221.653,445.0981 221.653,445.0981 L218.424,461.2611 C218.391,461.3895 218.365,461.5202 218.345,461.653 L218.345,461.6533 C218.316,461.8508 218.301,462.0529 218.301,462.2586 C218.301,464.5099 220.128,466.3376 222.38,466.3376 C224.44,466.3376 226.146,464.8065 226.42,462.8209 L229.965,446.1625 L230.586,435.7842 L231.879,447.2677 L230.242,466.389 C230.239,466.4194 230.236,466.45 230.234,466.4806 L230.234,466.4811 C230.227,466.582 230.223,466.6839 230.223,466.7867 C230.223,469.038 232.051,470.8658 234.302,470.8658 C236.465,470.8658 238.237,469.1786 238.373,467.0497 L240.174,446.1625 C240.174,446.1625 240.653,428.762 240.734,425.8431 C240.741,425.5679 240.732,425.2926 240.705,425.0186 C240.441,422.2923 238.939,406.7955 238.49,402.16 C238.407,401.3059 238.578,400.4463 238.982,399.6889 C240.374,397.0753 243.77,390.7 245.547,387.364 C246.224,386.092 246.04,384.534 245.085,383.456 C242.2,380.197 236.392,373.636 236.392,373.636 Z"/>
    <path stroke="#01050C" stroke-linecap="round" stroke-linejoin="round" d="M236.392,373.636 C235.881,372.949 235.063,372.503 234.141,372.503 C232.594,372.503 231.338,373.759 231.338,375.306 C231.338,376.209 231.767,377.014 232.431,377.526 L238.217,384.452 C238.729,385.065 238.79,385.937 238.369,386.616 C237.217,388.474 235.059,391.955 235.059,391.955 L226.504,394.0037 L228.019,386.05 L226.504,378.909 L223.634,379.903 L221.653,386.16 C221.653,386.16 220.435,390.365 219.68,392.97 C219.297,394.2926 219.253,395.6904 219.554,397.0342 C220.507,401.2976 222.695,411.0881 223.663,415.4176 C223.978,416.8263 224.072,418.2753 223.943,419.7129 C223.356,426.2154 221.653,445.0981 221.653,445.0981 L218.424,461.2611 C218.391,461.3895 218.365,461.5202 218.345,461.653 L218.345,461.6533 C218.316,461.8508 218.301,462.0529 218.301,462.2586 C218.301,464.5099 220.128,466.3376 222.38,466.3376 C224.44,466.3376 226.146,464.8065 226.42,462.8209 L229.965,446.1625 L230.586,435.7842 L231.879,447.2677 L230.242,466.389 C230.239,466.4194 230.236,466.45 230.234,466.4806 L230.234,466.4811 C230.227,466.582 230.223,466.6839 230.223,466.7867 C230.223,469.038 232.051,470.8658 234.302,470.8658 C236.465,470.8658 238.237,469.1786 238.373,467.0497 L240.174,446.1625 C240.174,446.1625 240.653,428.762 240.734,425.8431 C240.741,425.5679 240.732,425.2926 240.705,425.0186 C240.441,422.2923 238.939,406.7955 238.49,402.16 C238.407,401.3059 238.578,400.4463 238.982,399.6889 C240.374,397.0753 243.77,390.7 245.547,387.364 C246.224,386.092 246.04,384.534 245.085,383.456 C242.2,380.197 236.392,373.636 236.392,373.636 Z"/>
    <line x1="229.623" x2="230.586" y1="430.196" y2="435.784" stroke="#01050C" stroke-linecap="round" stroke-linejoin="round"/>
    <line x1="224.501" x2="226.504" y1="394.363" y2="394.004" stroke="#01050C" stroke-linecap="round" stroke-linejoin="round"/>
    <path fill="#FFF" d="M224.154,375.3 C228.55,375.3 232.119,378.868 232.119,383.264 C232.119,387.66 228.55,391.229 224.154,391.229 C219.759,391.229 216.19,387.66 216.19,383.264 C216.19,378.868 219.759,375.3 224.154,375.3 Z"/>
    <path stroke="#01050C" stroke-linecap="round" stroke-linejoin="round" d="M224.154,375.3 C228.55,375.3 232.119,378.868 232.119,383.264 C232.119,387.66 228.55,391.229 224.154,391.229 C219.759,391.229 216.19,387.66 216.19,383.264 C216.19,378.868 219.759,375.3 224.154,375.3 Z"/>
    <path fill="#05122C" d="M226.5,382.127 C225.619,382.525 225.241,383.595 225.657,384.516 C226.073,385.437 227.126,385.862 228.006,385.465 C228.887,385.067 229.265,383.997 228.849,383.076 C228.434,382.155 227.381,381.73 226.5,382.127 Z"/>
    <path stroke="#05122C" stroke-linecap="round" stroke-linejoin="round" d="M233.902,387.549 C233.902,387.549 233.326,387.805 232.724,388.073 C231.916,388.432 230.969,388.243 230.361,387.601 C229.274,386.453 227.704,384.794 227.704,384.794"/>
    <g stroke="#3F6C9F" stroke-linejoin="round" stroke-width="2" opacity=".2" transform="translate(191.703 56.769)">
      <path d="M141.191,134.55234 C141.191,134.55234 136.256,131.70234 130.938,128.63234 C127.501,126.64834 124.205,126.32134 121.776,127.72434 C119.346,129.12734 117.98,132.14434 117.98,136.11234 C117.98,136.11334 117.98,136.11434 117.98,136.11434 C117.98,140.08234 119.346,144.67634 121.776,148.88534 C124.205,153.09434 127.501,156.57334 130.938,158.55734 C152.816,171.18834 194.722,195.38334 194.722,195.38334 C196.179,196.47934 197.671,197.08534 199.189,197.96234 C215.517,207.38934 228.772,199.67534 228.772,180.82234 C228.772,161.96934 215.517,139.00934 199.189,129.58334 C196.633,128.10734 194.151,127.04934 191.783,126.38834 C192.525,123.82734 192.922,120.89934 192.922,117.63534 C192.922,98.7823398 179.666,75.8233398 163.339,66.3963398 C160.634,64.8343398 158.013,63.7413398 155.521,63.0903398 C152.857,45.8483398 140.864,27.0593398 126.489,18.7603398 C114.28,11.7113398 103.788,14.2133398 99.272,23.8073398 C94.063,15.5093398 87.229,8.35333975 79.751,4.03533975 C67.36,-3.11866025 56.739,-0.435660246 52.337,9.51533975 L52.235,9.45633975 C37.66,1.04133975 25.827,7.87333975 25.827,24.7033398 C25.827,29.0303398 26.609,33.5993398 28.019,38.1453398 C27.486,37.8003398 26.949,37.4713398 26.408,37.1593398 C11.833,28.7443398 -4.97379915e-13,35.5763398 -4.97379915e-13,52.4063398 C-4.97379915e-13,69.2363398 11.833,89.7923398 26.408,98.2073398 C27.844,99.0363398 29.253,100.10434 30.627,100.64234 C30.627,100.64234 73.241,125.24634 92.86,136.57334 C98.205,139.65834 102.537,137.15734 102.537,130.98634 C102.537,124.64234 102.537,117.95634 102.537,117.95634"/>
      <path d="M203.116,163.81034 C203.116,163.81034 200.872,166.44534 198.446,169.29334 C194.725,173.66234 188.416,173.94234 181.655,170.03934 C166.782,161.45234 141.856,147.06134 141.856,147.06134"/>
      <path d="M203.116 163.81034C203.116 163.81034 200.872 166.44534 198.446 169.29334 194.725 173.66234 188.416 173.94234 181.655 170.03934 166.782 161.45234 141.856 147.06134 141.856 147.06134M23.522 65.6433398C23.522 65.6433398 23.634 65.9973398 23.826 66.6053398 27.061 76.8413398 34.256 86.3843398 42.192 90.9663398 44.046 92.0363398 45.338 92.7823398 45.338 92.7823398M169.964 97.8853398C169.964 97.8853398 164.89 103.84134 160.746 108.70734 157.449 112.57734 151.86 112.82634 145.871 109.36834 142.062 107.16934 137.618 104.60334 133.511 102.23234 126.189 98.0043398 120.253 101.43134 120.253 109.88634 120.253 110.01134 120.253 110.07734 120.253 110.07734M70.993 21.2913398C70.993 21.2913398 73.253 24.1023398 75.823 27.2993398 80.335 32.9123398 83.075 40.0973398 82.974 46.0553398 82.844 53.7843398 82.682 63.3393398 82.682 63.3393398M130.315 46.9213398C130.315 46.9213398 130.264 47.0903398 130.174 47.3853398 128.334 53.4333398 122.614 54.9523398 116.188 51.0993398 113.507 49.4923398 110.629 47.7663398 107.928 46.1463398 104.948 44.3593398 102.07 44.0183398 99.942 45.2003398 97.814 46.3813398 96.615 48.9863398 96.615 52.4283398L96.615 55.8553398M41.784 29.2913398C41.784 29.2913398 42.624 32.0333398 43.505 34.9103398 44.751 38.9753398 47.374 42.8853398 50.481 45.3073398 52.451 46.8433398 54.791 48.6673398 57.088 50.4573398 62.956 55.0313398 67.237 63.3863398 67.237 70.2643398 67.237 72.7243398 67.237 74.5833398 67.237 74.5833398M67.237 91.7343398C67.237 91.7343398 68.618 92.5313398 70.566 93.6563398 73.878 95.5683398 77.05 95.8613398 79.369 94.4703398 81.688 93.0793398 82.958 90.1213398 82.894 86.2613398 82.786 79.7143398 82.682 73.4483398 82.682 73.4483398M68.191 14.9903398C66.636 14.0923398 65.374 14.8213398 65.374 16.6173398 65.374 18.4123398 66.636 20.5993398 68.191 21.4973398 69.746 22.3943398 71.009 21.6663398 71.009 19.8703398 71.009 18.0743398 69.746 15.8883398 68.191 14.9903398zM40.643 22.2203398C39.088 21.3223398 37.825 22.0513398 37.825 23.8463398 37.825 25.6423398 39.088 27.8293398 40.643 28.7263398 42.198 29.6243398 43.46 28.8953398 43.46 27.1003398 43.46 25.3043398 42.198 23.1173398 40.643 22.2203398z"/>
      <path d="M130.801 41.0173398C129.246 40.1193398 127.984 40.8483398 127.984 42.6433398 127.984 44.4393398 129.246 46.6253398 130.801 47.5233398 132.356 48.4213398 133.619 47.6923398 133.619 45.8973398 133.619 44.1013398 132.356 41.9143398 130.801 41.0173398zM52.684 8.99633975C52.056 11.2573398 51.709 13.9343398 51.709 16.9503398 51.709 29.2223398 57.447 42.4973398 64.513 46.5773398M204.682 158.85934C203.127 157.96134 201.864 158.69034 201.864 160.48634 201.864 162.28134 203.127 164.46834 204.682 165.36634 206.237 166.26434 207.499 165.53534 207.499 163.73934 207.499 161.94434 206.237 159.75734 204.682 158.85934zM171.498 93.4313398C169.943 92.5343398 168.681 93.2623398 168.681 95.0583398 168.681 96.8543398 169.943 99.0403398 171.498 99.9383398 173.053 100.83634 174.316 100.10734 174.316 98.3113398 174.316 96.5163398 173.053 94.3293398 171.498 93.4313398zM22.486 58.7293398C20.931 57.8313398 19.668 58.5603398 19.668 60.3563398 19.668 62.1513398 20.931 64.3383398 22.486 65.2363398 24.041 66.1343398 25.303 65.4053398 25.303 63.6093398 25.303 61.8143398 24.041 59.6273398 22.486 58.7293398zM199.262 129.85234C182.975 120.44934 169.751 128.08334 169.751 146.89034 169.751 146.89034 169.751 146.89134 169.751 146.89134 169.751 148.02334 169.362 148.88334 168.67 149.28334 167.977 149.68334 167.037 149.59034 166.058 149.02434 162.245 146.82334 157.028 143.81034 157.028 143.81034M27.604 37.8083398C43.892 47.2113398 57.115 70.1153398 57.115 88.9223398 57.115 89.2763398 57.094 89.9213398 57.06 90.7123398 57.013 92.6553398 57.658 94.9363398 58.848 97.0363398 60.038 99.1353398 61.672 100.87634 63.379 101.86134 69.753 105.54534 78.332 110.49834 78.332 110.49834M136.285 80.6713398C147.005 86.8603398 155.708 80.3633398 155.708 66.1713398 155.708 65.0813398 155.657 63.9763398 155.557 62.8643398M136.285 80.6713398C136.285 80.6713398 120.083 71.3173398 117.139 69.6173398 116.835 69.4423398 116.531 69.2593398 116.227 69.0703398 115.648 68.7083398 114.562 68.0323398 113.246 67.2113398 110.446 65.4643398 107.721 65.0853398 105.7 66.1603398 103.679 67.2353398 102.537 69.6723398 102.537 72.9083398L102.537 102.28234"/>
    </g>
    <path stroke="#E01A33" stroke-linejoin="round" stroke-width="2" d="M325.324,198.774 C325.324,198.774 320.389,195.925 315.07,192.854 C311.634,190.87 308.338,190.544 305.908,191.947 C303.478,193.35 302.113,196.367 302.113,200.335 C302.113,200.336 302.113,200.336 302.113,200.337 C302.113,204.305 303.478,208.899 305.908,213.107 C308.338,217.316 311.634,220.795 315.07,222.779 C336.948,235.411 378.855,259.605 378.855,259.605 C380.312,260.702 381.804,261.308 383.322,262.185 C399.649,271.611 412.905,263.898 412.905,245.045 C412.905,226.191 399.649,203.232 383.322,193.805 C380.765,192.329 378.284,191.272 375.916,190.611 C376.657,188.049 377.055,185.121 377.055,181.858 C377.055,163.005 363.799,140.045 347.472,130.619 C344.766,129.057 342.145,127.964 339.653,127.313 C336.99,110.07 324.996,91.282 310.622,82.983 C298.412,75.933 287.92,78.435 283.405,88.03 C278.195,79.731 271.362,72.575 263.884,68.258 C251.493,61.104 240.871,63.787 236.469,73.738 L236.368,73.679 C221.793,65.264 209.959,72.096 209.959,88.926 C209.959,93.253 210.741,97.822 212.152,102.367 C211.619,102.022 211.082,101.693 210.541,101.381 C195.966,92.966 184.132,99.798 184.132,116.628 C184.132,133.458 195.966,154.014 210.541,162.429 C211.977,163.258 213.386,164.327 214.759,164.865 C214.759,164.865 257.374,189.468 276.993,200.795 C282.337,203.881 286.67,201.379 286.67,195.208 C286.67,188.864 286.67,182.178 286.67,182.178"/>
    <path stroke="#E01A33" stroke-linejoin="round" stroke-width="2" d="M387.249 228.033C387.249 228.033 385.005 230.667 382.579 233.515 378.857 237.884 372.548 238.165 365.787 234.261 350.915 225.674 325.988 211.283 325.988 211.283M207.655 129.865C207.655 129.865 207.767 130.219 207.959 130.828 211.194 141.064 218.388 150.606 226.325 155.188 228.179 156.259 229.471 157.005 229.471 157.005M354.096 162.108C354.096 162.108 349.023 168.064 344.878 172.93 341.581 176.8 335.993 177.048 330.003 173.59 326.195 171.391 321.751 168.826 317.643 166.454 310.321 162.227 304.386 165.654 304.386 174.109 304.386 174.233 304.386 174.3 304.386 174.3M255.126 85.513C255.126 85.513 257.385 88.324 259.955 91.521 264.468 97.135 267.207 104.32 267.107 110.277 266.976 118.007 266.815 127.561 266.815 127.561M314.448 111.144C314.448 111.144 314.396 111.313 314.306 111.608 312.466 117.656 306.746 119.175 300.321 115.322 297.64 113.714 294.762 111.989 292.061 110.369 289.08 108.582 286.202 108.24 284.074 109.422 281.946 110.604 280.747 113.209 280.747 116.651L280.747 120.078M225.917 93.513C225.917 93.513 226.757 96.255 227.638 99.132 228.883 103.198 231.506 107.108 234.614 109.53 236.584 111.065 238.924 112.889 241.221 114.68 247.088 119.253 251.369 127.608 251.369 134.487 251.369 136.946 251.369 138.806 251.369 138.806M251.369 155.956C251.369 155.956 252.751 156.754 254.699 157.879 258.01 159.79 261.183 160.084 263.502 158.693 265.82 157.302 267.091 154.343 267.027 150.483 266.919 143.937 266.815 137.67 266.815 137.67"/>
    <path stroke="#E01A33" stroke-linejoin="round" stroke-width="2" d="M388.814 223.082C387.259 222.184 385.997 222.913 385.997 224.708 385.997 226.504 387.259 228.691 388.814 229.588 390.369 230.486 391.632 229.757 391.632 227.962 391.632 226.166 390.369 223.98 388.814 223.082zM355.631 157.654C354.076 156.756 352.813 157.485 352.813 159.28 352.813 161.076 354.076 163.263 355.631 164.16 357.186 165.058 358.448 164.329 358.448 162.534 358.448 160.738 357.186 158.552 355.631 157.654zM252.324 79.213C250.769 78.315 249.506 79.044 249.506 80.839 249.506 82.635 250.769 84.821 252.324 85.719 253.879 86.617 255.141 85.888 255.141 84.093 255.141 82.297 253.879 80.11 252.324 79.213zM224.775 86.442C223.22 85.544 221.958 86.273 221.958 88.069 221.958 89.864 223.22 92.051 224.775 92.949 226.33 93.847 227.593 93.118 227.593 91.322 227.593 89.527 226.33 87.34 224.775 86.442zM206.618 122.952C205.063 122.054 203.801 122.783 203.801 124.578 203.801 126.374 205.063 128.561 206.618 129.458 208.173 130.356 209.436 129.627 209.436 127.832 209.436 126.036 208.173 123.849 206.618 122.952zM314.934 105.239C313.379 104.341 312.116 105.07 312.116 106.866 312.116 108.661 313.379 110.848 314.934 111.746 316.489 112.644 317.751 111.915 317.751 110.119 317.751 108.324 316.489 106.137 314.934 105.239zM383.394 194.075C367.107 184.671 353.884 192.305 353.884 211.112 353.884 211.113 353.884 211.113 353.884 211.114 353.884 212.245 353.495 213.105 352.802 213.505 352.109 213.905 351.17 213.812 350.19 213.246 346.378 211.045 341.16 208.033 341.16 208.033M211.737 102.03C228.024 111.434 241.248 134.337 241.248 153.144 241.248 153.498 241.226 154.144 241.192 154.935 241.145 156.878 241.79 159.158 242.98 161.258 244.17 163.358 245.805 165.098 247.511 166.084 253.886 169.768 262.464 174.721 262.464 174.721M320.418 144.894C331.138 151.083 339.841 144.585 339.841 130.393 339.841 129.303 339.789 128.199 339.689 127.087M320.418 144.894C320.418 144.894 304.216 135.54 301.271 133.84 300.967 133.664 300.664 133.482 300.36 133.292 299.78 132.931 298.695 132.254 297.379 131.433 294.579 129.687 291.854 129.308 289.833 130.383 287.812 131.458 286.67 133.894 286.67 137.13L286.67 166.504M236.816 73.218C236.188 75.48 235.842 78.156 235.842 81.172 235.842 93.444 241.579 106.72 248.646 110.8"/>
    <path stroke="#3F6C9F" stroke-linejoin="round" d="M278.819,316.814 C278.819,316.814 278.819,324.091 278.819,328.843 C278.819,331.326 277.494,333.621 275.343,334.862 C270.985,337.378 263.577,341.655 259.381,344.078 C257.411,345.216 255.009,345.317 252.95,344.35 C248.592,342.302 240.82,338.651 235.4,336.104 C231.636,334.336 227.245,334.522 223.644,336.601 C215.45,341.331 201.392,349.448 201.392,349.448"/>
    <path stroke="#4D72EF" stroke-dasharray="0 6 0 0" stroke-linecap="round" stroke-linejoin="round" stroke-width="2" d="M349.938 253.702C349.938 253.702 340.933 248.503 333.745 244.353 331.942 243.312 329.72 243.312 327.916 244.353 326.113 245.395 325.002 247.319 325.002 249.402L325.002 268.099M238.392 196.282C238.392 196.282 250.373 203.199 258.069 207.642 261.982 209.901 264.392 214.077 264.392 218.595 264.392 230.862 264.392 254.282 264.392 254.282"/>
    <line x1="264.392" x2="264.392" y1="263.293" y2="289.282" stroke="#4D72EF" stroke-dasharray="0 6 0 0" stroke-linecap="round" stroke-linejoin="round" stroke-width="2"/>
    <path stroke="#3F6C9F" stroke-linejoin="round" d="M302.015 326.577L302.015 338.291C302.015 340.046 302.951 341.668 304.471 342.546 318.872 350.86 392.366 393.292 411.943 404.5948 412.932 405.166 413.541 406.2215 413.541 407.3639 413.541 408.5062 412.932 409.5618 411.943 410.1329 408.846 411.9207 405.392 413.9148 405.392 413.9148M289.407 321.622C289.407 321.622 289.407 330.039 289.407 334.117 289.407 335.457 288.693 336.695 287.533 337.364 282.011 340.552 265.649 349.999 256.926 355.035 255.766 355.705 255.051 356.943 255.051 358.282 255.051 359.621 255.766 360.859 256.926 361.529 269.341 368.697 299.096 385.875 313.056 393.9356 314.597 394.8253 315.546 396.4694 315.546 398.2487 315.546 400.028 314.597 401.6722 313.056 402.5619 294.241 413.4249 246.392 441.0503 246.392 441.0503"/>
    <line x1="305.519" x2="305.519" y1="228.057" y2="250.554" stroke="#E01A33" stroke-dasharray="0 6 0 0" stroke-linecap="round" stroke-linejoin="round" stroke-width="2"/>
    <line x1="283.392" x2="283.392" y1="215.282" y2="259.282" stroke="#E01A33" stroke-dasharray="0 6 0 0" stroke-linecap="round" stroke-linejoin="round" stroke-width="2"/>
    <path fill="#5A6D83" d="M290.827,265.956 C293.07,266.817 295.361,268.139 297.604,269.869 L298.419,275.458 C300.409,277.218 302.28,279.339 303.934,281.709 L307.908,281.548 C309.601,284.28 311.029,287.172 312.133,290.105 L309.177,292.325 C310.003,294.98 310.465,297.585 310.539,300.003 L314.678,304.45 C314.546,306.995 314.036,309.279 313.171,311.208 L308.717,313.781 C306.81,312.841 306.414,311.065 304.851,311.71 L306.039,317.416 C304.851,318.459 301.936,320.793 299.752,320.264 L297.276,311.549 C295.254,310.827 293.177,309.628 291.155,308.015 L288.497,310.683 C286.313,308.689 284.249,306.351 282.391,303.763 L283.58,299.429 C282.017,296.979 280.722,294.357 279.763,291.7 L275.26,289.321 C274.395,286.392 273.885,283.52 273.752,280.822 L277.892,281.154 C277.966,278.822 278.428,276.75 279.254,275.05 L276.298,269.415 C276.771,268.704 275.481,268.865 276.069,268.31 C276.852,267.572 279.556,266.181 280.523,265.737 L284.497,270.486 C286.151,270.027 288.022,270.067 290.012,270.603 L286.374,268.529 L290.827,265.956 Z M294.215,283.719 C290.613,281.639 287.689,283.328 287.689,287.487 C287.689,291.647 290.613,296.712 294.215,298.792 C297.818,300.872 300.742,299.183 300.742,295.024 C300.742,290.864 297.818,285.799 294.215,283.719 Z"/>
    <g transform="translate(273 264.776)">
      <mask id="digital-brain-dark@1x-j" fill="#fff">
        <use xlink:href="#digital-brain-dark@1x-i"/>
      </mask>
      <line x1="24.487" x2="20.15" y1="5.252" y2="7.666" stroke="#05122C" stroke-linecap="round" stroke-linejoin="round" mask="url(#digital-brain-dark@1x-j)"/>
      <line x1="34.891" x2="30.554" y1="16.886" y2="19.3" stroke="#05122C" stroke-linecap="round" stroke-linejoin="round" mask="url(#digital-brain-dark@1x-j)"/>
      <line x1="39.228" x2="34.891" y1="25.374" y2="27.788" stroke="#05122C" stroke-linecap="round" stroke-linejoin="round" mask="url(#digital-brain-dark@1x-j)"/>
      <line x1="41.678" x2="37.341" y1="39.657" y2="42.071" stroke="#05122C" stroke-linecap="round" stroke-linejoin="round" mask="url(#digital-brain-dark@1x-j)"/>
    </g>
    <path stroke="#01050C" stroke-linecap="round" stroke-linejoin="round" d="M290.827,265.956 C293.07,266.817 295.361,268.139 297.604,269.869 L298.419,275.458 C300.409,277.218 302.28,279.339 303.934,281.709 L307.908,281.548 C309.601,284.28 311.029,287.172 312.133,290.105 L309.177,292.325 C310.003,294.98 310.465,297.585 310.539,300.003 L314.678,304.45 C314.546,306.995 314.036,309.279 313.171,311.208 L308.717,313.781 C306.81,312.841 306.414,311.065 304.851,311.71 L306.039,317.416 C304.851,318.459 301.936,320.793 299.752,320.264 L297.276,311.549 C295.254,310.827 293.177,309.628 291.155,308.015 L288.497,310.683 C286.313,308.689 284.249,306.351 282.391,303.763 L283.58,299.429 C282.017,296.979 280.722,294.357 279.763,291.7 L275.26,289.321 C274.395,286.392 273.885,283.52 273.752,280.822 L277.892,281.154 C277.966,278.822 278.428,276.75 279.254,275.05 L276.298,269.415 C276.771,268.704 275.481,268.865 276.069,268.31 C276.852,267.572 279.556,266.181 280.523,265.737 L284.497,270.486 C286.151,270.027 288.022,270.067 290.012,270.603 L286.374,268.529 L290.827,265.956 Z M294.215,283.719 C290.613,281.639 287.689,283.328 287.689,287.487 C287.689,291.647 290.613,296.712 294.215,298.792 C297.818,300.872 300.742,299.183 300.742,295.024 C300.742,290.864 297.818,285.799 294.215,283.719 Z"/>
    <path fill="#B1BBC9" d="M286.374,268.529 C288.617,269.39 290.907,270.713 293.15,272.442 L293.966,278.031 C295.955,279.791 297.827,281.912 299.481,284.282 L303.455,284.121 C305.148,286.853 306.576,289.745 307.68,292.678 L304.723,294.899 C305.549,297.553 306.012,300.158 306.085,302.576 L310.225,307.023 C310.093,309.569 309.583,311.852 308.717,313.781 L304.215,310.961 C303.255,312.51 301.96,313.638 300.398,314.284 L301.586,319.99 C299.728,320.432 297.665,320.388 295.481,319.86 L292.823,314.122 C290.801,313.4 288.724,312.201 286.702,310.588 L284.044,313.256 C281.859,311.263 279.796,308.924 277.938,306.336 L279.127,302.002 C277.564,299.553 276.269,296.93 275.31,294.273 L270.807,291.894 C269.941,288.965 269.432,286.093 269.299,283.395 L273.439,283.728 C273.513,281.395 273.975,279.324 274.801,277.623 L271.844,271.988 C272.949,270.33 274.377,269.087 276.069,268.31 L280.043,273.059 C281.698,272.6 283.569,272.64 285.558,273.177 L286.374,268.529 Z M289.762,286.292 C286.16,284.213 283.235,285.901 283.235,290.061 C283.235,294.22 286.16,299.286 289.762,301.365 C293.364,303.445 296.289,301.757 296.289,297.597 C296.289,293.438 293.364,288.372 289.762,286.292 Z"/>
    <path stroke="#05122C" stroke-linecap="round" stroke-linejoin="round" d="M286.374,268.529 C288.617,269.39 290.907,270.713 293.15,272.442 L293.966,278.031 C295.955,279.791 297.827,281.912 299.481,284.282 L303.455,284.121 C305.148,286.853 306.576,289.745 307.68,292.678 L304.723,294.899 C305.549,297.553 306.012,300.158 306.085,302.576 L310.225,307.023 C310.093,309.569 309.583,311.852 308.717,313.781 L304.215,310.961 C303.255,312.51 301.96,313.638 300.398,314.284 L301.586,319.99 C299.728,320.432 297.665,320.388 295.481,319.86 L292.823,314.122 C290.801,313.4 288.724,312.201 286.702,310.588 L284.044,313.256 C281.859,311.263 279.796,308.924 277.938,306.336 L279.127,302.002 C277.564,299.553 276.269,296.93 275.31,294.273 L270.807,291.894 C269.941,288.965 269.432,286.093 269.299,283.395 L273.439,283.728 C273.513,281.395 273.975,279.324 274.801,277.623 L271.844,271.988 C272.949,270.33 274.377,269.087 276.069,268.31 L280.043,273.059 C281.698,272.6 283.569,272.64 285.558,273.177 L286.374,268.529 Z M289.762,286.292 C286.16,284.213 283.235,285.901 283.235,290.061 C283.235,294.22 286.16,299.286 289.762,301.365 C293.364,303.445 296.289,301.757 296.289,297.597 C296.289,293.438 293.364,288.372 289.762,286.292 Z"/>
    <path stroke="#EFF4F7" stroke-linecap="round" stroke-linejoin="round" d="M298.001 307.359C299.897 306.212 301.067 303.821 301.067 300.442 301.067 298.934 300.834 297.354 300.407 295.769M296.543 287.701C294.781 285.231 292.624 283.131 290.296 281.787 284.351 278.355 279.525 281.141 279.525 288.005 279.525 294.87 284.351 303.229 290.296 306.661"/>
    <path fill="#5A6D83" d="M308.597,254.207 C309.837,254.683 311.102,255.414 312.342,256.369 L312.792,259.457 C313.891,260.43 314.925,261.602 315.84,262.911 L318.035,262.823 C318.971,264.332 319.76,265.93 320.37,267.551 L318.736,268.777 C319.193,270.244 319.448,271.683 319.489,273.02 L321.776,275.477 C321.703,276.883 321.421,278.145 320.943,279.211 L318.482,280.633 C317.428,280.113 317.209,279.132 316.346,279.489 L317.003,282.641 C316.346,283.217 314.736,284.507 313.529,284.215 L312.161,279.4 C311.043,279.001 309.896,278.338 308.778,277.447 L307.31,278.921 C306.103,277.819 304.963,276.527 303.936,275.097 L304.593,272.703 C303.729,271.349 303.014,269.9 302.484,268.432 L299.996,267.117 C299.518,265.499 299.236,263.912 299.163,262.421 L301.45,262.605 C301.491,261.316 301.746,260.171 302.203,259.232 L300.569,256.118 C300.831,255.726 300.118,255.814 300.443,255.508 C300.876,255.1 302.369,254.331 302.903,254.086 L305.099,256.71 C306.013,256.456 307.047,256.478 308.147,256.775 L306.137,255.629 L308.597,254.207 Z M310.469,264.022 C308.479,262.873 306.863,263.806 306.863,266.104 C306.863,268.403 308.479,271.201 310.469,272.351 C312.46,273.5 314.076,272.567 314.076,270.269 C314.076,267.97 312.46,265.171 310.469,264.022 Z"/>
    <g transform="translate(299 253.776)">
      <mask id="digital-brain-dark@1x-l" fill="#fff">
        <use xlink:href="#digital-brain-dark@1x-k"/>
      </mask>
      <line x1="13.277" x2="10.881" y1="2.681" y2="4.015" stroke="#05122C" stroke-linecap="round" stroke-linejoin="round" mask="url(#digital-brain-dark@1x-l)"/>
      <line x1="19.026" x2="16.629" y1="9.109" y2="10.443" stroke="#05122C" stroke-linecap="round" stroke-linejoin="round" mask="url(#digital-brain-dark@1x-l)"/>
      <line x1="21.422" x2="19.026" y1="13.799" y2="15.133" stroke="#05122C" stroke-linecap="round" stroke-linejoin="round" mask="url(#digital-brain-dark@1x-l)"/>
      <line x1="22.776" x2="20.38" y1="21.692" y2="23.025" stroke="#05122C" stroke-linecap="round" stroke-linejoin="round" mask="url(#digital-brain-dark@1x-l)"/>
    </g>
    <path stroke="#01050C" stroke-linecap="round" stroke-linejoin="round" d="M308.597,254.207 C309.837,254.683 311.102,255.414 312.342,256.369 L312.792,259.457 C313.891,260.43 314.925,261.602 315.84,262.911 L318.035,262.823 C318.971,264.332 319.76,265.93 320.37,267.551 L318.736,268.777 C319.193,270.244 319.448,271.683 319.489,273.02 L321.776,275.477 C321.703,276.883 321.421,278.145 320.943,279.211 L318.482,280.633 C317.428,280.113 317.209,279.132 316.346,279.489 L317.003,282.641 C316.346,283.217 314.736,284.507 313.529,284.215 L312.161,279.4 C311.043,279.001 309.896,278.338 308.778,277.447 L307.31,278.921 C306.103,277.819 304.963,276.527 303.936,275.097 L304.593,272.703 C303.729,271.349 303.014,269.9 302.484,268.432 L299.996,267.117 C299.518,265.499 299.236,263.912 299.163,262.421 L301.45,262.605 C301.491,261.316 301.746,260.171 302.203,259.232 L300.569,256.118 C300.831,255.726 300.118,255.814 300.443,255.508 C300.876,255.1 302.369,254.331 302.903,254.086 L305.099,256.71 C306.013,256.456 307.047,256.478 308.147,256.775 L306.137,255.629 L308.597,254.207 Z M310.469,264.022 C308.479,262.873 306.863,263.806 306.863,266.104 C306.863,268.403 308.479,271.201 310.469,272.351 C312.46,273.5 314.076,272.567 314.076,270.269 C314.076,267.97 312.46,265.171 310.469,264.022 Z"/>
    <path fill="#B1BBC9" d="M306.137,255.629 C307.376,256.105 308.641,256.835 309.881,257.791 L310.332,260.879 C311.431,261.852 312.465,263.024 313.379,264.333 L315.575,264.244 C316.51,265.754 317.299,267.352 317.909,268.972 L316.276,270.199 C316.732,271.666 316.987,273.105 317.028,274.441 L319.316,276.899 C319.242,278.305 318.961,279.567 318.482,280.633 L315.994,279.074 C315.464,279.931 314.749,280.554 313.886,280.91 L314.542,284.063 C313.516,284.308 312.375,284.283 311.169,283.991 L309.7,280.821 C308.583,280.422 307.435,279.76 306.318,278.869 L304.849,280.343 C303.642,279.241 302.502,277.949 301.476,276.519 L302.132,274.124 C301.269,272.771 300.553,271.322 300.023,269.854 L297.535,268.539 C297.057,266.921 296.775,265.334 296.702,263.843 L298.989,264.027 C299.03,262.738 299.286,261.593 299.742,260.654 L298.108,257.54 C298.719,256.624 299.508,255.937 300.443,255.508 L302.639,258.132 C303.553,257.878 304.587,257.9 305.686,258.197 L306.137,255.629 Z M308.009,265.444 C306.018,264.295 304.402,265.228 304.402,267.526 C304.402,269.824 306.018,272.623 308.009,273.772 C309.999,274.922 311.615,273.989 311.615,271.69 C311.615,269.392 309.999,266.593 308.009,265.444 Z"/>
    <path stroke="#05122C" stroke-linecap="round" stroke-linejoin="round" d="M306.137,255.629 C307.376,256.105 308.641,256.835 309.881,257.791 L310.332,260.879 C311.431,261.852 312.465,263.024 313.379,264.333 L315.575,264.244 C316.51,265.754 317.299,267.352 317.909,268.972 L316.276,270.199 C316.732,271.666 316.987,273.105 317.028,274.441 L319.316,276.899 C319.242,278.305 318.961,279.567 318.482,280.633 L315.994,279.074 C315.464,279.931 314.749,280.554 313.886,280.91 L314.542,284.063 C313.516,284.308 312.375,284.283 311.169,283.991 L309.7,280.821 C308.583,280.422 307.435,279.76 306.318,278.869 L304.849,280.343 C303.642,279.241 302.502,277.949 301.476,276.519 L302.132,274.124 C301.269,272.771 300.553,271.322 300.023,269.854 L297.535,268.539 C297.057,266.921 296.775,265.334 296.702,263.843 L298.989,264.027 C299.03,262.738 299.286,261.593 299.742,260.654 L298.108,257.54 C298.719,256.624 299.508,255.937 300.443,255.508 L302.639,258.132 C303.553,257.878 304.587,257.9 305.686,258.197 L306.137,255.629 Z M308.009,265.444 C306.018,264.295 304.402,265.228 304.402,267.526 C304.402,269.824 306.018,272.623 308.009,273.772 C309.999,274.922 311.615,273.989 311.615,271.69 C311.615,269.392 309.999,266.593 308.009,265.444 Z"/>
    <path stroke="#EFF4F7" stroke-linecap="round" stroke-linejoin="round" d="M312.561 277.084C313.609 276.45 314.255 275.129 314.255 273.263 314.255 272.429 314.126 271.556 313.89 270.68M311.756 266.222C310.782 264.858 309.59 263.697 308.304 262.954 305.019 261.058 302.352 262.598 302.352 266.39 302.352 270.183 305.019 274.802 308.304 276.699"/>
    <polygon fill="#FFF" points="389.893 408.306 379.795 409.256 380.888 420.864 390.986 419.914"/>
    <polygon stroke="#01050C" stroke-linecap="round" stroke-linejoin="round" points="389.893 408.306 379.795 409.256 380.888 420.864 390.986 419.914"/>
    <path fill="#FFF" d="M401.312,389.849 C402.818,389.849 404.04,391.072 404.04,392.577 C404.04,394.0831 402.818,395.3056 401.312,395.3056 C399.806,395.3056 398.584,394.0831 398.584,392.577 C398.584,391.072 399.806,389.849 401.312,389.849 Z"/>
    <path stroke="#01050C" stroke-linecap="round" stroke-linejoin="round" d="M401.312,389.849 C402.818,389.849 404.04,391.072 404.04,392.577 C404.04,394.0831 402.818,395.3056 401.312,395.3056 C399.806,395.3056 398.584,394.0831 398.584,392.577 C398.584,391.072 399.806,389.849 401.312,389.849 Z"/>
    <path fill="#FFF" d="M374.746,422.7579 L374.206,392.64 L380.472,396.6798 L371.726,387.736 L370.842,378.498 C370.842,378.498 371.497,376.96 372.128,375.481 C372.85,373.787 374.334,372.536 376.126,372.111 C378.53,371.54 382.07,370.7 385.195,369.959 C389.119,369.028 393.145,371.044 394.75,374.744 C396.242,378.182 397.779,381.724 397.779,381.724 L401.575,388.987 L397.779,390.071 L393.84,386.222 C393.84,386.222 393.662,383.427 393.496,380.831 C393.488,380.695 393.375,380.59 393.238,380.59 C393.102,380.591 392.99,380.698 392.983,380.834 C392.623,387.49 391.976,399.4277 391.976,399.4277 L393.84,421.9 L394.729,439.9488 L394.729,439.9488 C394.742,440.0789 394.748,440.2107 394.748,440.3441 C394.748,442.5355 392.969,444.3147 390.778,444.3147 C388.586,444.3147 386.807,442.5355 386.807,440.3441 C386.807,440.3015 386.808,440.2591 386.809,440.2168 L385.765,422.9758 L383.902,409.9863 L382.665,443.8623 C382.679,443.9984 382.687,444.1366 382.687,444.2764 C382.687,446.4678 380.908,448.247 378.716,448.247 C376.525,448.247 374.746,446.4678 374.746,444.2764 L374.746,422.7579 Z"/>
    <g transform="translate(370 368.776)">
      <mask id="digital-brain-dark@1x-n" fill="#fff">
        <use xlink:href="#digital-brain-dark@1x-m"/>
      </mask>
      <path fill="#EFF4F7" d="M0.842,67.3216 C0.842,67.3216 5.154,73.1669 6.925,75.5683 C7.398,76.2096 8.131,76.6091 8.926,76.66 C8.927,76.66 8.927,76.6601 8.928,76.6601 C9.49,76.696 10.04,76.4927 10.444,76.1002 C10.848,75.7078 11.066,75.163 11.046,74.6005 C10.85,69.1502 10.357,55.4596 10.357,55.4596 L3.31,55.2789 L12.332,13.516 L16.209,25.4007 L18.792,31.6708 L13.902,41.2103 L16.209,80.7636 L3.31,82.2036 L0.842,67.3216 Z" mask="url(#digital-brain-dark@1x-n)"/>
      <path fill="#EFF4F7" d="M11.653,62.6393 C11.653,62.6393 15.898,68.3948 17.695,70.8298 C18.194,71.5067 18.967,71.9285 19.806,71.9821 C19.807,71.9822 19.808,71.9822 19.808,71.9823 C20.36,72.0175 20.901,71.8231 21.304,71.445 C21.707,71.0669 21.936,70.539 21.936,69.9864 C21.936,65.149 21.936,53.7588 21.936,53.7588 L14.63,53.6975 C10.59,40.689 13.521,25.7081 23.143,8.834 L27.019,20.718 L29.603,26.9885 L24.712,36.528 L27.019,76.0813 L14.121,77.5214 L11.653,62.6393 Z" mask="url(#digital-brain-dark@1x-n)"/>
      <polygon fill="#D1D9E0" points="3.919 26.631 12.288 32.347 23.468 29.131 22.807 22.187 3.919 21.668" mask="url(#digital-brain-dark@1x-n)"/>
    </g>
    <path stroke="#01050C" stroke-linecap="round" stroke-linejoin="round" d="M374.746,422.7579 L374.206,392.64 L380.472,396.6798 L371.726,387.736 L370.842,378.498 C370.842,378.498 371.497,376.96 372.128,375.481 C372.85,373.787 374.334,372.536 376.126,372.111 C378.53,371.54 382.07,370.7 385.195,369.959 C389.119,369.028 393.145,371.044 394.75,374.744 C396.242,378.182 397.779,381.724 397.779,381.724 L401.575,388.987 L397.779,390.071 L393.84,386.222 C393.84,386.222 393.662,383.427 393.496,380.831 C393.488,380.695 393.375,380.59 393.238,380.59 C393.102,380.591 392.99,380.698 392.983,380.834 C392.623,387.49 391.976,399.4277 391.976,399.4277 L393.84,421.9 L394.729,439.9488 L394.729,439.9488 C394.742,440.0789 394.748,440.2107 394.748,440.3441 C394.748,442.5355 392.969,444.3147 390.778,444.3147 C388.586,444.3147 386.807,442.5355 386.807,440.3441 C386.807,440.3015 386.808,440.2591 386.809,440.2168 L385.765,422.9758 L383.902,409.9863 L382.665,443.8623 C382.679,443.9984 382.687,444.1366 382.687,444.2764 C382.687,446.4678 380.908,448.247 378.716,448.247 C376.525,448.247 374.746,446.4678 374.746,444.2764 L374.746,422.7579 Z"/>
    <path fill="#D1D9E0" d="M389.047,391.291 C389.047,391.291 383.804,372.83 387.001,369.652 C390.925,368.721 393.145,371.044 394.75,374.744 C396.242,378.182 397.779,381.724 397.779,381.724 L401.575,388.987 L397.779,390.071 L393.84,386.222 C393.84,386.222 392.4,385.217 392.234,382.621 C392.226,382.485 392.113,382.38 391.976,382.38 C391.84,382.381 391.728,382.488 391.721,382.624 C391.361,389.28 391.976,399.4277 391.976,399.4277 L389.047,391.291 Z"/>
    <g transform="translate(385 368.776)">
      <mask id="digital-brain-dark@1x-p" fill="#fff">
        <use xlink:href="#digital-brain-dark@1x-o"/>
      </mask>
      <path fill="#EFF4F7" d="M-14.158,67.3216 C-14.158,67.3216 -9.846,73.1669 -8.075,75.5683 C-7.602,76.2096 -6.869,76.6091 -6.074,76.66 C-6.073,76.66 -6.073,76.6601 -6.072,76.6601 C-5.51,76.696 -4.96,76.4927 -4.556,76.1002 C-4.152,75.7078 -3.934,75.163 -3.954,74.6005 C-4.15,69.1502 -4.643,55.4596 -4.643,55.4596 L-11.69,55.2789 L-2.668,13.516 L1.209,25.4007 L3.792,31.6708 L-1.098,41.2103 L1.209,80.7636 L-11.69,82.2036 L-14.158,67.3216 Z" mask="url(#digital-brain-dark@1x-p)"/>
      <path fill="#EFF4F7" d="M-3.347,62.6393 C-3.347,62.6393 0.898,68.3948 2.695,70.8298 C3.194,71.5067 3.967,71.9285 4.806,71.9821 C4.807,71.9822 4.808,71.9822 4.808,71.9823 C5.36,72.0175 5.901,71.8231 6.304,71.445 C6.707,71.0669 6.936,70.539 6.936,69.9864 C6.936,65.149 6.936,53.7588 6.936,53.7588 L-0.37,53.6975 C-4.41,40.689 -2.686,28.9664 6.936,12.092 L12.019,20.718 L14.603,26.9885 L9.712,36.528 L12.019,76.0813 L-0.879,77.5214 L-3.347,62.6393 Z" mask="url(#digital-brain-dark@1x-p)"/>
      <polygon fill="#D1D9E0" points="-11.081 26.631 -2.712 32.347 8.468 29.131 7.807 22.187 -11.081 21.668" mask="url(#digital-brain-dark@1x-p)"/>
    </g>
    <path stroke="#01050C" stroke-linecap="round" stroke-linejoin="round" d="M389.047,391.291 C389.047,391.291 383.804,372.83 387.001,369.652 C390.925,368.721 393.145,371.044 394.75,374.744 C396.242,378.182 397.779,381.724 397.779,381.724 L401.575,388.987 L397.779,390.071 L393.84,386.222 C393.84,386.222 392.4,385.217 392.234,382.621 C392.226,382.485 392.113,382.38 391.976,382.38 C391.84,382.381 391.728,382.488 391.721,382.624 C391.361,389.28 391.976,399.4277 391.976,399.4277 L389.047,391.291 Z"/>
    <path fill="#FFF" d="M380.882,351.251 C385.161,351.251 388.634,354.725 388.634,359.004 C388.634,363.283 385.161,366.756 380.882,366.756 C376.603,366.756 373.129,363.283 373.129,359.004 C373.129,354.725 376.603,351.251 380.882,351.251 Z"/>
    <path stroke="#01050C" stroke-linecap="round" stroke-linejoin="round" d="M380.882,351.251 C385.161,351.251 388.634,354.725 388.634,359.004 C388.634,363.283 385.161,366.756 380.882,366.756 C376.603,366.756 373.129,363.283 373.129,359.004 C373.129,354.725 376.603,351.251 380.882,351.251 Z"/>
    <path fill="#D1D9E0" d="M380.116,371.677 C380.116,371.677 378.289,372.069 376.562,372.44 C374.676,372.845 373.111,374.156 372.381,375.942 C371.799,377.368 371.216,378.793 371.216,378.793 C371.216,378.793 369.816,383.327 368.842,386.479 C368.307,388.214 369.043,390.088 370.615,390.994 C374.415,393.183 380.896,396.9188 380.896,396.9188 L384.118,392.605 L375.093,386.521 L379.11,375.932 L380.116,371.677 Z"/>
    <path fill="#D1D9E0" d="M373.807,389.864 L374.54,399.4418 L371.224,420.9564 C373.71,422.3918 377.7,422.4067 381.208,421.5606 C381.208,421.5606 382.942,389.648 383.352,382.098 C383.409,381.052 383.231,380.008 382.832,379.04 C381.759,376.434 379.634,371.278 379.634,371.278"/>
    <g transform="translate(371 370.776)">
      <mask id="digital-brain-dark@1x-r" fill="#fff">
        <use xlink:href="#digital-brain-dark@1x-q"/>
      </mask>
      <polygon fill="#EFF4F7" points="2.919 24.631 11.288 30.347 22.468 27.131 21.807 20.187 2.919 19.668" mask="url(#digital-brain-dark@1x-r)"/>
      <polygon fill="#D1D9E0" points="2.392 31.506 12.392 31.506 12.392 16.506 2.392 16.506" mask="url(#digital-brain-dark@1x-r)"/>
    </g>
    <path stroke="#01050C" stroke-linecap="round" stroke-linejoin="round" d="M373.807,389.864 L374.54,399.4418 L371.224,420.9564 C373.71,422.3918 377.7,422.4067 381.208,421.5606 C381.208,421.5606 382.942,389.648 383.352,382.098 C383.409,381.052 383.231,380.008 382.832,379.04 C381.759,376.434 379.634,371.278 379.634,371.278"/>
    <path fill="#D1D9E0" d="M386.48,369.758 C386.48,369.758 385.716,376.967 385.47,379.285 C385.42,379.756 385.418,380.231 385.464,380.703 C385.985,386.081 389.292,420.2319 389.292,420.2319 C392.585,420.8922 395.214,420.2304 397.677,418.6425 C396.107,412.6187 393.281,396.8761 393.281,396.8761 C393.281,396.8761 392.813,391.035 392.585,388.192"/>
    <g transform="translate(385 368.776)">
      <mask id="digital-brain-dark@1x-t" fill="#fff">
        <use xlink:href="#digital-brain-dark@1x-s"/>
      </mask>
      <polygon fill="#EFF4F7" points="-11.081 26.631 -2.712 32.347 2.284 29.463 1.622 22.518 -11.081 21.668" mask="url(#digital-brain-dark@1x-t)"/>
    </g>
    <path stroke="#01050C" stroke-linecap="round" stroke-linejoin="round" d="M386.48,369.758 C386.48,369.758 385.716,376.967 385.47,379.285 C385.42,379.756 385.418,380.231 385.464,380.703 C385.985,386.081 389.292,420.2319 389.292,420.2319 C392.585,420.8922 395.214,420.2304 397.677,418.6425 C396.107,412.6187 393.281,396.8761 393.281,396.8761 C393.281,396.8761 392.813,391.035 392.585,388.192"/>
    <path fill="#D1D9E0" d="M374.284,386.046 L384.5,392.865 L380.472,396.6798 C380.472,396.6798 373.945,392.911 370.188,390.742 C368.676,389.869 367.967,388.068 368.478,386.398 C369.533,382.953 371.169,377.612 371.169,377.612"/>
    <path stroke="#01050C" stroke-linecap="round" stroke-linejoin="round" d="M374.284,386.046 L384.5,392.865 L380.472,396.6798 C380.472,396.6798 373.945,392.911 370.188,390.742 C368.676,389.869 367.967,388.068 368.478,386.398 C369.533,382.953 371.169,377.612 371.169,377.612"/>
    <polygon fill="#B1BBC9" points="387.895 381.493 406.016 376.5 401.575 391.816 383.454 396.826"/>
    <polygon stroke="#01050C" stroke-linecap="round" stroke-linejoin="round" points="387.895 381.493 406.016 376.5 401.575 391.816 383.454 396.826"/>
    <path fill="#FFF" d="M382.463,391.951 C383.969,391.951 385.191,393.173 385.191,394.6788 C385.191,396.1845 383.969,397.407 382.463,397.407 C380.957,397.407 379.735,396.1845 379.735,394.6788 C379.735,393.173 380.957,391.951 382.463,391.951 Z"/>
    <path stroke="#01050C" stroke-linecap="round" stroke-linejoin="round" d="M382.463,391.951 C383.969,391.951 385.191,393.173 385.191,394.6788 C385.191,396.1845 383.969,397.407 382.463,397.407 C380.957,397.407 379.735,396.1845 379.735,394.6788 C379.735,393.173 380.957,391.951 382.463,391.951 Z"/>
    <line x1="375.901" x2="378.439" y1="402.685" y2="401.219" stroke="#01050C" stroke-linecap="round" stroke-linejoin="round"/>
    <line x1="392.302" x2="389.764" y1="401.53" y2="400.064" stroke="#01050C" stroke-linecap="round" stroke-linejoin="round"/>
    <line x1="376.227" x2="375.331" y1="382.658" y2="385.952" stroke="#01050C" stroke-linecap="round" stroke-linejoin="round"/>
    <path fill="#D1D9E0" d="M381.671,355.602 C382.812,355.602 383.739,356.529 383.739,357.67 C383.739,358.811 382.812,359.737 381.671,359.737 C380.53,359.737 379.604,358.811 379.604,357.67 C379.604,356.529 380.53,355.602 381.671,355.602 Z"/>
    <path stroke="#01050C" stroke-linecap="round" stroke-linejoin="round" d="M381.671,355.602 C382.812,355.602 383.739,356.529 383.739,357.67 C383.739,358.811 382.812,359.737 381.671,359.737 C380.53,359.737 379.604,358.811 379.604,357.67 C379.604,356.529 380.53,355.602 381.671,355.602 Z"/>
    <path fill="#D1D9E0" d="M387.311,354.083 C388.452,354.083 389.378,355.01 389.378,356.151 C389.378,357.292 388.452,358.218 387.311,358.218 C386.17,358.218 385.243,357.292 385.243,356.151 C385.243,355.01 386.17,354.083 387.311,354.083 Z"/>
    <path stroke="#01050C" stroke-linecap="round" stroke-linejoin="round" d="M387.311,354.083 C388.452,354.083 389.378,355.01 389.378,356.151 C389.378,357.292 388.452,358.218 387.311,358.218 C386.17,358.218 385.243,357.292 385.243,356.151 C385.243,355.01 386.17,354.083 387.311,354.083 Z"/>
    <line x1="379.198" x2="375.594" y1="358.309" y2="359.435" stroke="#01050C" stroke-linecap="round" stroke-linejoin="round"/>
    <line x1="383.739" x2="385.243" y1="356.796" y2="356.454" stroke="#01050C" stroke-linecap="round" stroke-linejoin="round"/>
    <path fill="#FFF" fill-opacity=".1" d="M397.768,330.28 C397.768,327.427 399.291,324.79 401.762,323.364 C416.762,314.703 469.64,284.174 484.502,275.594 C485.309,275.128 486.303,275.128 487.109,275.594 C487.916,276.059 488.413,276.92 488.413,277.852 C488.413,294.544 488.413,352.652 488.413,369.499 C488.413,372.352 486.891,374.989 484.42,376.415 C469.42,385.076 416.541,415.6052 401.68,424.1855 C400.873,424.6513 399.879,424.6513 399.072,424.1855 C398.265,423.7197 397.768,422.8589 397.768,421.9273 C397.768,405.2355 397.768,347.128 397.768,330.28 Z"/>
    <path stroke="#000" stroke-linecap="round" stroke-linejoin="round" stroke-opacity=".1" d="M397.768,330.28 C397.768,327.427 399.291,324.79 401.762,323.364 C416.762,314.703 469.64,284.174 484.502,275.594 C485.309,275.128 486.303,275.128 487.109,275.594 C487.916,276.059 488.413,276.92 488.413,277.852 C488.413,294.544 488.413,352.652 488.413,369.499 C488.413,372.352 486.891,374.989 484.42,376.415 C469.42,385.076 416.541,415.6052 401.68,424.1855 C400.873,424.6513 399.879,424.6513 399.072,424.1855 C398.265,423.7197 397.768,422.8589 397.768,421.9273 C397.768,405.2355 397.768,347.128 397.768,330.28 Z"/>
  </g>
</svg>
