<svg xmlns="http://www.w3.org/2000/svg" xmlns:xlink="http://www.w3.org/1999/xlink" width="397" height="407"><defs><path id="a" d="M.058 0h199.574v89.627c0 14.755-9.74 29.51-29.221 40.758-38.963 22.495-102.227 22.495-141.19 0C8.873 118.637-.85 103.06.058 87.657V0z"/><path id="d" d="M.871 8.672a1.274 1.274 0 010-2.207L11.993.044h11.742l20.324 11.733a1.276 1.276 0 010 2.207l-15.427 8.907c-.969.56-2.164.56-3.134 0L.871 8.672z"/><path id="g" d="M4.272 46.086l-.467-26.07 5.424 3.496-7.571-7.741-.765-7.997 1.113-2.612a5.021 5.021 0 013.461-2.917l7.85-1.863a7.202 7.202 0 018.271 4.142l2.622 6.042 3.286 6.287-3.286.938-3.41-3.332-.297-4.666a.223.223 0 00-.445.003l-.871 16.095L20.8 45.344l.77 15.623a3.439 3.439 0 01-3.42 3.78 3.439 3.439 0 01-3.436-3.548l-.903-14.924-1.613-11.244-1.071 29.324a3.439 3.439 0 01-3.418 3.795 3.439 3.439 0 01-3.437-3.437V46.086z"/><path id="i" d="M2.459 16.613l.635 8.29L.223 43.527c2.152 1.242 5.607 1.255 8.643.523l1.844-33.947a7.02 7.02 0 00-.52-3.058L7.504.524 2.459 16.613z"/><path id="k" d="M1.429.208L.565 8.36c-.05.47-.052.946-.006 1.418l3.305 34.121c2.85.572 5.126 0 7.258-1.375-1.359-5.215-3.805-18.842-3.805-18.842l-.603-7.517L1.429.208z"/><linearGradient id="b" x1="20.634%" x2="43.897%" y1="78.211%" y2="77.041%"><stop offset="0%" stop-color="#FFF"/><stop offset="100%" stop-color="#EFF4F6"/></linearGradient><linearGradient id="f" x1="50%" x2="50%" y1="26.025%" y2="98.047%"><stop offset="0%" stop-color="#FFF"/><stop offset="100%" stop-color="#FFF" stop-opacity="0"/></linearGradient></defs><g fill="none" fill-rule="evenodd"><g opacity=".1"><path stroke="#3F6C9F" stroke-linecap="round" stroke-linejoin="round" stroke-width="2" d="M36.579 233.78l13.842 7.992a4.324 4.324 0 004.323 0l22.471-12.974M242.252 376.795l14.129-8.157M235.952 327.619l25.768 14.878"/><path fill="#FFF" d="M291.777 230.697a5 5 0 00-5 0l-17.458 10.079a3.42 3.42 0 000 5.923l17.458 10.079a5 5 0 005 0l17.457-10.079a3.42 3.42 0 000-5.923l-17.457-10.079z"/><path stroke="#3F6C9F" stroke-linecap="round" stroke-linejoin="round" stroke-width="2" d="M291.777 230.697a5 5 0 00-5 0l-17.458 10.079a3.42 3.42 0 000 5.923l17.458 10.079a5 5 0 005 0l17.457-10.079a3.42 3.42 0 000-5.923l-17.457-10.079z"/><path stroke="#3F6C9F" stroke-linecap="round" stroke-linejoin="round" stroke-width="2" d="M298.079 253.139l6.311 3.644a3.2 3.2 0 010 5.542l-16.22 9.364m-123.84 80.074l-20.032 11.566a3.376 3.376 0 000 5.846l51.913 29.972a7.327 7.327 0 007.327 0l28.037-16.187M6.727 366.23l24.68 14.25a5.211 5.211 0 005.212 0l84.956-49.05M62.393 365.6l16.605 9.587a5.532 5.532 0 005.532 0l11.784-6.804M315.605 227.931l-14.141 8.359"/><path stroke="#3F6C9F" stroke-linecap="round" stroke-linejoin="round" stroke-width="2" d="M97.532 365.689c1.624-.938 4.261-.938 5.885 0 1.624.938 1.624 2.46 0 3.398-1.624.937-4.261.937-5.885 0-1.624-.938-1.624-2.46 0-3.398zm-96-3c1.624-.938 4.261-.938 5.885 0 1.624.938 1.624 2.46 0 3.398-1.624.937-4.261.937-5.885 0-1.624-.938-1.624-2.46 0-3.398zm29.686-132.986c1.624-.937 4.261-.937 5.885 0 1.624.938 1.624 2.46 0 3.398-1.624.938-4.261.938-5.885 0-1.624-.938-1.624-2.46 0-3.398z"/><path fill="#FFF" d="M233.795 371.913a5 5 0 00-5 0l-18.963 10.948a2.416 2.416 0 000 4.184l18.963 10.948a5 5 0 005 0l18.714-10.804a2.581 2.581 0 000-4.472l-18.714-10.804z"/><path stroke="#3F6C9F" stroke-linecap="round" stroke-linejoin="round" stroke-width="2" d="M233.795 371.913a5 5 0 00-5 0l-18.963 10.948a2.416 2.416 0 000 4.184l18.963 10.948a5 5 0 005 0l18.714-10.804a2.581 2.581 0 000-4.472l-18.714-10.804z"/><path fill="#3F6C9F" d="M286.162 337.215a7.323 7.323 0 00-7.322 0l-39.274 22.675a3.774 3.774 0 000 6.538l48.554 28.032a7.32 7.32 0 007.321 0l39.274-22.674a3.775 3.775 0 000-6.539l-48.553-28.032zm50.126-149.102a7.322 7.322 0 00-7.322 0l-36.609 21.137a3.773 3.773 0 000 6.538l53.548 30.916a7.327 7.327 0 007.322 0l36.609-21.137a3.773 3.773 0 000-6.538l-53.548-30.916z"/></g><path fill="#3F6C9F" fill-opacity=".1" d="M82.435 331.399a6 6 0 00-6 0l-8.402 4.85a2.01 2.01 0 000 3.483l10.673 6.162a6 6 0 006 0l8.402-4.85a2.01 2.01 0 000-3.483l-10.673-6.162z"/><path fill="#EFF4F7" d="M337.154 189.194a7.32 7.32 0 00-7.321 0l-36.61 21.137a3.773 3.773 0 000 6.538l53.548 30.916a7.327 7.327 0 007.322 0l36.609-21.137a3.773 3.773 0 000-6.538l-53.548-30.916z"/><path stroke="#01050C" stroke-linecap="round" stroke-linejoin="round" d="M337.154 189.194a7.32 7.32 0 00-7.321 0l-36.61 21.137a3.773 3.773 0 000 6.538l53.548 30.916a7.327 7.327 0 007.322 0l36.609-21.137a3.773 3.773 0 000-6.538l-53.548-30.916z"/><path fill="#3F6C9F" fill-opacity=".12" d="M334.154 217.971c7.423 1.23 13.068 5.198 12.599 8.854-.469 3.656-6.876 5.625-14.298 4.394-7.423-1.23-13.068-5.198-12.599-8.854.469-3.656 6.876-5.625 14.298-4.394z"/><path fill="#EFF4F7" d="M287.372 337.495a7.323 7.323 0 00-7.322 0l-39.274 22.674a3.774 3.774 0 000 6.538l48.554 28.033a7.32 7.32 0 007.321 0l39.274-22.675a3.775 3.775 0 000-6.538l-48.553-28.032z"/><path stroke="#01050C" stroke-linecap="round" stroke-linejoin="round" d="M287.372 337.495a7.323 7.323 0 00-7.322 0l-39.274 22.674a3.774 3.774 0 000 6.538l48.554 28.033a7.32 7.32 0 007.321 0l39.274-22.675a3.775 3.775 0 000-6.538l-48.553-28.032z"/><path fill="#3F6C9F" fill-opacity=".12" d="M285.648 363.73c7.398-2.305 14.262-1.447 15.317 1.916 1.056 3.363-4.093 7.964-11.491 10.27-7.398 2.305-14.261 1.447-15.317-1.916-1.056-3.362 4.093-7.964 11.491-10.27z"/><path fill="#B1BBC9" d="M174.845 210.923L37.966 289.95a5.055 5.055 0 000 8.756l131.822 76.107a10.113 10.113 0 0010.114 0c21.775-12.57 107.557-62.097 132.542-76.523a4.575 4.575 0 000-7.925l-137.599-79.442z"/><path stroke="#01050C" stroke-linecap="round" stroke-linejoin="round" d="M174.845 210.923L37.966 289.95a5.055 5.055 0 000 8.756l131.822 76.107a10.113 10.113 0 0010.114 0c21.775-12.57 107.557-62.097 132.542-76.523a4.575 4.575 0 000-7.925l-137.599-79.442z"/><path fill="#EFF4F7" d="M174.845 207.923L37.966 286.95a5.055 5.055 0 000 8.756l131.822 76.107a10.113 10.113 0 0010.114 0c21.775-12.57 107.557-62.097 132.542-76.523a4.575 4.575 0 000-7.925l-137.599-79.442z"/><path stroke="#01050C" stroke-linecap="round" stroke-linejoin="round" d="M174.845 207.923L37.966 286.95a5.055 5.055 0 000 8.756l131.822 76.107a10.113 10.113 0 0010.114 0c21.775-12.57 107.557-62.097 132.542-76.523a4.575 4.575 0 000-7.925l-137.599-79.442z"/><path fill="#5A6D83" fill-opacity=".2" d="M114.467 248.592c37.136-21.44 97.434-21.44 134.57 0 37.135 21.44 37.135 56.254 0 77.694-37.136 21.44-97.434 21.44-134.57 0-37.135-21.44-37.135-56.254 0-77.694z"/><g transform="translate(72.956 190.312)"><mask id="c" fill="#fff"><use xlink:href="#a"/></mask><use fill="#FFF" xlink:href="#a"/><path fill="url(#b)" mask="url(#c)" d="M100.044 147.32h110.357v-144H100.044z"/></g><path stroke="#01050C" stroke-linecap="round" stroke-linejoin="round" d="M73.014 190.312h199.574v89.627c0 14.755-9.74 29.51-29.221 40.758-38.963 22.495-102.227 22.495-141.19 0-20.348-11.748-30.069-27.324-29.163-42.728v-87.657z"/><path stroke="#01050C" stroke-linecap="round" stroke-linejoin="round" d="M272.588 224.4v24.627c0 14.755-9.74 29.51-29.221 40.758-38.963 22.495-102.227 22.495-141.19 0-20.348-11.748-30.069-27.323-29.163-42.728V224.4"/><path stroke="#01050C" stroke-linecap="round" stroke-linejoin="round" d="M73.014 194.488h199.574v24.627c0 14.755-9.74 29.511-29.221 40.758-38.963 22.495-102.227 22.495-141.19 0-20.348-11.748-30.069-27.323-29.163-42.728v-22.657z"/><path fill="#FFF" d="M102.177 150.035c38.963-22.494 102.227-22.494 141.19 0 38.962 22.495 38.962 59.021 0 81.516-38.963 22.495-102.227 22.495-141.19 0-38.962-22.495-38.962-59.021 0-81.516z"/><path stroke="#01050C" stroke-linecap="round" stroke-linejoin="round" d="M102.177 150.035c38.963-22.494 102.227-22.494 141.19 0 38.962 22.495 38.962 59.021 0 81.516-38.963 22.495-102.227 22.495-141.19 0-38.962-22.495-38.962-59.021 0-81.516z"/><path fill="#EFF4F7" d="M211.664 202.983a5.224 5.224 0 00-5.221 0l-19.36 11.178a1.587 1.587 0 000 2.748l23.582 13.615a5.222 5.222 0 005.22 0l19.36-11.178a1.585 1.585 0 000-2.748l-23.581-13.615z"/><path fill="#5A6D83" fill-opacity=".21" d="M215.026 218.51l4.499.106a14.177 14.177 0 007.614-2.01l39.443-23.62a1.773 1.773 0 00-.015-3.052l-33.118-19.383-18.423-1.197v49.156zm-131.014 1.342a7.78 7.78 0 002.529 5.743c25.424 23.05 55.154 28.275 76 32.814a2.016 2.016 0 002.45-1.967v-8.194l20.315-12.165a1.771 1.771 0 00-.016-3.051l-33.117-19.384-18.424-1.196-49.737-2.269v9.669z"/><path fill="#EFF4F7" d="M226.112 49.75a15.041 15.041 0 01-.051-1.23c0-6.689 4.703-9.404 10.496-6.06 5.129 2.961 9.403 9.686 10.316 15.831 1.887-.255 4.11.253 6.488 1.626 6.836 3.947 12.386 13.559 12.386 21.453 0 7.893-5.55 11.097-12.386 7.151l-31.806-18.364c-5.793-3.344-10.496-11.49-10.496-18.179 0-6.689 4.703-9.404 10.496-6.06 1.632.943 3.178 2.267 4.557 3.832z"/><path stroke="#01050C" stroke-linecap="round" stroke-linejoin="round" d="M226.112 49.75a15.041 15.041 0 01-.051-1.23c0-6.689 4.703-9.404 10.496-6.06 5.129 2.961 9.403 9.686 10.316 15.831 1.887-.255 4.11.253 6.488 1.626 6.836 3.947 12.386 13.559 12.386 21.453 0 7.893-5.55 11.097-12.386 7.151l-31.806-18.364c-5.793-3.344-10.496-11.49-10.496-18.179 0-6.689 4.703-9.404 10.496-6.06 1.632.943 3.178 2.267 4.557 3.832z"/><path fill="#FFF" d="M222.354 51.722a15.041 15.041 0 01-.051-1.23c0-6.689 4.703-9.404 10.496-6.06 5.128 2.961 9.403 9.686 10.315 15.831 1.888-.255 4.111.253 6.489 1.626 6.836 3.947 12.386 13.559 12.386 21.453 0 7.893-5.55 11.097-12.386 7.151l-31.807-18.364c-5.792-3.344-10.495-11.49-10.495-18.179 0-6.689 4.703-9.404 10.495-6.06 1.633.943 3.179 2.267 4.558 3.832z"/><path stroke="#01050C" stroke-linecap="round" stroke-linejoin="round" d="M222.354 51.722a15.041 15.041 0 01-.051-1.23c0-6.689 4.703-9.404 10.496-6.06 5.128 2.961 9.403 9.686 10.315 15.831 1.888-.255 4.111.253 6.489 1.626 6.836 3.947 12.386 13.559 12.386 21.453 0 7.893-5.55 11.097-12.386 7.151l-31.807-18.364c-5.792-3.344-10.495-11.49-10.495-18.179 0-6.689 4.703-9.404 10.495-6.06 1.633.943 3.179 2.267 4.558 3.832z"/><path stroke="#B1BBC9" stroke-linecap="round" stroke-linejoin="round" d="M222.777 56.397l13.416 7.746M241.869 67.42l7.463 4.309M218.582 58.819l6.708 3.873M234.296 67.892l7.11 4.104M245.137 74.151l7.417 4.282M214.387 61.241l19.47 11.241"/><path fill="#EFF4F7" d="M104.14 84.887c.027-.326.041-.649.041-.968 0-5.263-3.701-7.399-8.259-4.768-4.035 2.33-7.398 7.621-8.116 12.456-1.485-.2-3.234.199-5.105 1.279-5.379 3.106-9.745 10.669-9.745 16.879 0 6.211 4.366 8.732 9.745 5.627l25.025-14.449c4.558-2.631 8.258-9.04 8.258-14.303 0-5.263-3.7-7.4-8.258-4.768-1.284.742-2.501 1.783-3.586 3.015z"/><path stroke="#01050C" stroke-linecap="round" stroke-linejoin="round" d="M104.14 84.887c.027-.326.041-.649.041-.968 0-5.263-3.701-7.399-8.259-4.768-4.035 2.33-7.398 7.621-8.116 12.456-1.485-.2-3.234.199-5.105 1.279-5.379 3.106-9.745 10.669-9.745 16.879 0 6.211 4.366 8.732 9.745 5.627l25.025-14.449c4.558-2.631 8.258-9.04 8.258-14.303 0-5.263-3.7-7.4-8.258-4.768-1.284.742-2.501 1.783-3.586 3.015z"/><path fill="#FFF" d="M107.097 86.439c.027-.326.041-.649.041-.968 0-5.263-3.701-7.399-8.259-4.768-4.035 2.33-7.398 7.621-8.116 12.455-1.485-.2-3.234.2-5.105 1.28-5.379 3.105-9.745 10.668-9.745 16.879 0 6.21 4.366 8.731 9.745 5.626l25.025-14.448c4.558-2.632 8.258-9.041 8.258-14.304 0-5.262-3.7-7.399-8.258-4.767-1.284.741-2.501 1.783-3.586 3.015z"/><path stroke="#01050C" stroke-linecap="round" stroke-linejoin="round" d="M107.097 86.439c.027-.326.041-.649.041-.968 0-5.263-3.701-7.399-8.259-4.768-4.035 2.33-7.398 7.621-8.116 12.455-1.485-.2-3.234.2-5.105 1.28-5.379 3.105-9.745 10.668-9.745 16.879 0 6.21 4.366 8.731 9.745 5.626l25.025-14.448c4.558-2.632 8.258-9.041 8.258-14.304 0-5.262-3.7-7.399-8.258-4.767-1.284.741-2.501 1.783-3.586 3.015z"/><path fill="#B1BBC9" d="M196.038 151.521c1.508-.888 3.777-.991 5.07-.23 10.335 6.085 63.045 34.895 63.045 34.895s.009 2.53 0 3.02c-.012.583-.437 1.197-1.256 1.679l-45.041 26.518c-1.507.888-3.777.99-5.069.23l-61.62-36.28c-2.357-1.387-1.425-3.835-1.425-3.835s37.512-20.825 46.296-25.997z"/><path stroke="#01050C" stroke-linecap="round" stroke-linejoin="round" d="M196.038 151.521c1.508-.888 3.777-.991 5.07-.23 10.335 6.085 63.045 34.895 63.045 34.895s.009 2.53 0 3.02c-.012.583-.437 1.197-1.256 1.679l-45.041 26.518c-1.507.888-3.777.99-5.069.23l-61.62-36.28c-2.357-1.387-1.425-3.835-1.425-3.835s37.512-20.825 46.296-25.997z"/><path fill="#FFF" d="M196.038 148.25c1.508-.888 3.777-.991 5.07-.23l62.179 36.609c1.293.761 1.118 2.097-.39 2.985l-45.041 26.518c-1.507.888-3.777.991-5.069.23l-62.18-36.609c-1.292-.761-1.117-2.097.39-2.985l45.041-26.518z"/><path stroke="#01050C" stroke-linecap="round" stroke-linejoin="round" d="M196.038 148.25c1.508-.888 3.777-.991 5.07-.23l62.179 36.609c1.293.761 1.118 2.097-.39 2.985l-45.041 26.518c-1.507.888-3.777.991-5.069.23l-62.18-36.609c-1.292-.761-1.117-2.097.39-2.985l45.041-26.518z"/><path fill="#EFF4F7" d="M195.89 154.096c.706-.416 2.153-.238 3.232.397l51.927 30.573c1.079.635 1.382 1.487.676 1.903l-21.093 12.419c-.706.415-2.153.237-3.232-.398l-51.928-30.573c-1.079-.635-1.381-1.487-.675-1.903l21.093-12.418z"/><path stroke="#01050C" stroke-linecap="round" stroke-linejoin="round" d="M195.89 154.096c.706-.416 2.153-.238 3.232.397l51.927 30.573c1.079.635 1.382 1.487.676 1.903l-21.093 12.419c-.706.415-2.153.237-3.232-.398l-51.928-30.573c-1.079-.635-1.381-1.487-.675-1.903l21.093-12.418z"/><path fill="#EFF4F7" d="M186.52 180.803c.331-.195.915-.166 1.306.064l18.793 11.064c.391.23.439.575.109.769l-9.878 5.816c-.33.195-.915.166-1.306-.064l-18.793-11.065c-.391-.23-.439-.574-.108-.769l9.877-5.815z"/><path stroke="#01050C" stroke-linecap="round" stroke-linejoin="round" d="M186.52 180.803c.331-.195.915-.166 1.306.064l18.793 11.064c.391.23.439.575.109.769l-9.878 5.816c-.33.195-.915.166-1.306-.064l-18.793-11.065c-.391-.23-.439-.574-.108-.769l9.877-5.815z"/><path fill="#3F6C9F" fill-opacity=".12" d="M194.321 180.012c7.423 1.231 13.068 5.198 12.599 8.854-.469 3.656-6.876 5.625-14.298 4.394-7.423-1.23-13.068-5.197-12.599-8.853.469-3.656 6.876-5.625 14.298-4.395z"/><path fill="#EFF4F7" d="M266.54 182.743c.538-.272.883-.977.883-1.995v-53.037c0-1.775-1.048-3.831-2.34-4.591l-62.18-36.61c-.52-.306-1.002-.356-1.39-.189l-.009-.005-2.849 1.464 1.909 2.797v50.807c0 1.775 1.047 3.831 2.339 4.592l59.327 34.929 1.927 2.823 2.223-.918c.054-.018.107-.04.158-.066l.002-.001z"/><path stroke="#01050C" stroke-linecap="round" stroke-linejoin="round" d="M266.54 182.743c.538-.272.883-.977.883-1.995v-53.037c0-1.775-1.048-3.831-2.34-4.591l-62.18-36.61c-.52-.306-1.002-.356-1.39-.189l-.009-.005-2.849 1.464 1.909 2.797v50.807c0 1.775 1.047 3.831 2.339 4.592l59.327 34.929 1.927 2.823 2.223-.918c.054-.018.107-.04.158-.066l.002-.001z"/><path fill="#FFF" d="M197.741 89.787c0-1.775 1.047-2.598 2.339-1.837l62.18 36.609c1.292.761 2.34 2.817 2.34 4.592v53.036c0 1.776-1.048 2.598-2.34 1.837l-62.18-36.609c-1.292-.76-2.339-2.816-2.339-4.591V89.787z"/><path stroke="#01050C" stroke-linecap="round" stroke-linejoin="round" d="M197.741 89.787c0-1.775 1.047-2.598 2.339-1.837l62.18 36.609c1.292.761 2.34 2.817 2.34 4.592v53.036c0 1.776-1.048 2.598-2.34 1.837l-62.18-36.609c-1.292-.76-2.339-2.816-2.339-4.591V89.787z"/><path fill="#EFF4F7" d="M201.977 95.642c0-1.55.915-2.268 2.043-1.604l54.3 31.969c1.128.665 2.043 2.46 2.043 4.01v46.315c0 1.551-.915 2.269-2.043 1.605l-54.3-31.97c-1.128-.664-2.043-2.46-2.043-4.01V95.642z"/><path stroke="#01050C" stroke-linecap="round" stroke-linejoin="round" d="M201.977 95.642c0-1.55.915-2.268 2.043-1.604l54.3 31.969c1.128.665 2.043 2.46 2.043 4.01v46.315c0 1.551-.915 2.269-2.043 1.605l-54.3-31.97c-1.128-.664-2.043-2.46-2.043-4.01V95.642z"/><path fill="#FFF" d="M222.321 110.768c0-1.351.546-2.125 1.219-1.729l32.374 19.061c.673.396 1.218 1.812 1.218 3.163v40.36c0 1.351-.545 2.125-1.218 1.729l-32.374-19.061c-.673-.397-1.219-1.813-1.219-3.164v-40.359z"/><path fill="#4D72EF" d="M250.942 168.094c0-6.189-4.345-13.715-9.706-16.81-5.36-3.095-9.705-.586-9.705 5.603l5.483 3.166c0-2.693 1.89-3.784 4.222-2.438 2.332 1.347 4.223 4.621 4.223 7.314l5.483 3.165z"/><path stroke="#FFF" stroke-linecap="round" stroke-linejoin="round" d="M250.942 168.094c0-6.189-4.345-13.715-9.706-16.81-5.36-3.095-9.705-.586-9.705 5.603l5.483 3.166c0-2.693 1.89-3.784 4.222-2.438 2.332 1.347 4.223 4.621 4.223 7.314l5.483 3.165z"/><path fill="#7390F2" d="M239.364 150.413c-4.551-1.594-7.833 1.118-7.833 6.474l5.483 3.166c0-2.33 1.428-3.51 3.408-2.816l-1.058-6.824z"/><path stroke="#FFF" stroke-linecap="round" stroke-linejoin="round" d="M239.364 150.413c-4.551-1.594-7.833 1.118-7.833 6.474l5.483 3.166c0-2.33 1.428-3.51 3.408-2.816l-1.058-6.824z"/><path fill="#A3B6F5" d="M233.97 150.866c-1.571 1.142-2.439 3.284-2.439 6.021l5.483 3.166c0-1.191.378-2.123 1.061-2.62l-4.105-6.567z"/><path stroke="#FFF" stroke-linecap="round" stroke-linejoin="round" d="M233.97 150.866c-1.571 1.142-2.439 3.284-2.439 6.021l5.483 3.166c0-1.191.378-2.123 1.061-2.62l-4.105-6.567z"/><path stroke="#B1BBC9" stroke-linecap="round" stroke-linejoin="round" d="M205.909 129.596l5.371 8.007 9.021-4.726 3.928 15.795 2.464 1.422"/><path stroke="#5A6D83" stroke-linecap="round" stroke-linejoin="round" d="M204.288 141.159l6.438-12.283 6.575 15.796 6.928-4.498 2.464 4.259"/><path fill="#EFF4F7" d="M230.405 133.445c-.051.491-.007 1.025-.146 1.45-.119.364-.444.534-.394 1.072.102 1.085.836 2.117 1.08 3.188.17.746.372 1.549.386 2.261.01.503-.042.98.085 1.528.197.854.264 2.004.656 2.798.075.153.4.846.54.782.646-.297.032-2.084.277-2.797.154-.445.599-.62.857-.905.417-.463.983-1.402 1.203-2.15.323-1.098-.151-2.08-.771-3.089-.242-.393-.368-.835-.656-1.185-.309-.375-.914-.202-1.08-.747-.381-1.253-1.823-2.753-2.037-2.206zm24.069 17.578c-.389-.154-.85-.074-.951.509-.036.206.034.696-.153.728-.41.071-.948-.305-1.25.095-.167.223-.286 1.338 0 1.704.326.416.73.67 1.07.698.318.026.514-.302.895.063.561.537.492 2.433 1.146 2.406.637-.027 1.013-1.161 1.194-1.912.063-.259.3-.107.368-.332.097-.319-.113-.957-.139-1.34-.024-.358.035-1.014-.167-1.386-.422-.782-.549.818-.999.602-.287-.138-.275-.646-.361-1.005-.044-.182-.414-.736-.653-.83zm-16.037-17.578c-.365.198-.858 1.056-.988 1.423-.111.31-.163.602-.17 1.011-.006.344.111.687.216 1.054.373 1.299 1.104 1.616 1.821 1.981.377.192.988.33 1.195 1.071.226.81.048 1.677.093 2.439.063 1.087.381 2.302.463 3.415.062.85.351 1.967 1.003 2.136.309.08.566-.416.701-.704.382-.81.409-1.959.656-2.892.12-.452.203-.995.471-1.251.339-.325 1.004-.128 1.126-.885.022-.137.197-.863.085-1.104-.15-.325-1.39-1.567-1.173-1.932.18-.301.747.274 1.003.064.166-.136.102-.76.317-.792.59-.087 1.486 1.157 1.928 1.965.149.271.444.742.494 1.069.053.342-.063 1.724.201 2.009 1.422 1.537.706-1.639 1.743-1.223.596.239 1.091 1.398 1.389 2.169.133.345.146.785.439.948.418.232.559-.552.672-.934.196-.667.03-1.333.115-2.006.04-.315.3-.691.201-1.105-.185-.765-.561-1.216-.155-1.702.587-.702 1.47 1.558 1.913.556.135-.303.083-1.006-.177-1.401-.03-.047-.833-.852-.702-.955.706-.552 1.757 1.367 2.484 1.334.326-.015.194-1.211.039-1.557-.301-.673-1.096-1.008-1.505-1.395-.992-.94-2.008-1.854-3.031-2.579-.641-.455-1.273-.531-1.914-.982-.278-.196-.589-.83-.833-1.153-.435-.576-1.036-1.123-1.519-1.213-.29-.054-.579.466-.787.609-.491.337-1.019.428-1.682.138-.051-.022-.524-.208-.617-.322-.848-1.044-1.642-3.096-2.631-2.314-.143.113-.263.296-.362.485-.276.522.521 1.133.817 1.525.137.181.467.7.263.89-.567.53-1.794-.456-2.538-.345-.104.016-.77.157-.695.383.218.65.8.967 1.15 1.045.676.15.986-.501 1.759.097.336.259.75.571 1.064.951.152.183.227.308.355.529 1.084 1.871-.739 1.946-1.358 1.781-.275-.073-.841-.358-1.095-.699-.296-.398-.697-1.159-1.042-1.397-.436-.301-.874-.413-1.202-.235zm-9.142-11.87c.483.234 1.061.427 1.458.399.835-.056 1.528-.641 2.522-.067.374.216 1.621.785 1.79 1.616.121.597-.372.898-.671.856-.236-.033-.569-.355-.818-.483-.609-.312-1.577-.377-1.851.286-.119.287.097.618.3.667.495.117.923.232 1.435.649.202.165.431.351.422.703-.03 1.297-1.137.806-1.71 1.04-.65.264-.645 1.653-1.281 2.004-.507.281-1.442-.691-2.013-.568-.123.026-.006.463.038.593.264.768.522 1.262.51 2.03-.004.252-.043.664-.27.483-.369-.295-.326-1.04-.61-1.394-.45-.562-1.179-.982-1.581-1.585-.431-.645-.825-2.53-.764-3.219.102-1.159.781-1.949.548-3.313-.244-1.424-1.063-1.179-1.643-1.497-.151-.082-.689-.456-.618-.827.04-.206.323-.315.44-.396.183-.125.501-.371.733-.349.691.065 1.488 1.19 2.16 1.65.4.274 1.098.244 1.474.722a4.755 4.755 0 01-.124-.061l-.208-.114c.066.038.136.076.208.114l.131.071-.007-.01z"/><path fill="#5A6D83" d="M253.007 151.733c.005-.11.013-.227.023-.286.069-.398.255-.648.473-.801.324-.226.761-.244 1.155-.088.152.06.351.219.523.428.219.266.397.603.432.75.015.065.028.134.04.204.06-.096.123-.176.184-.23a.605.605 0 01.535-.161c.149.026.368.123.555.469.109.201.171.462.197.736.029.309.015.636.029.855.015.219.095.526.135.802.04.277.039.534-.017.717-.064.213-.256.351-.39.424-.123.48-.319 1.065-.588 1.478-.276.424-.64.678-1.041.695-.385.016-.712-.226-.913-.715-.127-.308-.216-.737-.322-1.14-.073-.279-.134-.551-.278-.689a.85.85 0 00-.031-.026l-.045.014a2.219 2.219 0 01-.169.053 1.01 1.01 0 01-.346.033c-.446-.037-.993-.342-1.421-.888-.197-.251-.297-.75-.276-1.234.02-.48.156-.927.27-1.079.237-.315.541-.404.881-.384.126.007.259.033.392.06l.013.003zm1.263-.253c-.068-.027-.139-.052-.194-.014-.038.027-.048.081-.06.151-.019.108-.004.298-.02.451a1.008 1.008 0 01-.1.358.599.599 0 01-.44.327c-.221.038-.47-.005-.715-.054-.062-.012-.124-.025-.184-.03h-.028a3.076 3.076 0 00-.079.505c-.006.142-.002.286.019.414.011.065.016.125.045.163.224.286.483.488.717.507.037.003.066-.021.098-.032.056-.019.111-.037.167-.05.268-.065.561-.075.935.283.183.176.332.45.442.778.123.365.206.806.313 1.166.026.089.074.2.109.275l.012-.011a.923.923 0 00.148-.183c.235-.36.387-.886.484-1.287.059-.244.245-.392.386-.472-.004-.089-.029-.194-.048-.302-.047-.266-.108-.542-.122-.748-.01-.156-.005-.369-.013-.591a.805.805 0 01-.066.074c-.233.231-.501.296-.804.151-.233-.112-.396-.324-.487-.61-.069-.216-.089-.491-.141-.715a3.025 3.025 0 00-.236-.363 1.575 1.575 0 00-.138-.141zm-12.755-20.49a2.176 2.176 0 00-.138-.244c-.185-.246-.555-.576-.762-.917-.232-.381-.292-.777-.099-1.143.134-.252.304-.492.495-.643.268-.212.532-.289.785-.281.336.009.673.182.987.495.524.523 1.019 1.501 1.528 2.141.07.033.425.201.458.215.472.207.849.148 1.199-.092.047-.032.094-.1.152-.165a2.44 2.44 0 01.365-.356c.208-.151.43-.207.644-.168.573.107 1.311.721 1.827 1.404.151.199.327.513.506.777.075.112.143.217.216.268.641.451 1.273.528 1.915.983 1.041.738 2.076 1.667 3.086 2.624.193.182.479.35.75.553.354.267.682.586.867 1.001.09.201.183.638.202 1.041.015.305-.018.59-.088.768-.12.305-.341.44-.586.451-.237.011-.505-.08-.776-.266a3.953 3.953 0 01-.361-.29c.046.182.073.372.08.551.01.293-.036.557-.113.731-.163.367-.392.5-.599.543-.257.053-.582-.062-.89-.34-.144-.13-.295-.295-.445-.436-.032-.03-.074-.063-.112-.093-.026.103.017.208.055.327.076.238.184.506.261.825.072.3.027.587-.057.855-.048.155-.117.298-.134.43-.089.7.073 1.392-.132 2.084-.061.207-.133.518-.241.752-.073.16-.165.292-.265.383-.238.217-.526.296-.888.095a1.068 1.068 0 01-.463-.552c-.081-.198-.119-.443-.2-.653-.167-.434-.399-1-.68-1.431-.104-.16-.207-.305-.323-.392a2.598 2.598 0 00-.077.247c-.059.257-.111.53-.187.737-.113.305-.297.502-.505.585-.249.099-.689.085-1.26-.532-.127-.137-.239-.418-.28-.778-.059-.519-.012-1.258-.048-1.495-.043-.279-.312-.673-.438-.905-.245-.447-.638-1.041-1.033-1.425a1.85 1.85 0 00-.174-.154 1.92 1.92 0 01-.044.175.782.782 0 01-.239.378.724.724 0 01-.527.156c.332.454.748.929.834 1.115.058.126.091.325.081.552-.016.327-.11.739-.126.842-.101.622-.428.85-.797.991-.099.038-.202.067-.303.099-.062.02-.128.031-.174.076-.08.076-.118.204-.159.338-.067.218-.116.46-.174.68-.255.961-.294 2.142-.687 2.977-.125.266-.349.654-.6.835a.792.792 0 01-.68.14c-.385-.1-.708-.399-.934-.833-.259-.495-.4-1.176-.442-1.75-.082-1.116-.4-2.333-.463-3.422-.043-.73.141-1.56-.075-2.334a.816.816 0 00-.431-.521c-.18-.099-.363-.165-.51-.239-.823-.419-1.646-.798-2.075-2.289-.119-.417-.242-.809-.235-1.201.008-.473.071-.811.199-1.17.103-.291.406-.856.721-1.245a1.82 1.82 0 01.5-.45c.467-.253 1.103-.165 1.724.263.176.121.37.341.555.603.216.305.428.671.604.907.19.255.618.46.823.515.167.044.451.064.709.007.118-.026.236-.062.309-.147.057-.067.06-.165.034-.296a2.052 2.052 0 00-.255-.611c-.112-.192-.176-.302-.308-.462-.29-.35-.675-.634-.985-.874-.346-.267-.55-.101-.788-.036a1.538 1.538 0 01-.773.032c-.461-.102-1.23-.518-1.516-1.374-.089-.268-.008-.549.29-.752.239-.162.707-.27.805-.284.436-.066 1.023.157 1.576.352.159.057.315.108.461.132l.051.01zm5.527-.148c-.052.051-.142.14-.193.199a1.943 1.943 0 01-.315.305c-.632.434-1.312.557-2.165.184-.039-.017-.302-.123-.492-.226a1.118 1.118 0 01-.313-.24c-.426-.524-.838-1.3-1.268-1.848a2.238 2.238 0 00-.317-.34c-.074-.062-.14-.12-.22-.115-.043.003-.082.03-.128.066-.094.075-.165.202-.23.326-.011.021.01.04.019.061a.99.99 0 00.132.215c.202.267.475.518.623.714.128.17.37.567.417.873.044.283-.036.52-.212.685-.161.15-.355.237-.573.27.069.042.14.091.213.148.362.28.806.618 1.144 1.028.172.207.258.348.403.598.599 1.034.438 1.68.116 2.058-.208.243-.516.399-.855.474a2.735 2.735 0 01-1.18-.018c-.345-.091-1.049-.456-1.368-.884-.18-.241-.398-.614-.619-.927-.106-.15-.205-.287-.306-.357a1.33 1.33 0 00-.461-.219c-.079-.017-.155-.022-.219.012-.097.053-.196.188-.3.333a3.924 3.924 0 00-.455.819 2.51 2.51 0 00-.141.851c-.005.297.105.592.196.908.318 1.107.956 1.363 1.567 1.673.471.24 1.192.457 1.451 1.383.236.845.064 1.748.11 2.544.063 1.085.381 2.297.462 3.408.033.445.13.976.331 1.36.057.109.115.21.192.273.067-.1.186-.282.231-.377.37-.787.386-1.904.625-2.808.076-.286.139-.605.237-.874.091-.249.214-.46.371-.61.157-.151.353-.24.565-.307.158-.051.371-.034.414-.296.015-.097.1-.759.11-.842-.135-.244-.727-.867-1.007-1.345-.14-.239-.214-.461-.222-.627a.696.696 0 01.095-.399c.174-.293.442-.385.782-.312.074.016.193.057.299.095.018-.091.04-.187.06-.248.099-.308.306-.467.534-.501.286-.043.633.066.975.334.539.422 1.128 1.267 1.466 1.885.17.311.491.858.549 1.233.033.213.007.814.036 1.324.01.165.055.396.066.451l.023.023.053.05.032.028a2.24 2.24 0 00.029-.108c.053-.232.101-.486.172-.695.111-.327.294-.562.516-.669.188-.092.419-.122.709-.006.316.127.628.43.893.835.319.488.587 1.126.776 1.618.035.092.064.189.09.287.03-.091.058-.177.075-.235.083-.282.085-.566.079-.849-.007-.358-.026-.717.02-1.077.02-.157.078-.327.14-.506.044-.131.107-.27.071-.42-.092-.381-.232-.685-.298-.953-.106-.429-.078-.799.246-1.186.439-.526.999-.364 1.527.139.115.109.23.231.342.338l-.002-.094c-.007-.207-.051-.443-.151-.61-.081-.088-.591-.642-.72-.882-.198-.371-.036-.647.113-.764.456-.357 1.029-.216 1.595.247.265.217.538.498.799.723.032.027.064.054.096.079-.013-.261-.058-.545-.116-.675-.115-.259-.335-.443-.556-.61-.304-.228-.619-.422-.835-.626-.976-.924-1.973-1.822-2.978-2.535-.64-.454-1.272-.53-1.911-.98-.15-.105-.315-.297-.47-.526-.168-.249-.332-.546-.474-.734a4.066 4.066 0 00-.797-.811 1.454 1.454 0 00-.32-.186zm-17.102 2.421a.485.485 0 00-.032.13c-.048.456.004.952-.124 1.346-.049.147-.146.251-.218.376a1.403 1.403 0 00-.198.898c.055.593.277 1.174.525 1.751.214.499.449.996.565 1.502.162.713.359 1.48.373 2.161.011.536-.037 1.045.098 1.63.205.887.287 2.08.694 2.906.072.147.352.701.541.881.238.226.488.212.657.134.338-.155.545-.509.588-1.012.03-.361-.018-.816-.054-1.247-.027-.323-.062-.629.007-.829.058-.168.197-.263.323-.36.156-.122.311-.239.432-.374.455-.504 1.072-1.527 1.312-2.343.364-1.237-.126-2.355-.825-3.492-.254-.412-.393-.874-.696-1.241-.188-.228-.437-.341-.698-.426-.065-.021-.131-.04-.192-.065-.04-.016-.082-.031-.098-.083-.237-.78-.84-1.648-1.37-2.152-.277-.263-.547-.431-.746-.49a.716.716 0 00-.579.057.666.666 0 00-.285.342zm.925.83c-.017.338-.037.671-.131.957-.05.151-.122.28-.201.404-.08.126-.191.238-.17.466.046.492.242.97.448 1.449.239.556.493 1.111.622 1.675.177.779.383 1.618.398 2.362.01.469-.046.914.072 1.425.166.72.227 1.66.493 2.395-.022-.274-.053-.557-.064-.814-.013-.332.009-.629.085-.847.109-.317.312-.544.542-.735.144-.119.302-.217.415-.343.38-.421.895-1.275 1.096-1.956.282-.959-.176-1.805-.718-2.686-.229-.373-.342-.797-.616-1.129-.048-.059-.122-.073-.189-.095-.116-.039-.233-.074-.341-.121-.286-.124-.524-.314-.642-.704-.163-.536-.548-1.119-.921-1.53a2.243 2.243 0 00-.178-.173zm-1.387-4.734c.249.696.459 1.205.448 1.949-.004.233-.054.549-.147.709a.597.597 0 01-.428.303.62.62 0 01-.508-.147c-.221-.176-.363-.449-.458-.761-.047-.157-.084-.323-.13-.477-.027-.088-.05-.173-.099-.233-.459-.573-1.197-1.006-1.607-1.62-.474-.711-.913-2.783-.846-3.541.044-.503.185-.942.326-1.383.173-.538.351-1.078.227-1.801-.061-.355-.152-.572-.288-.703-.126-.123-.281-.161-.432-.203-.232-.065-.463-.124-.67-.237a2.335 2.335 0 01-.627-.529c-.197-.25-.296-.546-.241-.831a.854.854 0 01.31-.496c.114-.095.258-.164.337-.218.152-.104.387-.274.606-.36.16-.063.317-.088.457-.075.361.034.759.263 1.145.596.429.37.86.872 1.251 1.14.163.112.393.149.615.22.326.104.641.249.884.507.381.177.81.328 1.116.308.395-.027.755-.185 1.136-.262.508-.103 1.041-.103 1.67.26.238.138.808.414 1.267.801.378.319.675.712.763 1.149a1.169 1.169 0 01-1.231 1.45 1.377 1.377 0 01-.523-.225c-.155-.102-.317-.238-.453-.308a1.531 1.531 0 00-.784-.169c-.154.012-.305.049-.371.187l.009.018c.539.13 1.01.274 1.574.733.31.253.619.563.606 1.103-.011.475-.144.78-.316.985-.193.232-.449.356-.74.413-.2.039-.42.043-.63.051-.122.004-.241.003-.335.042-.066.026-.101.094-.142.164-.088.151-.155.334-.225.518-.204.544-.453 1.072-.861 1.297-.322.178-.762.119-1.221-.101-.143-.068-.289-.149-.434-.223zm11.233 2.446c-.199-.069-.403-.149-.6-.215-.196-.066-.38-.129-.536-.105-.017.002-.069.018-.131.037.185.241.445.369.62.408.245.054.419-.064.606-.114l.041-.011zm-15.072-12.101a1.31 1.31 0 00-.116.053c-.118.067-.23.151-.312.208-.034.023-.112.071-.176.111a.512.512 0 00.039.047c.1.104.219.185.272.213.208.114.454.14.684.221.512.18 1.017.493 1.212 1.631.131.771.011 1.381-.162 1.961-.144.481-.333.936-.381 1.48-.054.619.294 2.317.682 2.897.177.266.43.487.684.708.152.132.305.263.449.398l-.071-.2c-.054-.158-.146-.618-.098-.814a.54.54 0 01.428-.43c.192-.041.409-.022.639.052.229.074.481.208.728.337.128.067.255.133.376.178.049.018.127.034.155.04.093-.063.145-.18.202-.301.107-.226.191-.486.288-.723.19-.467.452-.842.822-.993.221-.09.501-.11.789-.119.107-.004.215-.007.318-.022.074-.011.148-.019.2-.07.072-.07.088-.193.092-.378.004-.165-.142-.226-.237-.303-.44-.358-.81-.45-1.235-.551a.926.926 0 01-.52-.37 1.022 1.022 0 01-.127-.974c.175-.424.519-.672.94-.772.505-.121 1.136-.007 1.601.232.142.073.309.198.472.312.057.04.15.093.188.115a.207.207 0 00.045-.021c.06-.042.088-.125.066-.234-.046-.229-.23-.416-.428-.583-.404-.342-.912-.578-1.122-.699-.452-.261-.822-.192-1.182-.097-.348.092-.69.204-1.056.229-.442.03-1.079-.155-1.627-.409a.451.451 0 01-.097-.04l-.121-.066a4.816 4.816 0 01-.229-.125.498.498 0 01-.186-.187c-.088-.03-.178-.053-.265-.079-.269-.08-.524-.165-.723-.301-.416-.285-.882-.813-1.339-1.208-.197-.169-.377-.325-.561-.354z"/><path stroke="#5A6D83" stroke-linecap="round" stroke-linejoin="round" d="M207.659 103.105l20.342 12.085M207.659 109.017l10.3 6.12M207.659 114.954l3.491 2.074M207.62 120.954l5.217 3.1M214.84 119.221l3.253 1.933M216.301 126.112l6.928 4.116"/><path fill="#FFF" d="M393.788 132.641a7.987 7.987 0 00-3.993-6.917L323.74 87.587a2.607 2.607 0 00-3.912 2.258v56.927a7.986 7.986 0 003.994 6.916l66.055 38.137a2.606 2.606 0 003.911-2.258v-56.926z"/><path stroke="#000" stroke-linecap="round" stroke-linejoin="round" d="M393.788 132.641a7.987 7.987 0 00-3.993-6.917L323.74 87.587a2.607 2.607 0 00-3.912 2.258v56.927a7.986 7.986 0 003.994 6.916l66.055 38.137a2.606 2.606 0 003.911-2.258v-56.926z"/><path fill="#EFF4F7" d="M341.341 124.107c3.908 1.955 7.081 7.225 7.081 11.762 0 4.537-3.173 6.634-7.081 4.68-3.909-1.954-7.082-7.225-7.082-11.762 0-4.537 3.173-6.634 7.082-4.68z"/><path stroke="#000" stroke-linecap="round" stroke-linejoin="round" d="M327.917 103.813l20.363 11.756M352.951 118.266l4.819 2.782"/><path stroke="#B1BBC9" stroke-linecap="round" stroke-linejoin="round" d="M366.247 158.812l20.363 11.757M366.247 162.908l13.8 7.968"/><path stroke="#E01A33" stroke-linecap="round" stroke-linejoin="round" d="M341.039 117.31l12.25 15.786-12.25 1.642-12.249-15.786z"/><path stroke="#E01A33" stroke-linecap="round" stroke-linejoin="round" d="M341.039 129.743l12.25 15.786-12.25 1.642-12.249-15.786z"/><path fill="#000" d="M340.606 115.642c.725.418 1.314 1.438 1.314 2.275s-.589 1.176-1.314.758c-.725-.419-1.313-1.438-1.313-2.275s.588-1.177 1.313-.758zm12.845 28.611c.725.419 1.313 1.438 1.313 2.275s-.588 1.177-1.313.759c-.725-.419-1.314-1.438-1.314-2.275s.589-1.177 1.314-.759zm-12.845.994c.725.418 1.314 1.438 1.314 2.275s-.589 1.177-1.314.758c-.725-.418-1.313-1.438-1.313-2.275s.588-1.177 1.313-.758zm12.845-13.753c.725.418 1.313 1.438 1.313 2.275s-.588 1.177-1.313.758c-.725-.419-1.314-1.438-1.314-2.275s.589-1.177 1.314-.758zm-24.22-13.984c.725.419 1.313 1.438 1.313 2.275s-.588 1.177-1.313.759c-.725-.419-1.314-1.438-1.314-2.275s.589-1.177 1.314-.759zm0 12.695c.725.418 1.313 1.438 1.313 2.275s-.588 1.177-1.313.758c-.725-.418-1.314-1.438-1.314-2.275s.589-1.177 1.314-.758z"/><path fill="#EFF4F7" d="M372.86 133.59a3.318 3.318 0 015.815.703l7.993 20.679a2.934 2.934 0 01-4.201 3.597l-16.143-9.321a3.316 3.316 0 01-1.062-4.771l7.598-10.887z"/><path stroke="#01050C" stroke-linecap="round" stroke-linejoin="round" d="M372.86 133.59a3.318 3.318 0 015.815.703l7.993 20.679a2.934 2.934 0 01-4.201 3.597l-16.143-9.321a3.316 3.316 0 01-1.062-4.771l7.598-10.887z"/><path stroke="#01050C" stroke-linecap="round" stroke-linejoin="round" stroke-width="2" d="M376.428 138.224v7.807"/><path fill="#000" d="M376.428 148.524c.716.413 1.298 1.42 1.298 2.247s-.582 1.163-1.298.75c-.716-.414-1.298-1.421-1.298-2.248 0-.827.582-1.163 1.298-.749z"/><path fill="#01050C" d="M335.113 99.362c-.717-.414-1.299-.078-1.299.75 0 .827.582 1.836 1.299 2.25.717.414 1.299.077 1.299-.75 0-.828-.582-1.836-1.299-2.25zm-4.838-2.794c-.717-.414-1.299-.078-1.299.75s.582 1.836 1.299 2.25c.717.414 1.299.078 1.299-.75s-.582-1.836-1.299-2.25zm-4.838-2.793c-.717-.414-1.299-.078-1.299.75s.582 1.836 1.299 2.25c.717.414 1.299.078 1.299-.75s-.582-1.836-1.299-2.25z"/><path stroke="#01050C" stroke-linecap="round" stroke-linejoin="round" d="M331.277 335.671l37.735-43.604-20.583-24.201-17.152 35.434 37.735-11.233M348.429 267.866l12.605 54.214"/><path fill="#E01A33" d="M348.429 264.276c1.716-.99 3.109-.186 3.109 1.795 0 1.982-1.393 4.394-3.109 5.385-1.716.991-3.109.186-3.109-1.795 0-1.981 1.393-4.394 3.109-5.385zm-17.152 35.434c1.716-.99 3.109-.186 3.109 1.795 0 1.982-1.393 4.395-3.109 5.385-1.716.99-3.109.187-3.109-1.795 0-1.981 1.393-4.394 3.109-5.385zm37.735-11.233c1.716-.991 3.109-.186 3.109 1.795 0 1.981-1.393 4.394-3.109 5.385-1.716.99-3.109.186-3.109-1.795 0-1.982 1.393-4.394 3.109-5.385zm-37.735 43.604c1.716-.99 3.109-.186 3.109 1.795 0 1.981-1.393 4.394-3.109 5.385-1.716.99-3.109.186-3.109-1.795 0-1.981 1.393-4.394 3.109-5.385zm29.757-13.59c1.716-.991 3.109-.187 3.109 1.795 0 1.98-1.393 4.394-3.109 5.384-1.715.99-3.109.187-3.109-1.795 0-1.981 1.394-4.394 3.109-5.384z"/><path fill="#EFF4F7" d="M132.871 149.015a1.274 1.274 0 010-2.207l11.122-6.421h11.742l20.324 11.733a1.276 1.276 0 010 2.207l-15.427 8.907c-.969.56-2.164.56-3.134 0l-24.627-14.219z"/><g transform="translate(132 140.343)"><mask id="e" fill="#fff"><use xlink:href="#d"/></mask><path fill="#FFF" d="M16.56-4.099L10.819-.784l6.318 3.647a1.37 1.37 0 001.371 0l5.055-2.918-7.003-4.044z" mask="url(#e)"/><path stroke="#01050C" stroke-linecap="round" stroke-linejoin="round" d="M16.56-4.099L10.819-.784l6.318 3.647a1.37 1.37 0 001.371 0l5.055-2.918-7.003-4.044z" mask="url(#e)"/></g><path stroke="#01050C" stroke-linecap="round" stroke-linejoin="round" d="M132.871 149.015a1.274 1.274 0 010-2.207l11.122-6.421h11.742l20.324 11.733a1.276 1.276 0 010 2.207l-15.427 8.907c-.969.56-2.164.56-3.134 0l-24.627-14.219z"/><path stroke="#5A6D83" stroke-linecap="round" stroke-linejoin="round" d="M146.605 152.262l10.74-6.2M153.439 156.208l10.74-6.201M156.983 158.254l5.496-3.173M164.549 153.885l3.174-1.832M142.953 150.154l10.74-6.201M150.258 154.371l8.197-4.733"/><path fill="#EFF4F7" d="M146.06 19.969L180.274.215c1.414 1.024 5.605 1.401 5.605 1.401s-.092 8.054 5.134 5.885c1.306 1.039 5.605 1.401 5.605 1.401s-17.473 51.766-33.451 68.218l-.101.012c-17.252 2.084-28.642-15.306-27.745-37.477 6.127-4.532 9.936-8.285 10.739-19.686z"/><path stroke="#01050C" stroke-linecap="round" stroke-linejoin="round" d="M146.06 19.969L180.274.215c1.414 1.024 5.605 1.401 5.605 1.401s-.092 8.054 5.134 5.885c1.306 1.039 5.605 1.401 5.605 1.401s-17.473 51.766-33.451 68.218l-.101.012c-17.252 2.084-28.642-15.306-27.745-37.477 6.127-4.532 9.936-8.285 10.739-19.686z"/><path fill="#FFF" d="M151.664 21.37l34.215-19.754c.803 10.474 4.611 9.829 10.739 7.286.899 21.176-10.538 51.797-27.847 69.619l-.101.012c-17.252 2.084-28.642-15.306-27.745-37.477 6.127-4.532 9.936-8.285 10.739-19.686z"/><path stroke="#01050C" stroke-linecap="round" stroke-linejoin="round" d="M151.664 21.37l34.215-19.754c.803 10.474 4.611 9.829 10.739 7.286.899 21.176-10.538 51.797-27.847 69.619l-.101.012c-17.252 2.084-28.642-15.306-27.745-37.477 6.127-4.532 9.936-8.285 10.739-19.686z"/><path stroke="#E01A33" stroke-linecap="round" stroke-linejoin="round" stroke-width="2" d="M185.339 32.843c0 8.69-6.865 19.708-15.321 24.59-8.455 4.882-15.32 1.79-15.32-6.899 0-8.69 6.865-19.709 15.32-24.59"/><path fill="url(#f)" d="M145 30h8v20h-8z" transform="translate(35)"/><path stroke="#01050C" stroke-dasharray="0 6 0 0" stroke-linecap="round" stroke-linejoin="round" stroke-width="2" d="M179.007 18.135c8.772.784 11.875 11.777 6.925 24.533-4.95 12.757-16.089 22.478-24.861 21.695-8.771-.784-11.874-11.777-6.924-24.533"/><path fill="#E01A33" d="M173.604 24.028l-3.565 5.524v-6.933zM166.5 46.823v1.384l-4.522 2.611a6.145 6.145 0 01.441-1.742c.245-.61.728-1.51 1.45-2.701.582-.961.939-1.591 1.07-1.89.178-.41.266-.765.266-1.065 0-.332-.077-.543-.231-.632-.155-.09-.368-.056-.641.102a1.721 1.721 0 00-.643.652c-.159.279-.251.643-.275 1.092l-1.286.593c.077-.864.317-1.591.721-2.181.404-.59.909-1.06 1.515-1.41.664-.384 1.186-.478 1.566-.284.379.195.569.599.569 1.214 0 .35-.054.715-.163 1.094a8.19 8.19 0 01-.516 1.292c-.156.32-.438.813-.845 1.479a34.457 34.457 0 00-.774 1.305 5.605 5.605 0 00-.264.566l2.562-1.479zm3.402-.58v-1.564l-2.755 1.59v-1.304l2.92-6.621 1.084-.626v4.93l.835-.482v1.309l-.835.483v1.564l-1.249.721zm0-2.874v-2.656l-1.547 3.55 1.547-.894zm4.26-7.358v2.858c.417-.803.914-1.371 1.492-1.705.297-.171.565-.262.804-.273.239-.01.418.048.539.177.121.128.204.299.248.514.045.214.067.575.067 1.08v3.303l-1.29.744v-2.974c0-.59-.025-.95-.074-1.081-.049-.131-.135-.207-.259-.229-.124-.022-.279.02-.466.128a1.974 1.974 0 00-.574.512 2.15 2.15 0 00-.37.757c-.078.287-.117.667-.117 1.141v2.82l-1.29.745v-7.772l1.29-.745z"/><path fill="#FFF" d="M291.384 338.919l-8.741.823.946 10.048 8.741-.823z"/><path stroke="#01050C" stroke-linecap="round" stroke-linejoin="round" d="M291.384 338.919l-8.741.823.946 10.048 8.741-.823z"/><path fill="#FFF" d="M301.268 322.943a2.363 2.363 0 012.362 2.361 2.363 2.363 0 01-2.362 2.362 2.363 2.363 0 01-2.362-2.362 2.363 2.363 0 012.362-2.361z"/><path stroke="#01050C" stroke-linecap="round" stroke-linejoin="round" d="M301.268 322.943a2.363 2.363 0 012.362 2.361 2.363 2.363 0 01-2.362 2.362 2.363 2.363 0 01-2.362-2.362 2.363 2.363 0 012.362-2.361z"/><path fill="#FFF" d="M278.272 351.43l-.467-26.072 5.424 3.497-7.571-7.741-.765-7.997 1.113-2.612a5.021 5.021 0 013.461-2.917l7.85-1.863a7.202 7.202 0 018.271 4.142l2.622 6.042 3.286 6.287-3.286.938-3.41-3.332-.297-4.666a.223.223 0 00-.445.003l-.871 16.095 1.613 19.453.77 15.623a3.439 3.439 0 01-3.42 3.78 3.439 3.439 0 01-3.437-3.438l.001-.11-.903-14.924-1.613-11.244-1.071 29.323a3.439 3.439 0 01-3.418 3.795 3.439 3.439 0 01-3.437-3.436v-18.627z"/><g transform="translate(274 305.343)"><mask id="h" fill="#fff"><use xlink:href="#g"/></mask><path fill="#EFF4F7" d="M.893 57.633l5.456 7.396a1.649 1.649 0 001.224.667 2.012 2.012 0 002.141-2.082l-.585-16.249-6.1-.156 7.81-36.15 3.356 10.287 2.235 5.427-4.232 8.258 1.997 34.238-11.166 1.246L.893 57.633z" mask="url(#h)"/><path fill="#EFF4F7" d="M10.251 53.58l5.327 7.221c.371.503.944.816 1.568.856h.002a1.885 1.885 0 002.004-1.88V45.893l-6.324-.053c-3.497-11.26-.96-24.228 7.369-38.835l3.356 10.288 2.236 5.427-4.233 8.258 1.997 34.238-11.166 1.246-2.136-12.882z" mask="url(#h)"/><path fill="#D1D9E0" mask="url(#h)" d="M3.557 22.41l7.244 4.948 9.678-2.783-.573-6.011-16.349-.449z"/></g><path stroke="#01050C" stroke-linecap="round" stroke-linejoin="round" d="M278.272 351.43l-.467-26.072 5.424 3.497-7.571-7.741-.765-7.997 1.113-2.612a5.021 5.021 0 013.461-2.917l7.85-1.863a7.202 7.202 0 018.271 4.142l2.622 6.042 3.286 6.287-3.286.938-3.41-3.332-.297-4.666a.223.223 0 00-.445.003l-.871 16.095 1.613 19.453.77 15.623h0a3.439 3.439 0 01-3.42 3.78 3.439 3.439 0 01-3.437-3.438l.001-.11-.903-14.924-1.613-11.244-1.071 29.323a3.439 3.439 0 01-3.418 3.795 3.439 3.439 0 01-3.437-3.436v-18.627z"/><path fill="#FFF" d="M283.583 289.531a6.714 6.714 0 016.711 6.711 6.714 6.714 0 01-6.711 6.711 6.714 6.714 0 01-6.71-6.711 6.714 6.714 0 016.71-6.711z"/><path stroke="#01050C" stroke-linecap="round" stroke-linejoin="round" d="M283.583 289.531a6.714 6.714 0 016.711 6.711 6.714 6.714 0 01-6.711 6.711 6.714 6.714 0 01-6.71-6.711 6.714 6.714 0 016.71-6.711z"/><path fill="#FFF" d="M277.459 322.956l.635 8.29-2.871 18.624c2.152 1.242 5.607 1.255 8.643.523l1.844-33.947a7.02 7.02 0 00-.52-3.058l-2.686-6.521"/><g transform="translate(275 306.343)"><mask id="j" fill="#fff"><use xlink:href="#i"/></mask><path fill="#EFF4F7" mask="url(#j)" d="M2.557 21.41l7.244 4.948 9.678-2.783-.573-6.011-16.349-.449z"/></g><path stroke="#01050C" stroke-linecap="round" stroke-linejoin="round" d="M277.459 322.956l.635 8.29-2.871 18.624c2.152 1.242 5.607 1.255 8.643.523l1.844-33.947a7.02 7.02 0 00-.52-3.058l-2.686-6.521"/><path fill="#FFF" d="M288.429 305.551l-.864 8.152c-.05.47-.052.946-.006 1.418l3.305 34.122c2.85.571 5.126-.002 7.258-1.376-1.359-5.215-3.805-18.842-3.805-18.842l-.603-7.517"/><g transform="translate(287 305.343)"><mask id="l" fill="#fff"><use xlink:href="#k"/></mask><path fill="#EFF4F7" mask="url(#l)" d="M-9.443 22.41l7.244 4.948 9.678-2.783-.573-6.011-16.349-.449z"/></g><path stroke="#01050C" stroke-linecap="round" stroke-linejoin="round" d="M288.429 305.551l-.864 8.152c-.05.47-.052.946-.006 1.418l3.305 34.122c2.85.571 5.126-.002 7.258-1.376-1.359-5.215-3.805-18.842-3.805-18.842l-.603-7.517"/><path fill="#FFF" d="M277.873 319.65l8.842 5.903-3.486 3.302-8.555-4.939a3.749 3.749 0 01-1.71-4.344l2.212-7.222"/><path stroke="#01050C" stroke-linecap="round" stroke-linejoin="round" d="M277.873 319.65l8.842 5.903-3.486 3.302-8.555-4.939a3.749 3.749 0 01-1.71-4.344l2.212-7.222"/><path fill="#EFF4F7" d="M289.654 315.71l15.686-4.322-3.844 13.257-15.686 4.337z"/><path stroke="#01050C" stroke-linecap="round" stroke-linejoin="round" d="M289.654 315.71l15.686-4.322-3.844 13.257-15.686 4.337z"/><path fill="#FFF" d="M284.952 324.762a2.363 2.363 0 012.362 2.361 2.363 2.363 0 01-2.362 2.362 2.363 2.363 0 01-2.362-2.362 2.363 2.363 0 012.362-2.361z"/><path stroke="#01050C" stroke-linecap="round" stroke-linejoin="round" d="M284.952 324.762a2.363 2.363 0 012.362 2.361 2.363 2.363 0 01-2.362 2.362 2.363 2.363 0 01-2.362-2.362 2.363 2.363 0 012.362-2.361zM279.272 334.054l2.197-1.269M293.469 333.054l-2.197-1.269M279.554 316.718l-.775 2.851"/><path fill="#FFF" d="M284.267 293.298a1.79 1.79 0 11-.001 3.577 1.79 1.79 0 01.001-3.577z"/><path stroke="#01050C" stroke-linecap="round" stroke-linejoin="round" d="M284.267 293.298a1.79 1.79 0 11-.001 3.577 1.79 1.79 0 01.001-3.577z"/><path fill="#FFF" d="M289.148 291.983a1.79 1.79 0 11-1.789 1.79c0-.988.802-1.79 1.789-1.79z"/><path stroke="#01050C" stroke-linecap="round" stroke-linejoin="round" d="M289.148 291.983a1.79 1.79 0 11-1.789 1.79c0-.988.802-1.79 1.789-1.79zM282.126 295.641l-3.12.975M286.057 294.331l1.302-.296"/><path fill="#FFF" d="M185.353 154.591l.07 1.97-3.244-9.993a8.718 8.718 0 01-.343-3.902l1.19-8.544a6.786 6.786 0 016.658-5.85l6.086-.058a8.477 8.477 0 014.572 1.289l7.274 4.55c.53.331 1.135.525 1.759.563l8.192.497h.015a2.363 2.363 0 01-.015 4.724l-8.218.71a3.746 3.746 0 01-1.622-.218l-7.124-2.636a1.098 1.098 0 00-1.475 1.057l.379 13.977.849 17.516-.849 17.729.001.073a3.439 3.439 0 01-3.437 3.437 3.439 3.439 0 01-3.437-3.437c0-.041 0-.081.002-.122h-.002v-.898a3.439 3.439 0 01-5.806-2.453v-.037V169.041l-1.405-13.136-.07-1.314-.573-16.249v5.416l.573 10.833z"/><path stroke="#01050C" stroke-linecap="round" stroke-linejoin="round" d="M185.353 154.591l.07 1.97-3.244-9.993a8.718 8.718 0 01-.343-3.902l1.19-8.544a6.786 6.786 0 016.658-5.85l6.086-.058a8.477 8.477 0 014.572 1.289l7.274 4.55c.53.331 1.135.525 1.759.563l8.192.497h.015a2.363 2.363 0 01-.015 4.724l-8.218.71a3.746 3.746 0 01-1.622-.218l-7.124-2.636a1.098 1.098 0 00-1.475 1.057l.379 13.977.849 17.516-.849 17.729h0l.001.073a3.439 3.439 0 01-3.437 3.437 3.439 3.439 0 01-3.437-3.437c0-.041 0-.081.002-.122h-.002v-.898a3.439 3.439 0 01-5.806-2.453v-.037V169.041l-1.405-13.136-.07-1.314-.573-16.249v5.416l.573 10.833z"/><path fill="#FFF" d="M191.922 110.936a6.714 6.714 0 016.711 6.711 6.714 6.714 0 01-6.711 6.711 6.714 6.714 0 01-6.71-6.711 6.714 6.714 0 016.71-6.711z"/><path stroke="#01050C" stroke-linecap="round" stroke-linejoin="round" d="M191.922 110.936a6.714 6.714 0 016.711 6.711 6.714 6.714 0 01-6.711 6.711 6.714 6.714 0 01-6.71-6.711 6.714 6.714 0 016.71-6.711zM190.771 156.634l.854 3.095 1.009 10.694v16.787"/><path fill="#FFF" d="M351.721 164.939a2.36 2.36 0 113.718 2.846l-7.032 8.777a2.591 2.591 0 01-3.201.688l-5.69-2.903v15.815l.848 17.516-.848 17.729.001.073a3.44 3.44 0 01-3.437 3.437 3.439 3.439 0 01-3.437-3.437c0-.04 0-.081.002-.122h-.002v-2.704a3.439 3.439 0 01-6.806-.647l-.405-28.667-.557-7.91-.782-13.714a4.892 4.892 0 014.413-5.147l7.193-.696a6.385 6.385 0 014.569 1.34l4.68 3.689c.678.534 1.66.422 2.199-.252l4.574-5.711z"/><path stroke="#01050C" stroke-linecap="round" stroke-linejoin="round" d="M351.721 164.939a2.36 2.36 0 113.718 2.846l-7.032 8.777a2.591 2.591 0 01-3.201.688l-5.69-2.903v15.815l.848 17.516-.848 17.729h0l.001.073a3.44 3.44 0 01-3.437 3.437 3.439 3.439 0 01-3.437-3.437c0-.04 0-.081.002-.122h-.002v-2.704a3.439 3.439 0 01-6.806-.647h0l-.405-28.667-.557-7.91-.782-13.714a4.892 4.892 0 014.413-5.147l7.193-.696a6.385 6.385 0 014.569 1.34l4.68 3.689c.678.534 1.66.422 2.199-.252l4.574-5.711z"/><path stroke="#01050C" stroke-linecap="round" stroke-linejoin="round" d="M325.184 189.814l-4.495-7.897a5.155 5.155 0 01-.098-4.918l3.95-7.632"/><path fill="#FFF" d="M331.931 148.371a6.714 6.714 0 016.711 6.711 6.714 6.714 0 01-6.711 6.711 6.714 6.714 0 01-6.71-6.711 6.714 6.714 0 016.71-6.711z"/><path stroke="#01050C" stroke-linecap="round" stroke-linejoin="round" d="M331.931 148.371a6.714 6.714 0 016.711 6.711 6.714 6.714 0 01-6.711 6.711 6.714 6.714 0 01-6.71-6.711 6.714 6.714 0 016.71-6.711zM338.382 173.638l1.944 1.122M331.655 193.974l.988 13.884v16.787"/><path fill="#B1BBC9" d="M106.412 192.729c2.84-1.516 5.867-1.516 8.707 0l65.825 34.951v5.084l-.01-.002a3.237 3.237 0 01-1.618 2.671l-28.552 16.484a8.706 8.706 0 01-8.708 0L77.86 214.853a3.233 3.233 0 01-1.607-2.497l-.006-.001v-.086l-.015-.236.014-.215-.014-4.813 4.063.802 26.117-15.078z"/><path stroke="#01050C" stroke-linecap="round" stroke-linejoin="round" d="M106.412 192.729c2.84-1.516 5.867-1.516 8.707 0l65.825 34.951v5.084l-.01-.002a3.237 3.237 0 01-1.618 2.671l-28.552 16.484a8.706 8.706 0 01-8.708 0L77.86 214.853a3.233 3.233 0 01-1.607-2.497l-.006-.001v-.086l-.015-.236.014-.215-.014-4.813 4.063.802 26.117-15.078z"/><path fill="#FFF" d="M115.119 187.729a8.704 8.704 0 00-8.707 0L77.86 204.213a3.256 3.256 0 000 5.64l64.196 37.064a8.706 8.706 0 008.708 0l28.552-16.484a3.258 3.258 0 000-5.64l-64.197-37.064z"/><path stroke="#01050C" stroke-linecap="round" stroke-linejoin="round" d="M115.119 187.729a8.704 8.704 0 00-8.707 0L77.86 204.213a3.256 3.256 0 000 5.64l64.196 37.064a8.706 8.706 0 008.708 0l28.552-16.484a3.258 3.258 0 000-5.64l-64.197-37.064z"/><path fill="#EFF4F7" d="M118.497 193.022a3.259 3.259 0 00-3.256 0l-28.286 16.331a1.53 1.53 0 000 2.65l51.653 29.822a3.259 3.259 0 003.256 0l28.286-16.331a1.53 1.53 0 000-2.65l-51.653-29.822z"/><path stroke="#01050C" stroke-linecap="round" stroke-linejoin="round" d="M118.497 193.022a3.259 3.259 0 00-3.256 0l-28.286 16.331a1.53 1.53 0 000 2.65l51.653 29.822a3.259 3.259 0 003.256 0l28.286-16.331a1.53 1.53 0 000-2.65l-51.653-29.822z"/><path stroke="#D1D9E0" stroke-linecap="round" stroke-linejoin="round" stroke-width="2" d="M102.987 214.635l20.711-11.958M113.922 220.948l20.711-11.958M119.593 224.222l10.599-6.119M134.184 215.798l6.12-3.534M97.143 211.26l20.711-11.957M108.831 218.009l15.808-9.127M130.927 230.981l20.711-11.957M162.124 232.144l6.12-3.533M125.083 227.607l20.711-11.957M136.771 234.355l15.808-9.126"/><path fill="#3F6C9F" fill-opacity=".12" d="M121.293 208.483c7.422 1.231 13.068 5.198 12.599 8.854-.469 3.656-6.876 5.625-14.299 4.395-7.422-1.231-13.068-5.198-12.599-8.854.469-3.656 6.876-5.625 14.299-4.395z"/><path fill="#B1BBC9" d="M106.457 193.123c-.326-.189-.768-.294-1.23-.294-.461 0-.903.105-1.229.294l-9.881 5.704c-.326.188-.509.444-.509.71 0 .266.183.522.509.71h.001c.326.189.768.295 1.23.295.461 0 .903-.106 1.229-.295l9.881-5.704c.326-.188.509-.444.509-.71 0-.266-.183-.522-.509-.71h-.001z"/><path stroke="#01050C" stroke-linecap="round" stroke-linejoin="round" d="M106.457 193.123c-.326-.189-.768-.294-1.23-.294-.461 0-.903.105-1.229.294l-9.881 5.704c-.326.188-.509.444-.509.71 0 .266.183.522.509.71h.001c.326.189.768.295 1.23.295.461 0 .903-.106 1.229-.295l9.881-5.704c.326-.188.509-.444.509-.71 0-.266-.183-.522-.509-.71h-.001z"/><path fill="#B1BBC9" d="M89.248 201.638c.679-.392 1.781-.392 2.46 0s.679 1.029 0 1.421c-.679.392-1.781.392-2.46 0s-.679-1.029 0-1.421z"/><path stroke="#01050C" stroke-linecap="round" stroke-linejoin="round" d="M89.248 201.638c.679-.392 1.781-.392 2.46 0s.679 1.029 0 1.421c-.679.392-1.781.392-2.46 0s-.679-1.029 0-1.421z"/><path fill="#B1BBC9" d="M169.244 238.517a.327.327 0 00-.491-.283l-5.268 3.041a1.07 1.07 0 00-.535.926v.438a.327.327 0 00.491.283l5.268-3.041a1.07 1.07 0 00.535-.926v-.438z"/><path stroke="#01050C" stroke-linecap="round" stroke-linejoin="round" d="M169.244 238.517a.327.327 0 00-.491-.283l-5.268 3.041a1.07 1.07 0 00-.535.926v.438a.327.327 0 00.491.283l5.268-3.041a1.07 1.07 0 00.535-.926v-.438z"/><path fill="#B1BBC9" d="M164.607 232.458a2.786 2.786 0 00-2.787 0l-6.904 3.986a.923.923 0 000 1.6l1.617.933a2.784 2.784 0 002.786 0l6.904-3.986a.923.923 0 000-1.6l-1.616-.933z"/><path stroke="#01050C" stroke-linecap="round" stroke-linejoin="round" d="M164.607 232.458a2.786 2.786 0 00-2.787 0l-6.904 3.986a.923.923 0 000 1.6l1.617.933a2.784 2.784 0 002.786 0l6.904-3.986a.923.923 0 000-1.6l-1.616-.933z"/><path fill="#FFF" d="M130.509 197.405l.467-26.07.372-9.102 1.482-2.386-4.686-6.541-6.16-1.471a7.203 7.203 0 00-8.497 4.697l-3.208 9.482 2.892 5.801 2.089-.77-.214-3.94-1.066-1.326c.099-1.556.193-3.111.298-4.666.02-.303.384-.239.444.002l.324 5.99 2.493 3.101-2.279.839.333 6.165-1.613 19.453-.769 15.623-.017.342a3.439 3.439 0 003.437 3.437 3.439 3.439 0 003.437-3.437l-.004-.075c.798-13.17.649-13.17 2.519-26.203l1.07 29.326a3.439 3.439 0 003.419 3.793 3.44 3.44 0 003.437-3.437v-18.627z"/><path stroke="#01050C" stroke-linecap="round" stroke-linejoin="round" d="M130.509 197.405l.467-26.07.372-9.102 1.482-2.386-4.686-6.541-6.16-1.471a7.203 7.203 0 00-8.497 4.697l-3.208 9.482 2.892 5.801 2.089-.77-.214-3.94-1.066-1.326c.099-1.556.193-3.111.298-4.666.02-.303.384-.239.444.002l.324 5.99 2.493 3.101-2.279.839.333 6.165-1.613 19.453-.769 15.623h0l-.017.342a3.439 3.439 0 003.437 3.437 3.439 3.439 0 003.437-3.437l-.004-.075c.798-13.17.649-13.17 2.519-26.203l1.07 29.326a3.439 3.439 0 003.419 3.793 3.44 3.44 0 003.437-3.437v-18.627z"/><path fill="#FFF" d="M122.353 135.445a6.714 6.714 0 00-6.711 6.711 6.714 6.714 0 006.711 6.711 6.714 6.714 0 006.711-6.711 6.714 6.714 0 00-6.711-6.711z"/><path stroke="#01050C" stroke-linecap="round" stroke-linejoin="round" d="M122.353 135.445a6.714 6.714 0 00-6.711 6.711 6.714 6.714 0 006.711 6.711 6.714 6.714 0 006.711-6.711 6.714 6.714 0 00-6.711-6.711z"/><path fill="#FFF" d="M127.283 153.09s1.051.277 2.048.6a6.945 6.945 0 013.529 2.592l6.153 8.679c.673.949.691 2.215.046 3.184l-5.444 8.165a2.358 2.358 0 01-2.089 1.259 2.363 2.363 0 01-2.045-3.543c.071-.122.153-.238.244-.345l3.55-5.032a2.81 2.81 0 00-.166-3.452l-3.315-3.856"/><path stroke="#01050C" stroke-linecap="round" stroke-linejoin="round" d="M127.283 153.09s1.051.277 2.048.6a6.945 6.945 0 013.529 2.592l6.153 8.679c.673.949.691 2.215.046 3.184l-5.444 8.165a2.408 2.408 0 01-.265.397h0a2.363 2.363 0 01-3.869-2.681h0c.071-.122.153-.238.244-.345l3.55-5.032a2.81 2.81 0 00-.166-3.452l-3.315-3.856"/><path fill="#EFF4F7" d="M117.094 160.046l-10.014-.782 3.844 13.258 10.014.797z"/><path stroke="#01050C" stroke-linecap="round" stroke-linejoin="round" d="M117.094 160.046l-10.014-.782 3.844 13.258 10.014.797z"/><path fill="#FFF" d="M108.617 165.432a2.362 2.362 0 000 4.723 2.362 2.362 0 000-4.723z"/><path stroke="#01050C" stroke-linecap="round" stroke-linejoin="round" d="M108.617 165.432a2.362 2.362 0 000 4.723 2.362 2.362 0 000-4.723zm97.388 93.329c13.117-2.794 25.418-7.229 35.946-13.307 5.298-3.059 9.876-6.378 13.733-9.885"/><path fill="#B1BBC9" d="M261.323 227.823c-1.024.591-1.855 2.031-1.855 3.213s.831 1.662 1.855 1.071 1.855-2.031 1.855-3.213-.831-1.662-1.855-1.071z"/><path stroke="#01050C" stroke-linecap="round" stroke-linejoin="round" d="M261.323 227.823c-1.024.591-1.855 2.031-1.855 3.213s.831 1.662 1.855 1.071 1.855-2.031 1.855-3.213-.831-1.662-1.855-1.071zm-55.318 62.097c13.117-2.793 25.418-7.229 35.946-13.307 5.298-3.059 9.876-6.377 13.733-9.885"/><path fill="#B1BBC9" d="M261.323 258.982c-1.024.591-1.855 2.031-1.855 3.213s.831 1.662 1.855 1.071 1.855-2.031 1.855-3.213-.831-1.662-1.855-1.071z"/><path stroke="#01050C" stroke-linecap="round" stroke-linejoin="round" d="M261.323 258.982c-1.024.591-1.855 2.031-1.855 3.213s.831 1.662 1.855 1.071 1.855-2.031 1.855-3.213-.831-1.662-1.855-1.071zm-55.318 62.097c13.117-2.793 25.418-7.229 35.946-13.307 5.298-3.059 9.876-6.377 13.733-9.885"/><path fill="#B1BBC9" d="M261.323 290.141c-1.024.591-1.855 2.031-1.855 3.213s.831 1.662 1.855 1.071 1.855-2.031 1.855-3.213-.831-1.662-1.855-1.071z"/><path stroke="#01050C" stroke-linecap="round" stroke-linejoin="round" d="M261.323 290.141c-1.024.591-1.855 2.031-1.855 3.213s.831 1.662 1.855 1.071 1.855-2.031 1.855-3.213-.831-1.662-1.855-1.071z"/><path fill="#B1BBC9" d="M84.046 228.588c1.024.592 1.855 2.031 1.855 3.213 0 1.183-.831 1.662-1.855 1.071s-1.855-2.03-1.855-3.213c0-1.182.831-1.662 1.855-1.071z"/><path stroke="#01050C" stroke-linecap="round" stroke-linejoin="round" d="M84.046 228.588c1.024.592 1.855 2.031 1.855 3.213 0 1.183-.831 1.662-1.855 1.071s-1.855-2.03-1.855-3.213c0-1.182.831-1.662 1.855-1.071z"/><path fill="#B1BBC9" d="M84.046 259.748c1.024.591 1.855 2.03 1.855 3.213 0 1.182-.831 1.662-1.855 1.071-1.024-.592-1.855-2.031-1.855-3.213 0-1.183.831-1.662 1.855-1.071z"/><path stroke="#01050C" stroke-linecap="round" stroke-linejoin="round" d="M84.046 259.748c1.024.591 1.855 2.03 1.855 3.213 0 1.182-.831 1.662-1.855 1.071-1.024-.592-1.855-2.031-1.855-3.213 0-1.183.831-1.662 1.855-1.071z"/><path fill="#B1BBC9" d="M84.046 290.907c1.024.591 1.855 2.031 1.855 3.213s-.831 1.662-1.855 1.071-1.855-2.031-1.855-3.213.831-1.662 1.855-1.071z"/><path stroke="#01050C" stroke-linecap="round" stroke-linejoin="round" d="M84.046 290.907c1.024.591 1.855 2.031 1.855 3.213s-.831 1.662-1.855 1.071-1.855-2.031-1.855-3.213.831-1.662 1.855-1.071z"/><path stroke="#B1BBC9" stroke-linecap="round" stroke-linejoin="round" d="M362.428 267.64l17.397-10.045M362.428 273.277l13.279-7.666M374.549 299.247l8.176-4.458M320.986 283.711l6.281-3.626M325.839 286.512l9.086-5.245M331.038 277.907l5.481-3.164M331.038 277.907l5.481-3.164M346.057 328.797l5.481-3.164M327.267 317.948l5.48-3.164"/><path fill="#FFF" d="M324.801 170.092l-1.233 2.233-.749 6.475 3.055-2.725z"/><path stroke="#05122C" stroke-linecap="round" stroke-linejoin="round" d="M324.376 176.666l.171 2.998"/><path fill="#B1BBC9" d="M296.739 318.387c.657.138 1.021 1.057.813 2.05-.209.992-.913 1.686-1.57 1.548-.658-.139-1.022-1.057-.813-2.05.209-.993.912-1.686 1.57-1.548z"/><path stroke="#5A6D83" stroke-linecap="round" stroke-linejoin="round" stroke-width=".9" d="M169.316 30.682v2.259M169.316 54.39v-2.997M181.831 35.31l-1.956 1.13M157.602 49.299l2.595-1.498"/><path stroke="#E01A33" stroke-dasharray="0 3 0 0" stroke-linecap="round" stroke-linejoin="round" d="M168.586 86.104v17.158"/></g></svg>