<?xml version="1.0" encoding="UTF-8" standalone="no"?>
<svg
   width="1121"
   height="1194"
   viewBox="0 0 1121 1194"
   fill="none"
   version="1.1"
   id="svg75"
   sodipodi:docname="ApplicationHeadlineHero.svg"
   inkscape:version="1.1.2 (b8e25be833, 2022-02-05)"
   xmlns:inkscape="http://www.inkscape.org/namespaces/inkscape"
   xmlns:sodipodi="http://sodipodi.sourceforge.net/DTD/sodipodi-0.dtd"
   xmlns="http://www.w3.org/2000/svg"
   xmlns:svg="http://www.w3.org/2000/svg">
  <sodipodi:namedview
     id="namedview77"
     pagecolor="#505050"
     bordercolor="#eeeeee"
     borderopacity="1"
     inkscape:pageshadow="0"
     inkscape:pageopacity="0"
     inkscape:pagecheckerboard="0"
     showgrid="false"
     inkscape:zoom="0.31387487"
     inkscape:cx="401.43386"
     inkscape:cy="584.62788"
     inkscape:window-width="1366"
     inkscape:window-height="719"
     inkscape:window-x="-8"
     inkscape:window-y="-8"
     inkscape:window-maximized="1"
     inkscape:current-layer="g68" />
  <g
     clip-path="url(#clip0_53_421)"
     id="g68">
    <path
       d="M0 311.979L59.5478 346.413L59.6416 274.167L0.0937761 239.732L0 311.979Z"
       fill="white"
       id="path2" />
    <path
       d="M468.044 510.033L404.464 473.347L404.651 545.78L467.95 582.467L468.044 510.033Z"
       fill="white"
       id="path4" />
    <path
       d="M9.10229 223.308L68.275 257.46L131.668 220.962L72.5887 186.809L9.10229 223.308Z"
       fill="white"
       id="path6" />
    <path
       d="M540.438 456.844L477.42 420.44L412.34 456.187L477.045 493.53L540.438 456.844Z"
       fill="white"
       id="path8" />
    <path
       d="M1120.99 311.979L1120.9 239.732L1063.98 272.665L1063.88 345.005L1120.99 311.979Z"
       fill="white"
       id="path10" />
    <path
       d="M715.144 546.534L715.332 474.006L652.97 510.035L653.064 582.469L715.144 546.534Z"
       fill="white"
       id="path12" />
    <path
       d="M643.024 420.807L580.569 456.836L643.962 493.522L708.011 456.555L643.024 420.807Z"
       fill="white"
       id="path14" />
    <path
       d="M1054.05 256.71L1111.82 223.308L1048.42 186.809L990.564 220.211L1054.05 256.71Z"
       fill="white"
       id="path16" />
    <path
       d="M633.649 1156.59V1089.98L571.1 1126.1V1192.62L633.649 1156.59Z"
       fill="white"
       id="path18" />
    <path
       d="M633.745 684.936V615.88L571.008 652.003V721.06L633.745 684.936Z"
       fill="white"
       id="path20" />
    <path
       d="M488.954 1090.25L489.048 1156.31L552.347 1192.99V1126.85L488.954 1090.25Z"
       fill="white"
       id="path22" />
    <path
       d="M488.754 615.88L488.848 684.655L552.24 721.716V652.473L488.754 615.88Z"
       fill="white"
       id="path24" />
    <path
       d="M231.728 351.376L381.02 266.275L556.381 165.131C557.807 164.307 559.424 163.874 561.07 163.874C562.716 163.874 564.333 164.307 565.759 165.131L888.536 351L952.867 315.253L561.539 90.0698L170.023 315.44L231.728 351.376Z"
       fill="#EF3E47"
       id="path26"
       style="fill:#bf5249;fill-opacity:1" />
    <path
       d="M898.657 736.622L949.859 765.99L962.519 773.214L961.863 331.856L899.501 368.073L898.657 736.622Z"
       fill="#EF3E47"
       id="path28"
       style="fill:#bf5249;fill-opacity:1" />
    <path
       d="M223.181 500.374L221.493 367.328L160.257 331.581L159.695 773.22L223.556 736.441L223.181 500.374Z"
       fill="#EF3E47"
       id="path30"
       style="fill:#bf5249;fill-opacity:1" />
    <path
       d="M889.279 752.867L566.033 939.581C564.607 940.405 562.99 940.838 561.344 940.838C559.698 940.838 558.081 940.405 556.655 939.581L232.94 752.68L168.797 789.459L381.857 912.09L482.291 969.981L484.26 970.825L561.156 1015.39L638.334 970.825H639.178L944.326 794.526L953.047 789.459L889.279 752.867Z"
       fill="#EF3E47"
       id="path32"
       style="fill:#bf5249;fill-opacity:1" />
    <path
       d="M622.677 599.168L560.504 563.233L499.174 598.699L561.629 634.635L622.677 599.168Z"
       fill="white"
       id="path34" />
    <path
       d="M487.728 510.6L488.009 583.409L550.933 547.099L551.12 473.914L487.728 510.6Z"
       fill="white"
       id="path36" />
    <path
       d="M632.985 583.409L633.266 510.6L569.874 473.914L570.061 547.099L632.985 583.409Z"
       fill="white"
       id="path38" />
    <path
       d="M78.3968 273.316L77.3652 831.394L551.685 1104.8V1032.09L476.008 988.271L474.32 987.521L145.634 797.523C144.186 796.708 142.98 795.523 142.139 794.089C141.299 792.654 140.855 791.022 140.852 789.36L141.602 315.444C141.612 313.806 142.05 312.2 142.872 310.784C143.695 309.369 144.873 308.193 146.291 307.375L552.529 72.8091V20.5479V0L78.3968 273.316Z"
       fill="#EF3E47"
       id="path40"
       style="fill:#bf5249;fill-opacity:1" />
    <path
       d="M1044.57 831.3L1045.23 273.316L571.002 0V72.9968L975.833 306.905C977.264 307.732 978.452 308.922 979.275 310.356C980.098 311.789 980.529 313.415 980.522 315.068C980.613 315.785 980.613 316.51 980.522 317.226L981.272 789.36C981.279 791.013 980.849 792.639 980.025 794.072C979.202 795.506 978.014 796.696 976.583 797.523L647.804 987.051H646.867L570.533 1032.09V1105.27L1044.57 831.3Z"
       fill="#EF3E47"
       id="path42"
       style="fill:#bf5249;fill-opacity:1" />
    <path
       d="M332.246 410.025L395.076 444.365L457.906 409.743L397.139 373.527L332.246 410.025Z"
       fill="#EF3E47"
       id="path44"
       style="fill:#bf5249;fill-opacity:1" />
    <path
       d="M385.694 460.598L322.301 425.882V499.254L382.599 531.906L385.788 533.689L385.694 460.598Z"
       fill="#EF3E47"
       id="path46"
       style="fill:#bf5249;fill-opacity:1" />
    <path
       d="M642.932 701.357L565.66 745.83C564.235 746.654 562.618 747.087 560.971 747.087C559.325 747.087 557.708 746.654 556.283 745.83L479.761 701.075L415.618 740.107L533.12 808.037L561.253 824.269L693.29 748.082L706.981 740.107L642.932 701.357Z"
       fill="#EF3E47"
       id="path48"
       style="fill:#bf5249;fill-opacity:1" />
    <path
       d="M303.642 408.712C303.803 407.73 304.12 406.779 304.58 405.897C305.167 404.948 305.894 404.094 306.737 403.363L307.393 402.894L308.143 402.238L387.759 357.576V284.392L240.156 368.835L242.219 536.691L303.361 500.286V410.119C303.361 410.119 303.361 409.65 303.361 409.462C303.361 409.275 303.642 408.993 303.642 408.712Z"
       fill="#EF3E47"
       id="path50"
       style="fill:#bf5249;fill-opacity:1" />
    <path
       d="M570.716 913.685L716.069 829.71V756.62L570.716 840.5V913.685Z"
       fill="#EF3E47"
       id="path52"
       style="fill:#bf5249;fill-opacity:1" />
    <path
       d="M551.961 913.685V840.5L406.608 756.62V829.71L551.961 913.685Z"
       fill="#EF3E47"
       id="path54"
       style="fill:#bf5249;fill-opacity:1" />
    <path
       d="M313.117 515.677L251.694 552.175L314.993 588.673L376.604 550.111L313.117 515.677Z"
       fill="#EF3E47"
       id="path56"
       style="fill:#bf5249;fill-opacity:1" />
    <path
       d="M406.608 357.389L467.375 393.606V320.609L406.608 284.392V357.389Z"
       fill="#EF3E47"
       id="path58"
       style="fill:#bf5249;fill-opacity:1" />
    <path
       d="M797.47 499.254V425.882L734.078 460.598L733.89 533.689L737.172 531.906L797.47 499.254Z"
       fill="#EF3E47"
       id="path60"
       style="fill:#bf5249;fill-opacity:1" />
    <path
       d="M724.703 444.365L787.533 410.025L722.639 373.527L661.873 409.743L724.703 444.365Z"
       fill="#EF3E47"
       id="path62"
       style="fill:#bf5249;fill-opacity:1" />
    <path
       d="M867.994 552.175L806.664 515.677L743.084 550.111L804.695 588.673L867.994 552.175Z"
       fill="#EF3E47"
       id="path64"
       style="fill:#bf5249;fill-opacity:1" />
    <path
       d="M652.403 393.606L713.076 357.389V284.392L652.403 320.609V393.606Z"
       fill="#EF3E47"
       id="path66"
       style="fill:#bf5249;fill-opacity:1" />
  </g>
  <defs
     id="defs73">
    <clipPath
       id="clip0_53_421">
      <rect
         width="1121"
         height="1193"
         fill="white"
         transform="translate(0 0.486328)"
         id="rect70" />
    </clipPath>
  </defs>
</svg>
