<svg width="1158" height="1110" viewBox="0 0 1158 1110" fill="none" xmlns="http://www.w3.org/2000/svg">
<g clip-path="url(#clip0_49_3594)">
<path d="M231.721 1012.96L232.377 1025.7L232.846 1109.39L324.556 1057.94L323.337 961.32L231.721 1012.96Z" fill="#EF3E47"/>
<path d="M311.705 942.31L219.526 890.393L128.004 941.841L220.183 993.852L222.621 992.446L311.705 942.31Z" fill="#EF3E47"/>
<path d="M210.232 1109.48L210.138 1090.37L209.013 1013.15L116.74 961.137L117.866 1057.47L210.232 1109.48Z" fill="#EF3E47"/>
<path d="M767.818 882.892L768.381 895.543L768.85 979.322L860.653 927.874L859.434 831.256L767.818 882.892Z" fill="#EF3E47"/>
<path d="M746.331 979.42L746.238 960.303L745.018 883.083L652.746 831.072L653.871 927.409L746.331 979.42Z" fill="#EF3E47"/>
<path d="M1037.41 788.983L1036.66 725.445L945.328 778.112L945.703 840.525L1037.41 788.983Z" fill="white"/>
<path d="M923.012 821.513L922.544 791.244L879.596 816.078L923.106 840.537L923.012 821.513Z" fill="white"/>
<path d="M508.343 860.492L507.968 825.912L416.445 878.86L416.633 911.941L508.343 860.492Z" fill="white"/>
<path d="M436.603 708.492L403.313 687.594L368.242 708.492L402.751 727.516L436.603 708.492Z" fill="white"/>
<path d="M394.04 912.029L393.759 880.26L301.299 826.938L301.674 860.018L394.04 912.029Z" fill="white"/>
<path d="M744.187 420.693L658.479 470.174L696.269 492.009L744.281 464.176L744.187 420.693Z" fill="white"/>
<path d="M921.605 566.6L921.23 523.211L835.896 572.504L873.499 594.433L921.605 566.6Z" fill="white"/>
<path d="M745.302 668.385L745.114 624.996L659.688 674.383L697.29 696.031L745.302 668.385Z" fill="white"/>
<path d="M414.377 815.892L414.565 859.469L558.318 776.251L520.621 754.51L414.377 815.892Z" fill="white"/>
<path d="M567.609 565.864V522.662L482.088 571.955L519.878 593.697L567.609 565.864Z" fill="white"/>
<path d="M343.591 695.466L391.697 667.727V624.244L305.988 673.631L343.591 695.466Z" fill="white"/>
<path d="M166.357 592.943L213.993 565.204L214.087 522.002L128.754 571.201L166.357 592.943Z" fill="white"/>
<path d="M0 589.762L0.187546 632.963L393.095 859.468L392.908 815.891L0 589.762Z" fill="white"/>
<path d="M851.46 470.64L765.658 420.785L765.752 464.174L814.139 492.194L851.46 470.64Z" fill="white"/>
<path d="M942.691 523.303L943.067 566.504L991.453 594.431L1028.68 572.971L942.691 523.303Z" fill="white"/>
<path d="M766.684 625.088L766.871 668.383L815.258 696.31L852.486 674.756L766.684 625.088Z" fill="white"/>
<path d="M675.167 572.424L589.084 522.662V565.864L637.846 593.978L675.167 572.424Z" fill="white"/>
<path d="M235.553 522.002L235.459 565.204L284.127 593.224L321.449 571.764L235.553 522.002Z" fill="white"/>
<path d="M1158.01 634.922L1157.91 591.721L767.818 816.819L767.912 860.021L1158.01 634.922Z" fill="white"/>
<path d="M746.345 816.824L413.17 624.244L413.076 667.727L746.438 860.026L746.345 816.824Z" fill="white"/>
<path d="M785.636 407.767L894.318 470.742L755.253 551.054L615.438 470.273L722.714 407.579L685.205 386.119L578.116 448.345H577.554L521.29 416.576L521.759 459.684L540.513 470.086L401.917 550.211H401.355L262.008 469.524L278.137 460.152L277.575 416.951L10.6035 571.109L403.23 797.051L498.878 741.854L461.369 720.112L403.23 754.318L263.509 673.724L402.949 593.225L757.129 798.175L1147.13 573.264L823.145 386.775L785.636 407.767ZM225.062 652.077H224.405L85.8093 571.202L225.062 491.078H225.625L364.314 572.139L225.062 652.077ZM439.239 572.139L578.304 491.827L718.025 572.139L579.242 652.733L439.239 572.139ZM756.472 755.067L616.751 674.474L755.91 594.162L895.443 675.224L756.472 755.067ZM1071.64 572.983L932.39 653.482H931.827L793.231 572.139L795.013 571.109L931.827 491.921L1071.64 572.983Z" fill="white"/>
<path d="M763.021 301.78L763.678 314.432L764.147 398.117L855.857 346.669L854.637 250.051L763.021 301.78Z" fill="white"/>
<path d="M753.937 281.161L843.021 231.024L750.843 179.107L659.32 230.556L751.499 282.567L753.937 281.161Z" fill="white"/>
<path d="M741.552 398.199L741.458 379.082L740.333 301.862L647.967 249.852L649.186 346.189L741.552 398.199Z" fill="white"/>
<path d="M410.822 424.632L411.479 437.377L411.948 521.063L503.657 469.614L502.438 372.996L410.822 424.632Z" fill="#EF3E47"/>
<path d="M399.284 405.512L401.722 404.106L490.806 353.97L398.628 302.053L307.105 353.501L399.284 405.512Z" fill="#EF3E47"/>
<path d="M389.337 521.16L389.243 502.043L388.118 424.823L295.752 372.812L296.971 469.149L389.337 521.16Z" fill="#EF3E47"/>
<path d="M589.926 123.157L590.582 135.809L591.051 219.494L682.855 168.046L681.636 71.5215L589.926 123.157Z" fill="#EF3E47"/>
<path d="M578.479 103.946L580.918 102.54L669.908 52.4034L577.729 0.486328L486.301 52.0285L578.479 103.946Z" fill="#EF3E47"/>
<path d="M568.548 219.592L568.454 200.474L567.235 123.349L474.963 71.3379L476.088 167.581L568.548 219.592Z" fill="#EF3E47"/>
</g>
<defs>
<clipPath id="clip0_49_3594">
<rect width="1158" height="1109" fill="white" transform="translate(0 0.486328)"/>
</clipPath>
</defs>
</svg>
