<svg width="1011" height="1248" viewBox="0 0 1011 1248" fill="none" xmlns="http://www.w3.org/2000/svg">
<g clip-path="url(#clip0_49_3678)">
<path d="M686.605 298.242V364.619L744.096 331.524L686.605 298.242Z" fill="white"/>
<path d="M410.31 610.915L410.497 535.069L343.816 496.256V572.383L404.87 607.821L410.31 610.915Z" fill="#EF3E47"/>
<path d="M411.527 644.467L344.846 682.811L344.752 827.846L344.658 956.381L345.408 956.756L411.339 918.88L411.527 644.467Z" fill="white"/>
<path d="M516 953.105L581.931 915.042V351.215L516.188 389.091L516 480.031V480.124V953.105Z" fill="#EF3E47"/>
<path d="M497.064 957.234V496.348L430.383 534.88V626.382C430.428 626.944 430.428 627.508 430.383 628.07C430.435 628.662 430.435 629.258 430.383 629.851V918.702L497.064 957.234Z" fill="#EF3E47"/>
<path d="M667.845 204.398L602.196 241.899V332.933C602.196 332.933 602.196 333.589 602.196 333.87C602.184 335.594 601.697 337.281 600.789 338.746V913.822L667.939 952.73V204.398H667.845Z" fill="#EF3E47"/>
<path d="M335.472 589.258L268.697 627.79L309.212 651.322L335.566 666.604L402.434 628.071L335.472 589.258Z" fill="white"/>
<path d="M353.012 479.942L419.88 518.756L486.749 480.224L419.411 441.598L353.012 479.942Z" fill="#EF3E47"/>
<path d="M430.658 349.621L429.908 426.123L497.246 464.655L497.527 388.528L430.658 349.621Z" fill="#EF3E47"/>
<path d="M506.913 295.439L440.514 333.69L507.382 372.598L574.251 333.972L573.032 333.315L506.913 295.439Z" fill="#EF3E47"/>
<path d="M516.84 202.621L516.184 279.123L583.521 317.749L583.709 241.528L516.84 202.621Z" fill="#EF3E47"/>
<path d="M526.789 186.685L593.564 225.498L660.432 186.966L596.471 149.465H596.002L533.448 182.091L526.789 186.685Z" fill="#EF3E47"/>
<path d="M346.82 362.28L411.907 328.248V248.746L347.008 286.153L346.82 362.28Z" fill="#EF3E47"/>
<path d="M260.252 323.455L327.589 362.081L327.777 285.86L260.908 246.953L260.252 323.455Z" fill="#EF3E47"/>
<path d="M270.857 231.026L337.632 269.934L404.501 231.401L337.632 192.494L270.857 231.026Z" fill="#EF3E47"/>
<path d="M582.313 136.147V56.7383L517.32 94.1455L517.227 170.179L582.313 136.147Z" fill="white"/>
<path d="M430.566 131.463L497.904 169.995L498.185 93.7744L431.317 54.9609L430.566 131.463Z" fill="white"/>
<path d="M441.156 39.0185L508.025 77.832L574.893 39.2998L507.931 0.486328L441.156 39.0185Z" fill="white"/>
<path d="M582.313 1213.46V1133.96L517.32 1171.36L517.227 1247.49L582.313 1213.46Z" fill="#EF3E47"/>
<path d="M497.904 1247.31L498.185 1171.09L431.317 1132.18L430.566 1208.68L497.904 1247.31Z" fill="#EF3E47"/>
<path d="M506.632 1078.55L441.264 1116.33L508.038 1155.14L573.969 1117.17L506.632 1078.55Z" fill="#EF3E47"/>
<path d="M837.692 185.643V106.141L772.793 143.548L772.605 219.581L837.692 185.643Z" fill="#EF3E47"/>
<path d="M686.039 180.867L753.377 219.399L753.564 143.272L686.696 104.365L686.039 180.867Z" fill="#EF3E47"/>
<path d="M696.627 88.4228L763.402 127.236L830.27 88.7041L763.402 49.8906L696.627 88.4228Z" fill="#EF3E47"/>
<path d="M0 693.322V770.011L253.219 915.702C253.789 916.055 254.323 916.463 254.813 916.921L325.246 957.328V682.821L258.471 644.008L258.846 825.512C258.836 827.148 258.398 828.754 257.575 830.168C256.753 831.582 255.574 832.757 254.157 833.575C253.014 834.226 251.747 834.628 250.438 834.758C249.13 834.887 247.808 834.74 246.56 834.325C245.476 834.165 244.429 833.816 243.465 833.294L0 693.322Z" fill="white"/>
<path d="M686.881 386.183V874.82C686.926 875.099 686.926 875.384 686.881 875.664V956.759L757.313 916.352C757.742 915.957 758.214 915.611 758.72 915.321L1010.91 769.723V693.034L767.817 833.475C766.388 834.285 764.771 834.705 763.128 834.694C760.641 834.694 758.255 833.706 756.496 831.948C754.738 830.19 753.749 827.805 753.749 825.319V627.782V528.686C753.657 527.876 753.657 527.059 753.749 526.249V347.369L686.881 386.183Z" fill="white"/>
<path d="M853.44 668.849C854.818 669.684 855.958 670.861 856.749 672.265C857.539 673.669 857.955 675.253 857.955 676.865C857.955 678.476 857.539 680.06 856.749 681.464C855.958 682.868 854.818 684.045 853.44 684.88L772.879 731.757V809.196L1001.62 677.005L772.223 544.908V622.348L853.44 668.849Z" fill="white"/>
<path d="M772.498 710.01L829.707 677.009L772.498 644.008V710.01Z" fill="white"/>
<path d="M238.496 710.008V644.1L181.287 677.007L238.496 710.008Z" fill="white"/>
<path d="M346.82 1143.7L411.907 1109.67V1030.17L347.008 1067.58L346.82 1143.7Z" fill="white"/>
<path d="M260.252 1104.89L327.589 1143.52L327.777 1067.3L260.908 1028.39L260.252 1104.89Z" fill="white"/>
<path d="M270.857 1012.45L337.632 1051.36L404.501 1012.83L337.632 973.918L270.857 1012.45Z" fill="white"/>
<path d="M601.449 1100.49L666.63 1066.46V986.955L601.637 1024.36L601.449 1100.49Z" fill="white"/>
<path d="M514.881 1061.66L582.218 1100.29L582.406 1024.07L515.537 985.162L514.881 1061.66Z" fill="white"/>
<path d="M659.208 969.61L592.246 930.703L525.471 969.235L592.246 1008.14L659.208 969.61Z" fill="white"/>
</g>
<defs>
<clipPath id="clip0_49_3678">
<rect width="1011" height="1247" fill="white" transform="translate(0 0.486328)"/>
</clipPath>
</defs>
</svg>
