<svg width="1076" height="1056" viewBox="0 0 1076 1056" fill="none" xmlns="http://www.w3.org/2000/svg">
<g clip-path="url(#clip0_49_4177)">
<path d="M687.318 537.791L611.792 494.657L533.081 448.991L455.026 403.701L453.902 402.857L68.873 180.717L9.37109 214.943L840.523 694.386V626.309L687.318 537.791Z" fill="white"/>
<path d="M534.113 71.2823C535.341 70.6866 536.684 70.3666 538.049 70.3446C538.61 70.2997 539.174 70.2997 539.735 70.3446H540.391H541.047L542.64 71.0009L849.239 248.225L909.397 214.843L537.768 0.486328L166.232 214.656L225.453 249.163L533.083 71.6573C533.083 71.6573 533.551 71.4698 534.113 71.2823Z" fill="#EF3E47"/>
<path d="M777.746 313.213C777.295 313.441 776.824 313.629 776.341 313.776L622.385 402.763L620.792 403.982L556.512 441.208L616.388 475.997L970.12 270.548L1065.79 214.943L1006.57 180.717L856.645 267.172C856.159 267.634 855.625 268.043 855.052 268.391L777.746 313.213Z" fill="white"/>
<path d="M469.541 671.782V936.493C469.541 936.493 469.541 937.15 469.541 937.525C469.389 938.99 468.894 940.399 468.096 941.637C467.299 942.875 466.221 943.908 464.95 944.651C463.512 945.438 461.903 945.857 460.265 945.87C458.63 945.831 457.026 945.414 455.579 944.651L142.328 764.426C141.708 764.106 141.14 763.695 140.641 763.207L139.329 761.426C139.002 760.901 138.75 760.333 138.58 759.738C138.58 759.738 138.58 759.738 138.58 759.175C138.494 758.742 138.494 758.296 138.58 757.862C138.535 757.489 138.535 757.111 138.58 756.737V400.601L78.4219 366.188V709.571C78.4728 710.164 78.4728 710.76 78.4219 711.353V795.745L152.354 838.035L153.853 839.161L528.668 1055.3V637.275L519.954 642.245L469.541 671.782Z" fill="#EF3E47"/>
<path d="M937.788 756.266C937.834 756.828 937.834 757.392 937.788 757.954C937.788 757.954 937.788 757.954 937.788 758.704C937.605 759.428 937.321 760.122 936.945 760.767C936.497 761.432 935.996 762.06 935.445 762.643H934.977C934.516 763.067 934.014 763.444 933.478 763.768L620.413 944.649C618.967 945.412 617.363 945.829 615.728 945.868C614.576 945.831 613.437 945.61 612.355 945.212L611.043 944.649C609.6 943.821 608.404 942.623 607.576 941.18V940.054C607.46 939.664 607.303 939.286 607.108 938.929C607.108 938.929 607.108 937.991 607.108 937.523C607.108 937.054 607.108 936.866 607.108 936.491V671.124L548.074 636.991V1055.39L997.852 795.837V711.444C997.807 711.008 997.807 710.568 997.852 710.132L998.414 367.029L938.819 401.443L937.788 756.266Z" fill="#EF3E47"/>
<path d="M859.256 705.827L919.039 740.146L919.414 411.953L860.006 446.179L859.256 705.827Z" fill="#EF3E47"/>
<path d="M216.088 620.866L215.526 445.892L156.586 411.479V739.672L195.473 717.261L216.463 705.164V620.772L216.088 620.866Z" fill="#EF3E47"/>
<path d="M0.650206 299.325L772.019 745.292L831.146 711.16L0.275391 231.248L0.650206 299.325Z" fill="white"/>
<path d="M635.209 486.496L694.242 520.16L1075.99 299.989L1075.34 230.881L635.209 486.496Z" fill="white"/>
<path d="M303.695 745.203L519.026 621.052L459.337 586.545L325.528 663.999L244.381 710.977L303.695 745.203Z" fill="white"/>
<path d="M234.826 626.486L235.014 694.75L440.6 575.663L381.66 541.438L234.826 626.486Z" fill="white"/>
<path d="M225.633 721.76L165.85 756.267L450.334 920.27V851.818L225.633 721.76Z" fill="#EF3E47"/>
<path d="M625.197 920.17L909.588 756.261L849.899 722.035L625.478 851.812L625.197 920.17Z" fill="#EF3E47"/>
<path d="M9.37109 756.264L59.4089 785.145L59.5963 727.383L9.37109 756.264Z" fill="white"/>
<path d="M78.0566 875.268L128.563 846.387L78.0566 817.506V875.268Z" fill="white"/>
<path d="M997.003 874.987V817.506L947.434 846.387L997.003 874.987Z" fill="white"/>
<path d="M1065.7 756.356L1015.75 727.475L1015.85 785.143L1065.7 756.356Z" fill="white"/>
<path d="M1015.75 875.07L1075.07 840.938V772.674L1015.75 806.806V875.07Z" fill="white"/>
<path d="M528.401 95.9414L244.197 260.038L303.418 294.264L454.75 206.777L528.307 164.487V124.822L528.401 95.9414Z" fill="#EF3E47"/>
<path d="M772.779 294.262L832 260.036L547.141 96.0332L547.422 164.391L772.779 294.262Z" fill="#EF3E47"/>
<path d="M606.361 220.382L547.422 186.156L547.328 306.087L547.141 424.612L606.736 390.386L606.361 220.382Z" fill="#EF3E47"/>
<path d="M528.681 186.156L469.086 220.382V390.386L528.4 424.612L528.681 186.156Z" fill="#EF3E47"/>
<path d="M59.3145 875.168V806.716L0 772.49L0.0937037 840.942L59.3145 875.168Z" fill="white"/>
</g>
<defs>
<clipPath id="clip0_49_4177">
<rect width="1076" height="1055" fill="white" transform="translate(0 0.486328)"/>
</clipPath>
</defs>
</svg>
