<svg width="908" height="1127" viewBox="0 0 908 1127" fill="none" xmlns="http://www.w3.org/2000/svg">
<g clip-path="url(#clip0_49_4355)">
<path d="M77.2949 815.125L136.109 781.26V608.744C136.08 607.553 136.304 606.37 136.765 605.273V536.229L78.2329 570L77.2949 815.125Z" fill="#EF3E47"/>
<path d="M444.432 425.543L445.088 358.375L309.545 436.519L309.733 503.217L444.432 425.543Z" fill="#EF3E47"/>
<path d="M86.7656 831.369L367.983 993.004L367.795 925.742L145.579 797.504L86.7656 831.369Z" fill="#EF3E47"/>
<path d="M820.858 831.365L815.323 828.269L762.138 797.688L540.297 925.738L540.203 993.094L809.132 838.12L812.415 836.243L820.858 831.365Z" fill="#EF3E47"/>
<path d="M136.663 447.018L10.4062 519.814L68.8447 553.586L136.476 514.561L136.663 447.018Z" fill="#EF3E47"/>
<path d="M450.243 154.054C451.669 153.231 453.287 152.797 454.933 152.797C456.58 152.797 458.197 153.231 459.623 154.054L607.642 239.609L666.831 206.869L455.215 84.916L242.566 206.869L300.161 240.359L450.243 154.054Z" fill="white"/>
<path d="M618.34 601.894L677.153 635.665L676.966 568.967L618.34 535.57V601.894Z" fill="white"/>
<path d="M618.34 336.795L676.309 370.191L675.84 223.285L618.34 256.588V336.795Z" fill="white"/>
<path d="M291.064 601.722L290.501 256.596L232.813 222.918L232.25 635.588L284.404 605.569L291.064 601.722Z" fill="white"/>
<path d="M459.632 704.063H458.412H457.381C456.602 704.161 455.814 704.161 455.036 704.063C454.226 704.16 453.407 704.16 452.597 704.063H451.94H450.252L300.169 617.945L241.355 651.811L415.264 751.624L454.942 774.42L527.075 732.675H527.919L667.778 652.28L609.058 618.602L459.632 704.063Z" fill="white"/>
<path d="M445.555 790.647L218.179 659.97C216.748 659.143 215.56 657.953 214.737 656.52C213.913 655.087 213.483 653.461 213.489 651.808L214.146 206.868C214.156 205.231 214.594 203.625 215.417 202.21C216.239 200.794 217.418 199.619 218.836 198.8L446.211 67.4666V25.2521V0.486328L155.895 167.562L154.957 690.927L445.742 858.003V790.647H445.555Z" fill="white"/>
<path d="M754.251 415.032V167.656L464.686 0.486328V67.748L689.809 198.331C691.227 199.15 692.406 200.325 693.229 201.741C694.052 203.156 694.49 204.762 694.5 206.399C694.546 207.117 694.546 207.838 694.5 208.557V380.885L754.251 415.032Z" fill="white"/>
<path d="M753.134 691.491V612.597L695.446 579.67V651.81C695.443 653.472 694.998 655.104 694.158 656.538C693.317 657.972 692.111 659.157 690.662 659.971L536.546 748.997H535.795L464.318 790.273V857.629L526.509 821.793L753.134 691.491Z" fill="white"/>
<path d="M463.199 425.547L767.492 599.001C768.923 599.828 770.111 601.018 770.935 602.451C771.758 603.884 772.188 605.51 772.182 607.163L771.525 781.462L830.245 815.139V569.733L464.419 358.191L463.199 425.547Z" fill="#EF3E47"/>
<path d="M454.187 263.904L309.545 346.832V414.751L450.247 333.886C451.677 333.076 453.294 332.656 454.937 332.667C456.581 332.656 458.198 333.076 459.628 333.886L839.43 553.964L898.525 520.287L454.187 263.904Z" fill="#EF3E47"/>
<path d="M386.365 642.89L445.742 679.382L445.554 639.888L445.46 614.09L386.365 580.037V642.89Z" fill="#EF3E47"/>
<path d="M521.727 646.938V578.645L464.227 613.917L464.508 680.053L521.727 646.938Z" fill="#EF3E47"/>
<path d="M454.749 596.187L512.813 560.539L454.937 527.049L395.561 562.134L454.749 596.187Z" fill="#EF3E47"/>
<path d="M907.344 870.29L908.001 536.045L849.375 569.441V831.358C849.372 833.021 848.927 834.652 848.087 836.086C847.246 837.52 846.04 838.705 844.591 839.52L535.702 1017.76C534.276 1018.56 532.665 1018.98 531.029 1018.96C529.393 1018.95 527.789 1018.51 526.376 1017.68C524.963 1016.86 523.79 1015.68 522.975 1014.26C522.159 1012.84 521.728 1011.23 521.725 1009.6V846.931L464.225 880.046L463.475 1126.2L907.344 870.29Z" fill="#EF3E47"/>
<path d="M444.62 1126.2L443.869 879.389L386.369 846.274V1008.94C386.359 1010.58 385.921 1012.18 385.098 1013.6C384.275 1015.01 383.097 1016.19 381.679 1017.01C380.253 1017.83 378.635 1018.26 376.989 1018.26C375.342 1018.26 373.725 1017.83 372.299 1017.01L62.7533 838.769C61.3218 837.943 60.1342 836.753 59.3106 835.32C58.487 833.886 58.0567 832.261 58.0632 830.608V568.785L0.938016 536.045L0 870.477L444.62 1126.2Z" fill="#EF3E47"/>
</g>
<defs>
<clipPath id="clip0_49_4355">
<rect width="908" height="1126" fill="white" transform="translate(0 0.486328)"/>
</clipPath>
</defs>
</svg>
